<svg width='200' height='200' fill="#51A7F9" xmlns="http://www.w3.org/2000/svg" xmlns:xlink="http://www.w3.org/1999/xlink" version="1.1" x="0px" y="0px" viewBox="0 0 100 100" style="enable-background:new 0 0 100 100;" xml:space="preserve"><path d="M50,3.7C24.5,3.7,3.7,24.5,3.7,50c0,25.5,20.8,46.3,46.3,46.3c25.5,0,46.3-20.8,46.3-46.3  C96.3,24.5,75.5,3.7,50,3.7z M72.3,20.8L20.8,72.3c-5.7-7.5-8.3-16.7-7.4-26.1c1-9.8,5.8-18.6,13.4-24.8c6.5-5.3,14.8-8.2,23.2-8.2  c0,0,0,0,0,0h0c0,0,0,0,0,0C58.1,13.2,65.9,15.9,72.3,20.8z M86.6,53.5c-0.9,9.8-5.6,18.6-13.2,24.9c-6.6,5.4-14.9,8.4-23.4,8.4  c0,0,0,0,0,0h0c0,0,0,0,0,0c-8.1,0-16.1-2.7-22.5-7.7l51.6-51.6C84.9,34.9,87.5,44.1,86.6,53.5z"/></svg>