<?xml version="1.0" encoding="utf-8"?>
<!-- Generator: Adobe Illustrator 17.0.0, SVG Export Plug-In . SVG Version: 6.00 Build 0)  -->
<!DOCTYPE svg PUBLIC "-//W3C//DTD SVG 1.1//EN" "http://www.w3.org/Graphics/SVG/1.1/DTD/svg11.dtd">
<svg version="1.1" id="Слой_1" xmlns="http://www.w3.org/2000/svg" xmlns:xlink="http://www.w3.org/1999/xlink" x="0px" y="0px"
	 width="70.619px" height="80px" viewBox="8.69 9.844 70.619 80" enable-background="new 8.69 9.844 70.619 80"
	 xml:space="preserve">
<g>
	<path fill="#FFFFFF" d="M21.252,50.102H38.38c0.93,0,1.684-0.754,1.684-1.684s-0.754-1.684-1.684-1.684H21.252
		c-0.93,0-1.684,0.754-1.684,1.684C19.567,49.349,20.322,50.102,21.252,50.102z"/>
	<path fill="#FFFFFF" d="M47.643,57.681H21.252c-0.93,0-1.684,0.754-1.684,1.684s0.754,1.684,1.684,1.684h26.392
		c0.93,0,1.684-0.754,1.684-1.684S48.573,57.681,47.643,57.681z"/>
	<path fill="#FFFFFF" d="M47.643,68.629H21.252c-0.93,0-1.684,0.754-1.684,1.684c0,0.93,0.754,1.684,1.684,1.684h26.392
		c0.93,0,1.684-0.754,1.684-1.684C49.328,69.383,48.573,68.629,47.643,68.629z"/>
	<path fill="#FFFFFF" d="M79.3,26.914c0.012-0.117,0.012-0.236,0-0.354V26.51c-0.033-0.128-0.081-0.253-0.143-0.371l-0.051-0.092
		c-0.075-0.126-0.165-0.242-0.27-0.345L62.366,10.283c-0.315-0.286-0.728-0.443-1.154-0.438H34.795c-4.65,0-8.421,3.77-8.421,8.421
		v4.211h-9.262c-4.651-0.001-8.421,3.77-8.421,8.421v50.526c0,4.65,3.77,8.421,8.421,8.421h36.084c4.65,0,8.421-3.77,8.421-8.421
		v-4.211h9.263c4.65,0,8.421-3.77,8.421-8.421V26.914H79.3z M62.896,15.427l10.459,9.802h-8.774c-0.93,0-1.684-0.754-1.684-1.684
		C62.896,23.546,62.896,15.427,62.896,15.427z M58.248,81.44c0,2.79-2.262,5.053-5.053,5.053H17.112
		c-2.79,0-5.053-2.262-5.053-5.053V30.914c0-2.79,2.262-5.053,5.053-5.053h24.733v10.316c0,2.79,2.262,5.053,5.053,5.053h11.351
		V81.44z M45.212,36.177V28.06l10.459,9.802h-8.775C45.966,37.861,45.212,37.108,45.212,36.177z M70.879,73.861h-9.263V62.215h4.413
		c0.93,0,1.684-0.754,1.684-1.684c0-0.93-0.754-1.684-1.684-1.684h-4.413v-7.579h4.413c0.93,0,1.684-0.754,1.684-1.684
		s-0.754-1.684-1.684-1.684h-4.413v-8.354c0.003-0.465-0.186-0.909-0.522-1.229L44.681,22.914c-0.315-0.286-0.728-0.443-1.154-0.438
		H29.743v-4.211c0-2.79,2.262-5.053,5.053-5.053h24.733v10.333c0,2.79,2.262,5.053,5.053,5.053h11.351v40.211
		C75.932,71.599,73.67,73.861,70.879,73.861z"/>
</g>
</svg>
