<?xml version="1.0" encoding="utf-8"?>
<!-- Generator: Adobe Illustrator 17.0.0, SVG Export Plug-In . SVG Version: 6.00 Build 0)  -->
<!DOCTYPE svg PUBLIC "-//W3C//DTD SVG 1.1//EN" "http://www.w3.org/Graphics/SVG/1.1/DTD/svg11.dtd">
<svg version="1.1" id="Слой_1" xmlns="http://www.w3.org/2000/svg" xmlns:xlink="http://www.w3.org/1999/xlink" x="0px" y="0px"
	 width="18.534px" height="21px" viewBox="24.732 17.349 18.534 21" enable-background="new 24.732 17.349 18.534 21"
	 xml:space="preserve">
<g>
	<path fill="#1AA1DC" d="M28.048,27.944l4.482-0.026c0.243-0.001,0.44-0.2,0.438-0.443c-0.001-0.243-0.2-0.44-0.443-0.438
		l-4.482,0.026c-0.243,0.001-0.44,0.2-0.438,0.443C27.606,27.749,27.805,27.945,28.048,27.944z"/>
	<path fill="#1AA1DC" d="M34.965,29.886l-6.906,0.04c-0.243,0.001-0.44,0.2-0.438,0.443s0.2,0.44,0.443,0.438l6.906-0.04
		c0.243-0.001,0.44-0.2,0.438-0.443C35.407,30.081,35.209,29.885,34.965,29.886z"/>
	<path fill="#1AA1DC" d="M34.982,32.751l-6.906,0.04c-0.243,0.001-0.44,0.2-0.438,0.443c0.001,0.243,0.2,0.44,0.443,0.438
		l6.906-0.04c0.243-0.001,0.44-0.2,0.438-0.443C35.424,32.946,35.225,32.749,34.982,32.751z"/>
	<path fill="#1AA1DC" d="M43.202,21.788c0.003-0.031,0.003-0.062-0.001-0.093l0-0.013c-0.009-0.034-0.022-0.066-0.038-0.097
		l-0.013-0.024c-0.02-0.033-0.044-0.063-0.071-0.09l-4.333-4.009c-0.083-0.074-0.191-0.115-0.303-0.113l-6.912,0.04
		c-1.217,0.007-2.198,0.999-2.191,2.216l0.006,1.102l-2.424,0.014c-1.217,0.007-2.198,0.999-2.191,2.216l0.077,13.22
		c0.007,1.217,0.999,2.198,2.216,2.191l9.442-0.055c1.217-0.007,2.198-0.999,2.191-2.216l-0.006-1.102l2.424-0.014
		c1.217-0.007,2.198-0.999,2.191-2.216L43.202,21.788L43.202,21.788z M38.892,18.807l2.752,2.549l-2.296,0.013
		c-0.243,0.001-0.442-0.195-0.443-0.438C38.904,20.931,38.892,18.807,38.892,18.807z M37.777,36.087
		c0.004,0.73-0.584,1.325-1.314,1.33l-9.442,0.055c-0.73,0.004-1.325-0.584-1.33-1.314l-0.077-13.22
		c-0.004-0.73,0.584-1.325,1.314-1.33l6.472-0.038l0.016,2.699c0.004,0.73,0.6,1.319,1.33,1.314l2.97-0.017L37.777,36.087z
		 M34.296,24.263l-0.012-2.124l2.752,2.549l-2.296,0.013C34.496,24.703,34.298,24.507,34.296,24.263z M41.07,34.084l-2.424,0.014
		l-0.018-3.047l1.155-0.007c0.243-0.001,0.44-0.2,0.438-0.443c-0.001-0.243-0.2-0.44-0.443-0.438l-1.155,0.007l-0.012-1.983
		l1.155-0.007c0.243-0.001,0.44-0.2,0.438-0.443s-0.2-0.44-0.443-0.438l-1.155,0.007l-0.013-2.186c0-0.122-0.05-0.238-0.139-0.321
		l-4.318-4.005c-0.083-0.074-0.191-0.115-0.303-0.113l-3.607,0.021L30.221,19.6c-0.004-0.73,0.584-1.325,1.314-1.33l6.472-0.038
		l0.016,2.704c0.004,0.73,0.6,1.319,1.33,1.314l2.97-0.017l0.061,10.521C42.389,33.485,41.8,34.08,41.07,34.084z"/>
</g>
</svg>
