<?xml version="1.0" encoding="utf-8"?>
<!-- Generator: Adobe Illustrator 17.0.0, SVG Export Plug-In . SVG Version: 6.00 Build 0)  -->
<!DOCTYPE svg PUBLIC "-//W3C//DTD SVG 1.1//EN" "http://www.w3.org/Graphics/SVG/1.1/DTD/svg11.dtd">
<svg version="1.1" id="Слой_1" xmlns="http://www.w3.org/2000/svg" xmlns:xlink="http://www.w3.org/1999/xlink" x="0px" y="0px"
	 width="81.576px" height="80px" viewBox="-29.788 -29.212 81.576 80" enable-background="new -29.788 -29.212 81.576 80"
	 xml:space="preserve">
<g>
	<path fill="#455773" d="M46.727-21.522H33.593v-5.254c0-0.871-0.705-1.576-1.576-1.576c-0.871,0-1.576,0.705-1.576,1.576v5.254
		H-8.437v-5.254c0-0.871-0.705-1.576-1.576-1.576s-1.576,0.705-1.576,1.576v5.254h-13.134c-2.31,0-4.205,1.891-4.205,4.205V45.73
		c0,2.31,1.891,4.205,4.205,4.205H46.73c2.31,0,4.205-1.891,4.205-4.205v-63.051C50.931-19.631,49.04-21.522,46.727-21.522z
		 M-25.776-17.321c0-0.571,0.482-1.049,1.049-1.049h13.134v5.254c0,0.871,0.705,1.576,1.576,1.576c0.871,0,1.576-0.705,1.576-1.576
		v-5.254h38.878v5.254c0,0.871,0.705,1.576,1.576,1.576c0.871,0,1.576-0.705,1.576-1.576v-5.254h13.134
		c0.571,0,1.049,0.482,1.049,1.049v11.035h-73.548V-17.321z M46.727,46.775h-71.449c-0.571,0-1.049-0.482-1.049-1.049v-48.86H47.78
		v48.86C47.78,46.293,47.298,46.775,46.727,46.775z"/>
	<path fill="#455773" d="M46.727-21.522v-0.86H34.449v-4.394c0-1.346-1.09-2.436-2.436-2.436s-2.436,1.09-2.436,2.436v4.394H-7.577
		v-4.394c0-1.346-1.09-2.436-2.436-2.436c-1.346,0-2.436,1.09-2.436,2.436v4.394h-12.277c-2.788,0.004-5.058,2.273-5.061,5.061
		v63.047c0.004,2.788,2.273,5.058,5.061,5.061h71.453c2.788-0.004,5.058-2.273,5.061-5.061v-63.047
		c-0.004-2.788-2.273-5.058-5.061-5.061V-21.522v0.86c0.92,0,1.75,0.375,2.362,0.983c0.608,0.608,0.983,1.442,0.983,2.362V45.73
		c0,0.92-0.375,1.75-0.983,2.362c-0.608,0.608-1.442,0.983-2.362,0.983h-71.453c-0.92,0-1.75-0.375-2.362-0.983
		c-0.608-0.612-0.983-1.442-0.983-2.362v-63.051c0-0.92,0.375-1.75,0.983-2.362c0.608-0.608,1.442-0.983,2.362-0.983h13.994v-6.111
		c0-0.397,0.323-0.716,0.716-0.719c0.397,0,0.716,0.323,0.719,0.719v6.111h40.595v-6.111c0-0.397,0.323-0.716,0.719-0.719
		c0.397,0,0.716,0.323,0.719,0.719v6.111H46.73L46.727-21.522z M-25.776-17.321h0.86l0.059-0.13l0.13-0.059h12.277v4.394
		c0,1.346,1.09,2.436,2.436,2.436c1.342,0,2.436-1.09,2.436-2.436v-4.394h37.162v4.394c0,1.346,1.09,2.436,2.436,2.436
		c1.342,0,2.436-1.09,2.436-2.436v-4.394h12.277l0.13,0.059l0.059,0.13v10.175h-71.839v-10.175H-25.776h-0.86v11.892h75.272v-11.892
		c-0.011-1.06-0.849-1.898-1.91-1.91H32.733v6.111c0,0.397-0.323,0.716-0.719,0.719c-0.397,0-0.716-0.323-0.719-0.719v-6.111H-9.298
		v6.111c0,0.397-0.323,0.716-0.719,0.719c-0.397,0-0.716-0.323-0.719-0.719v-6.111H-24.73c-1.06,0.011-1.898,0.849-1.91,1.91
		H-25.776z M46.727,46.775v-0.86h-71.449l-0.133-0.059l-0.059-0.13V-2.278h71.835v48l-0.059,0.13l-0.13,0.059L46.727,46.775v0.86
		c1.06-0.011,1.898-0.849,1.91-1.91v-49.72h-75.272v49.72c0.011,1.06,0.849,1.898,1.91,1.91h71.453V46.775z"/>
	<path fill="#455773" d="M19.936,15.079c-0.675-0.549-1.669-0.445-2.217,0.23L9.417,25.518L4.07,21.064
		c-0.667-0.556-1.661-0.467-2.217,0.2s-0.467,1.661,0.2,2.217l6.571,5.473c0.326,0.267,0.742,0.397,1.161,0.36
		c0.419-0.041,0.805-0.248,1.072-0.575l9.307-11.447C20.711,16.622,20.611,15.628,19.936,15.079z"/>
	<path fill="#455773" d="M19.936,15.079l0.541-0.667c-0.449-0.367-0.997-0.549-1.535-0.545c-0.705,0-1.409,0.308-1.891,0.897
		l-7.753,9.533L4.622,20.4c-0.452-0.378-1.012-0.564-1.557-0.564c-0.693,0-1.39,0.3-1.873,0.875
		c-0.378,0.452-0.564,1.009-0.564,1.557c0,0.693,0.3,1.391,0.875,1.873l6.571,5.473c0.441,0.363,0.99,0.564,1.561,0.564l0.23-0.011
		h0.007H9.869c0.645-0.063,1.242-0.382,1.654-0.886l9.307-11.447c0.367-0.449,0.549-0.997,0.545-1.535
		c0-0.705-0.308-1.409-0.897-1.891L19.936,15.079l-0.541,0.667c0.174,0.145,0.263,0.345,0.267,0.56c0,0.159-0.052,0.315-0.159,0.449
		l-9.307,11.45c-0.119,0.148-0.3,0.245-0.489,0.263H9.71l-0.07,0.004c-0.167,0-0.334-0.059-0.464-0.167l-6.571-5.473
		c-0.171-0.145-0.256-0.341-0.256-0.552c0-0.163,0.052-0.323,0.167-0.456c0.145-0.171,0.341-0.256,0.552-0.256
		c0.163,0,0.323,0.052,0.46,0.167l6.011,5.01l8.851-10.883c0.141-0.174,0.345-0.263,0.556-0.263c0.163,0,0.315,0.052,0.452,0.159
		L19.936,15.079z"/>
	<path fill="#455773" d="M11,3.696c-9.867,0-17.861,7.998-17.861,17.861S1.137,39.419,11,39.419c9.863,0,17.861-7.998,17.861-17.861
		S20.867,3.696,11,3.696z M11,36.267c-8.113,0-14.71-6.6-14.71-14.71c0-8.109,6.6-14.71,14.71-14.71c8.109,0,14.71,6.6,14.71,14.71
		C25.713,29.67,19.113,36.267,11,36.267z"/>
	<path fill="#455773" d="M11,3.696v-0.86c-10.342,0-18.722,8.38-18.722,18.722S0.658,40.279,11,40.279s18.722-8.38,18.722-18.722
		S21.342,2.836,11,2.836V3.696v0.86c4.698,0,8.944,1.902,12.025,4.98c3.078,3.081,4.98,7.327,4.98,12.025
		c0,4.698-1.902,8.944-4.98,12.025c-3.081,3.078-7.327,4.98-12.025,4.98c-4.698,0-8.944-1.902-12.025-4.98
		c-3.078-3.081-4.98-7.327-4.98-12.025c0-4.698,1.902-8.944,4.98-12.025C2.056,6.458,6.302,4.556,11,4.556V3.696z M11,36.267v-0.86
		c-3.819,0-7.279-1.55-9.789-4.06c-2.51-2.51-4.06-5.97-4.06-9.789s1.55-7.279,4.06-9.789c2.51-2.51,5.97-4.06,9.789-4.06
		s7.279,1.55,9.789,4.064c2.51,2.51,4.06,5.97,4.06,9.789s-1.55,7.279-4.06,9.789c-2.51,2.51-5.97,4.06-9.789,4.06V36.267v0.86
		c8.588,0,15.566-6.982,15.57-15.57c0-8.588-6.982-15.566-15.57-15.57c-8.588,0-15.566,6.982-15.57,15.57
		c0,8.588,6.982,15.566,15.57,15.57V36.267z"/>
</g>
</svg>
