<?xml version="1.0" encoding="utf-8"?>
<!-- Generator: Adobe Illustrator 17.0.0, SVG Export Plug-In . SVG Version: 6.00 Build 0)  -->
<!DOCTYPE svg PUBLIC "-//W3C//DTD SVG 1.1//EN" "http://www.w3.org/Graphics/SVG/1.1/DTD/svg11.dtd">
<svg version="1.1" id="Слой_1" xmlns="http://www.w3.org/2000/svg" xmlns:xlink="http://www.w3.org/1999/xlink" x="0px" y="0px"
	 width="22px" height="21.575px" viewBox="0 0 22 21.575" enable-background="new 0 0 22 21.575" xml:space="preserve">
<g>
	<path fill="#1AA1DC" d="M20.635,2.074h-3.542V0.657c0-0.235-0.19-0.425-0.425-0.425s-0.425,0.19-0.425,0.425v1.417H5.758V0.657
		c0-0.235-0.19-0.425-0.425-0.425s-0.425,0.19-0.425,0.425v1.417H1.366c-0.623,0-1.134,0.51-1.134,1.134v17.003
		c0,0.623,0.51,1.134,1.134,1.134h19.27c0.623,0,1.134-0.51,1.134-1.134V3.207C21.769,2.584,21.259,2.074,20.635,2.074z
		 M1.082,3.207c0-0.154,0.13-0.283,0.283-0.283h3.542v1.417c0,0.235,0.19,0.425,0.425,0.425s0.425-0.19,0.425-0.425V2.924h10.485
		v1.417c0,0.235,0.19,0.425,0.425,0.425s0.425-0.19,0.425-0.425V2.924h3.542c0.154,0,0.283,0.13,0.283,0.283v2.976H1.082V3.207z
		 M20.635,20.493H1.366c-0.154,0-0.283-0.13-0.283-0.283V7.033h19.836V20.21C20.919,20.363,20.789,20.493,20.635,20.493z"/>
	<path fill="#1AA1DC" d="M20.635,2.074V1.842h-3.311V0.657C17.324,0.294,17.03,0,16.667,0c-0.363,0-0.657,0.294-0.657,0.657v1.185
		H5.99V0.657C5.99,0.294,5.696,0,5.333,0C4.97,0,4.676,0.294,4.676,0.657v1.185H1.365C0.613,1.843,0.001,2.455,0,3.207V20.21
		c0.001,0.752,0.613,1.364,1.365,1.365h19.27c0.752-0.001,1.364-0.613,1.365-1.365V3.207c-0.001-0.752-0.613-1.364-1.365-1.365
		V2.074v0.232c0.248,0,0.472,0.101,0.637,0.265c0.164,0.164,0.265,0.389,0.265,0.637v17.003c0,0.248-0.101,0.472-0.265,0.637
		c-0.164,0.164-0.389,0.265-0.637,0.265H1.365c-0.248,0-0.472-0.101-0.637-0.265c-0.164-0.165-0.265-0.389-0.265-0.637V3.207
		c0-0.248,0.101-0.472,0.265-0.637c0.164-0.164,0.389-0.265,0.637-0.265h3.774V0.657c0-0.107,0.087-0.193,0.193-0.194
		c0.107,0,0.193,0.087,0.194,0.194v1.648h10.948V0.657c0-0.107,0.087-0.193,0.194-0.194c0.107,0,0.193,0.087,0.194,0.194v1.648
		h3.774L20.635,2.074L20.635,2.074z M1.082,3.207h0.232L1.33,3.172l0.035-0.016h3.311v1.185c0,0.363,0.294,0.657,0.657,0.657
		c0.362,0,0.657-0.294,0.657-0.657V3.156h10.022v1.185c0,0.363,0.294,0.657,0.657,0.657c0.362,0,0.657-0.294,0.657-0.657V3.156
		h3.311l0.035,0.016l0.016,0.035v2.744H1.314V3.207H1.082H0.85v3.207h20.3V3.207c-0.003-0.286-0.229-0.512-0.515-0.515h-3.774V4.34
		c0,0.107-0.087,0.193-0.194,0.194c-0.107,0-0.193-0.087-0.194-0.194V2.692H5.526V4.34c0,0.107-0.087,0.193-0.194,0.194
		c-0.107,0-0.193-0.087-0.194-0.194V2.692H1.364C1.078,2.695,0.852,2.921,0.849,3.207H1.082z M20.635,20.493v-0.232H1.366
		L1.33,20.245L1.314,20.21V7.264h19.373v12.945l-0.016,0.035l-0.035,0.016L20.635,20.493v0.232c0.286-0.003,0.512-0.229,0.515-0.515
		V6.801H0.85V20.21c0.003,0.286,0.229,0.512,0.515,0.515h19.27V20.493L20.635,20.493z"/>
	<path fill="#1AA1DC" d="M13.41,11.945c-0.182-0.148-0.45-0.12-0.598,0.062l-2.239,2.753l-1.442-1.201
		c-0.18-0.15-0.448-0.126-0.598,0.054c-0.15,0.18-0.126,0.448,0.054,0.598l1.772,1.476c0.088,0.072,0.2,0.107,0.313,0.097
		c0.113-0.011,0.217-0.067,0.289-0.155l2.51-3.087C13.619,12.361,13.592,12.093,13.41,11.945z"/>
	<path fill="#1AA1DC" d="M13.41,11.945l0.146-0.18c-0.121-0.099-0.269-0.148-0.414-0.147c-0.19,0-0.38,0.083-0.51,0.242
		l-2.091,2.571L9.28,13.38c-0.122-0.102-0.273-0.152-0.42-0.152c-0.187,0-0.375,0.081-0.505,0.236
		c-0.102,0.122-0.152,0.272-0.152,0.42c0,0.187,0.081,0.375,0.236,0.505l1.772,1.476l0,0c0.119,0.098,0.267,0.152,0.421,0.152
		l0.062-0.003h0.002h-0.001c0.174-0.017,0.335-0.103,0.446-0.239l2.51-3.087l0,0c0.099-0.121,0.148-0.269,0.147-0.414
		c0-0.19-0.083-0.38-0.242-0.51L13.41,11.945l-0.146,0.18c0.047,0.039,0.071,0.093,0.072,0.151c0,0.043-0.014,0.085-0.043,0.121
		l-2.51,3.088c-0.032,0.04-0.081,0.066-0.132,0.071h0.001l-0.019,0.001c-0.045,0-0.09-0.016-0.125-0.045l0,0l-1.772-1.476
		c-0.046-0.039-0.069-0.092-0.069-0.149c0-0.044,0.014-0.087,0.045-0.123c0.039-0.046,0.092-0.069,0.149-0.069
		c0.044,0,0.087,0.014,0.124,0.045l1.621,1.351l2.387-2.935c0.038-0.047,0.093-0.071,0.15-0.071c0.044,0,0.085,0.014,0.122,0.043
		L13.41,11.945z"/>
	<path fill="#1AA1DC" d="M11,8.875c-2.661,0-4.817,2.157-4.817,4.817S8.34,18.509,11,18.509s4.817-2.157,4.817-4.817
		S13.661,8.875,11,8.875z M11,17.659c-2.188,0-3.967-1.78-3.967-3.967S8.813,9.725,11,9.725s3.967,1.78,3.967,3.967
		C14.968,15.88,13.188,17.659,11,17.659z"/>
	<path fill="#1AA1DC" d="M11,8.875V8.643c-2.789,0-5.049,2.26-5.049,5.049s2.26,5.049,5.049,5.049s5.049-2.26,5.049-5.049
		S13.789,8.643,11,8.643V8.875v0.232c1.267,0,2.412,0.513,3.243,1.343c0.83,0.831,1.343,1.976,1.343,3.243s-0.513,2.412-1.343,3.243
		c-0.831,0.83-1.976,1.343-3.243,1.343s-2.412-0.513-3.243-1.343c-0.83-0.831-1.343-1.976-1.343-3.243s0.513-2.412,1.343-3.243
		C8.588,9.62,9.733,9.107,11,9.107V8.875z M11,17.659v-0.232c-1.03,0-1.963-0.418-2.64-1.095c-0.677-0.677-1.095-1.61-1.095-2.64
		s0.418-1.963,1.095-2.64C9.037,10.375,9.97,9.957,11,9.957s1.963,0.418,2.64,1.096c0.677,0.677,1.095,1.61,1.095,2.64
		s-0.418,1.963-1.095,2.64c-0.677,0.677-1.61,1.095-2.64,1.095V17.659v0.232c2.316,0,4.198-1.883,4.199-4.199
		c0-2.316-1.883-4.198-4.199-4.199c-2.316,0-4.198,1.883-4.199,4.199c0,2.316,1.883,4.198,4.199,4.199
		C11,17.891,11,17.659,11,17.659z"/>
</g>
</svg>
