<?xml version="1.0" encoding="utf-8"?>
<!-- Generator: Adobe Illustrator 17.0.0, SVG Export Plug-In . SVG Version: 6.00 Build 0)  -->
<!DOCTYPE svg PUBLIC "-//W3C//DTD SVG 1.1//EN" "http://www.w3.org/Graphics/SVG/1.1/DTD/svg11.dtd">
<svg version="1.1" id="Слой_1" xmlns="http://www.w3.org/2000/svg" xmlns:xlink="http://www.w3.org/1999/xlink" x="0px" y="0px"
	 width="81.577px" height="80px" viewBox="0 0 81.577 80" enable-background="new 0 0 81.577 80" xml:space="preserve">
<g>
	<path fill="#FFFFFF" d="M76.513,7.689H63.379V2.435c0-0.872-0.706-1.577-1.576-1.577c-0.87,0-1.577,0.705-1.577,1.577v5.253H21.349
		V2.435c0-0.872-0.706-1.577-1.577-1.577c-0.87,0-1.577,0.705-1.577,1.577v5.253H5.062c-2.312,0-4.203,1.892-4.203,4.203v63.047
		c0,2.312,1.892,4.203,4.203,4.203h71.453c2.312,0,4.203-1.892,4.203-4.203V11.892C80.717,9.58,78.825,7.689,76.513,7.689z
		 M4.011,11.892c0-0.569,0.481-1.051,1.051-1.051h13.135v5.253c0,0.871,0.706,1.577,1.577,1.577c0.87,0,1.577-0.705,1.577-1.577
		v-5.253h38.878v5.253c0,0.871,0.706,1.577,1.577,1.577s1.577-0.705,1.577-1.577v-5.253h13.135c0.569,0,1.051,0.481,1.051,1.051
		v11.033H4.011V11.892z M76.513,75.988H5.062c-0.569,0-1.051-0.481-1.051-1.051v-48.86h73.554v48.861
		C77.564,75.507,77.083,75.988,76.513,75.988z"/>
	<path fill="#FFFFFF" d="M76.513,7.689V6.83H64.238V2.435c0-1.346-1.091-2.434-2.434-2.435c-1.345,0.001-2.434,1.089-2.435,2.435
		V6.83H22.207V2.435C22.206,1.089,21.116,0.001,19.772,0c-1.345,0.001-2.434,1.089-2.435,2.435V6.83H5.061
		C2.272,6.833,0.003,9.102,0,11.892v63.046c0.003,2.79,2.272,5.059,5.062,5.062h71.453c2.79-0.003,5.059-2.272,5.062-5.062V11.892
		c-0.003-2.79-2.272-5.059-5.062-5.062L76.513,7.689l0.001,0.859c0.919,0,1.751,0.374,2.361,0.983
		c0.609,0.61,0.983,1.442,0.983,2.361v63.046c0,0.919-0.374,1.751-0.983,2.361c-0.61,0.609-1.442,0.983-2.361,0.983H5.062
		c-0.919,0-1.751-0.374-2.361-0.983c-0.609-0.611-0.983-1.443-0.983-2.361V11.892c0-0.919,0.374-1.751,0.983-2.361
		c0.61-0.609,1.442-0.983,2.361-0.983h13.993V2.435c0.001-0.397,0.321-0.717,0.717-0.718c0.396,0.001,0.717,0.321,0.718,0.718v6.112
		h40.596V2.435c0.001-0.397,0.322-0.717,0.718-0.718c0.396,0.001,0.717,0.321,0.718,0.718v6.112h13.993L76.513,7.689z M4.011,11.892
		H4.87l0.06-0.131l0.131-0.06h12.276v4.395c0.001,1.346,1.091,2.434,2.435,2.434c1.344,0,2.434-1.089,2.435-2.434v-4.395h37.161
		v4.395c0.001,1.346,1.091,2.434,2.435,2.434c1.344,0,2.434-1.089,2.435-2.434v-4.395h12.276l0.131,0.06l0.06,0.131v10.175H4.869
		V11.892H4.011H3.152v11.892h75.271V11.892c-0.013-1.06-0.85-1.897-1.91-1.91H62.52v6.112c-0.001,0.397-0.322,0.717-0.718,0.718
		c-0.396-0.001-0.717-0.321-0.718-0.718V9.982H20.49v6.112c-0.001,0.397-0.322,0.717-0.718,0.718
		c-0.396-0.001-0.717-0.321-0.718-0.718V9.982H5.062c-1.06,0.013-1.897,0.85-1.91,1.91H4.011z M76.513,75.988v-0.859H5.062
		l-0.131-0.06l-0.06-0.131V26.935h71.836v48.002l-0.06,0.131l-0.131,0.06v0.86v0.859c1.06-0.013,1.897-0.85,1.91-1.91V25.218H3.152
		v49.72c0.013,1.06,0.85,1.897,1.91,1.91h71.453L76.513,75.988z"/>
	<path fill="#FFFFFF" d="M49.721,44.293c-0.676-0.55-1.668-0.447-2.217,0.228L39.203,54.73l-5.345-4.453
		c-0.669-0.557-1.662-0.466-2.219,0.202c-0.557,0.668-0.466,1.662,0.202,2.219l6.569,5.474c0.325,0.269,0.743,0.398,1.161,0.358
		c0.418-0.041,0.806-0.248,1.072-0.574l9.307-11.448C50.499,45.836,50.397,44.843,49.721,44.293z"/>
	<path fill="#FFFFFF" d="M49.721,44.293l0.542-0.666c-0.449-0.366-0.998-0.547-1.535-0.546c-0.704-0.001-1.41,0.308-1.89,0.898
		l-7.753,9.535l-4.677-3.897c-0.453-0.378-1.011-0.565-1.558-0.564c-0.694-0.001-1.391,0.3-1.871,0.876
		c-0.378,0.453-0.565,1.01-0.564,1.558c-0.001,0.694,0.3,1.391,0.876,1.871l6.569,5.474l0.002,0.002
		c0.441,0.365,0.992,0.562,1.559,0.562l0.23-0.011l0.008-0.001l-0.004,0.001c0.647-0.064,1.242-0.381,1.654-0.887l9.308-11.448
		l-0.001,0.001c0.366-0.448,0.547-0.996,0.546-1.534c0.001-0.704-0.308-1.41-0.899-1.89L49.721,44.293l-0.542,0.666
		c0.176,0.143,0.264,0.346,0.265,0.558c-0.001,0.161-0.051,0.314-0.16,0.448l-9.308,11.449c-0.119,0.147-0.299,0.244-0.489,0.262
		h0.003l-0.069,0.003c-0.167,0-0.332-0.058-0.464-0.168l0.002,0.002l-6.569-5.474c-0.172-0.143-0.257-0.343-0.258-0.552
		c0.001-0.164,0.053-0.322,0.166-0.458c0.143-0.172,0.343-0.257,0.551-0.258c0.164,0.001,0.322,0.053,0.459,0.167l6.013,5.009
		l8.85-10.883c0.143-0.175,0.345-0.264,0.557-0.264c0.161,0.001,0.316,0.052,0.452,0.161L49.721,44.293z"/>
	<path fill="#FFFFFF" d="M40.788,32.907c-9.866,0-17.863,7.997-17.863,17.863s7.997,17.864,17.863,17.864
		c9.866,0,17.863-7.997,17.863-17.863S50.653,32.907,40.788,32.907z M40.788,65.481c-8.112,0-14.711-6.599-14.711-14.711
		s6.599-14.711,14.711-14.711s14.711,6.6,14.711,14.711C55.499,58.882,48.9,65.481,40.788,65.481z"/>
	<path fill="#FFFFFF" d="M40.788,32.907v-0.859c-10.34,0.001-18.721,8.382-18.722,18.722c0.001,10.34,8.382,18.721,18.722,18.722
		c10.34-0.001,18.721-8.382,18.722-18.722c-0.001-10.34-8.382-18.721-18.722-18.722V32.907v0.859
		c4.699,0.001,8.944,1.902,12.024,4.98c3.078,3.08,4.98,7.326,4.98,12.024c-0.001,4.699-1.902,8.944-4.98,12.024
		c-3.08,3.078-7.326,4.98-12.024,4.98c-4.699-0.001-8.944-1.902-12.024-4.98c-3.078-3.08-4.98-7.326-4.98-12.024
		c0.001-4.699,1.902-8.944,4.98-12.024c3.08-3.078,7.325-4.98,12.024-4.98L40.788,32.907z M40.788,65.481v-0.859
		c-3.82,0-7.279-1.552-9.79-4.062c-2.51-2.512-4.062-5.97-4.062-9.79c0-3.82,1.552-7.279,4.062-9.79
		c2.512-2.51,5.97-4.062,9.79-4.062c3.82,0,7.279,1.552,9.79,4.062c2.51,2.512,4.062,5.97,4.062,9.79c0,3.82-1.552,7.279-4.062,9.79
		c-2.512,2.51-5.97,4.062-9.79,4.062V65.481v0.859c8.588-0.002,15.568-6.982,15.57-15.57c-0.002-8.587-6.981-15.568-15.57-15.57
		c-8.588,0.002-15.568,6.982-15.57,15.57c0.002,8.588,6.982,15.568,15.57,15.57V65.481z"/>
</g>
</svg>
