<?xml version="1.0" encoding="utf-8"?>
<!-- Generator: Adobe Illustrator 17.0.0, SVG Export Plug-In . SVG Version: 6.00 Build 0)  -->
<!DOCTYPE svg PUBLIC "-//W3C//DTD SVG 1.1//EN" "http://www.w3.org/Graphics/SVG/1.1/DTD/svg11.dtd">
<svg version="1.1" id="Слой_1" xmlns="http://www.w3.org/2000/svg" xmlns:xlink="http://www.w3.org/1999/xlink" x="0px" y="0px"
	 width="80.941px" height="80px" viewBox="9.529 9.418 80.941 80" enable-background="new 9.529 9.418 80.941 80"
	 xml:space="preserve">
<g>
	<path fill="#FFFFFF" d="M43.3,72.396l14.446,14.97c0.418,0.524,1.047,0.838,1.675,0.838c0.733,0,1.361-0.314,1.78-0.942
		c0.104-0.104,0.104-0.21,0.104-0.314l4.187-14.551h10.154c7.537,0,13.609-6.071,13.609-13.609V24.242
		c0.001-7.539-6.071-13.61-13.608-13.61H24.352c-7.537,0-13.609,6.071-13.609,13.609v34.546c0,7.537,6.071,13.609,13.609,13.609
		L43.3,72.396z M12.837,58.787V24.241c0-6.385,5.129-11.516,11.516-11.516h51.295c6.385,0,11.516,5.129,11.516,11.516v34.546
		c0,6.385-5.129,11.516-11.516,11.516H64.656c-0.418,0-0.838,0.314-1.047,0.733l-4.188,15.075l-0.104-0.104L44.451,70.616
		c-0.21-0.21-0.418-0.314-0.733-0.314H24.352C17.967,70.302,12.837,65.173,12.837,58.787z"/>
	<path fill="#FFFFFF" d="M43.3,72.396l-0.873,0.843l14.446,14.97l0.873-0.843l-0.949,0.758c0.642,0.797,1.588,1.289,2.623,1.294
		c0.539,0.001,1.082-0.118,1.569-0.373c0.488-0.253,0.909-0.639,1.221-1.109l-1.01-0.674l0.859,0.859
		c0.2-0.192,0.357-0.483,0.411-0.722c0.057-0.24,0.047-0.4,0.049-0.45h-1.214l1.167,0.335l3.935-13.673h9.24
		c4.098,0.001,7.812-1.654,10.489-4.334c2.679-2.677,4.334-6.391,4.334-10.489V24.242v-0.002c0-4.098-1.655-7.813-4.334-10.49
		c-2.677-2.678-6.391-4.334-10.488-4.333H24.352c-4.098-0.001-7.812,1.654-10.489,4.334c-2.679,2.677-4.334,6.391-4.334,10.489
		v34.546c-0.001,4.098,1.654,7.812,4.334,10.489c2.677,2.679,6.391,4.334,10.489,4.334L43.3,73.61V72.396l-0.873,0.843L43.3,72.396
		v-1.214l-18.948-0.001c-6.869-0.002-12.393-5.525-12.395-12.395V24.241c0.002-6.869,5.525-12.393,12.395-12.395h51.296
		c6.869,0.002,12.392,5.524,12.394,12.395v0.002v34.546c-0.002,6.869-5.525,12.393-12.395,12.395H64.579l-4.487,15.593v0.172v0.02
		l0.736,0.011l-0.698-0.22c-0.04,0.129-0.037,0.208-0.037,0.209l0.736,0.011l-0.698-0.22l0.832,0.262l-0.618-0.618
		c-0.082,0.078-0.176,0.227-0.214,0.356l0.832,0.262l-0.618-0.618l-0.085,0.085l-0.066,0.1c-0.108,0.159-0.21,0.244-0.325,0.304
		c-0.115,0.059-0.253,0.097-0.446,0.098c-0.221,0.006-0.531-0.131-0.726-0.381l-0.036-0.045L43.816,71.182H43.3V72.396z
		 M12.837,58.787h1.214V24.241c0.003-5.719,4.581-10.298,10.301-10.301h51.295c5.719,0.003,10.298,4.581,10.301,10.301v34.546
		c-0.003,5.719-4.581,10.298-10.301,10.301H64.656c-0.517,0.002-0.958,0.186-1.307,0.435c-0.351,0.253-0.629,0.579-0.826,0.969
		l-0.052,0.104l-4.219,15.187l1.17,0.325l0.859-0.859l-0.097-0.097L45.318,69.765l-0.008-0.008
		c-0.174-0.175-0.404-0.359-0.692-0.486c-0.287-0.13-0.609-0.185-0.898-0.183H24.352c-5.719-0.003-10.297-4.581-10.301-10.301
		H12.837h-1.214c-0.001,3.521,1.418,6.713,3.718,9.011c2.298,2.3,5.489,3.719,9.01,3.718h19.367h0.004l0.028-0.301l-0.137,0.266
		l0.109,0.035l0.028-0.301l-0.137,0.266l0.112-0.218l-0.149,0.195l0.037,0.023l0.112-0.218l-0.149,0.195l0.002,0.002l0.015,0.015
		l0.859-0.859l-0.873,0.843l14.873,15.396l0.112,0.112l1.472,1.472l4.745-17.079l-1.17-0.325l1.086,0.542l0.064-0.077l0.004-0.003
		l-0.108-0.204v0.223l0.108-0.019l-0.108-0.204v0.223h10.992c3.521,0.001,6.713-1.419,9.011-3.718c2.3-2.298,3.719-5.49,3.718-9.011
		V24.24c0.001-3.521-1.419-6.713-3.718-9.011c-2.298-2.3-5.49-3.719-9.011-3.718H24.353c-3.521,0-6.713,1.42-9.011,3.719
		c-2.3,2.298-3.719,5.49-3.718,9.011v34.546H12.837z"/>
	<path fill="#FFFFFF" d="M24.876,30.103h49.202c0.628,0,1.047-0.418,1.047-1.047c0-0.628-0.418-1.047-1.047-1.047H24.876
		c-0.628,0-1.047,0.418-1.047,1.047C23.829,29.685,24.248,30.103,24.876,30.103z"/>
	<path fill="#FFFFFF" d="M24.876,30.103v1.214h49.202c0.58,0.005,1.187-0.208,1.617-0.643c0.435-0.431,0.648-1.038,0.643-1.617
		c0.005-0.58-0.208-1.187-0.643-1.617c-0.431-0.435-1.038-0.648-1.617-0.643H24.876c-0.58-0.005-1.187,0.208-1.617,0.643
		c-0.435,0.431-0.648,1.038-0.643,1.617c-0.005,0.58,0.208,1.187,0.643,1.617c0.431,0.435,1.038,0.648,1.617,0.643V30.103v-1.214
		l-0.014-0.001l-0.041,0.236l0.176-0.142l-0.135-0.093l-0.041,0.236l0.176-0.142l-0.189,0.152l0.232-0.076l-0.043-0.076
		l-0.189,0.152l0.232-0.076l-0.079,0.026l0.083-0.013l-0.003-0.013l-0.079,0.026l0.083-0.013l-0.001-0.014l0.001-0.014l-0.236-0.041
		l0.142,0.176l0.093-0.135l-0.236-0.041l0.142,0.176l-0.152-0.189l0.076,0.232l0.076-0.043l-0.152-0.189l0.076,0.232l-0.026-0.079
		l0.013,0.083l0.013-0.003l-0.026-0.079l0.013,0.083l0.014-0.001h49.202l0.014,0.001l0.041-0.236l-0.176,0.142l0.135,0.093
		l0.041-0.236l-0.176,0.142l0.189-0.152l-0.232,0.076l0.043,0.076l0.189-0.152l-0.232,0.076l0.079-0.026l-0.083,0.013l0.003,0.013
		l0.079-0.026l-0.083,0.013l0.001,0.014l-0.001,0.014l0.236,0.041l-0.142-0.176l-0.093,0.135l0.236,0.041l-0.142-0.176l0.152,0.189
		l-0.076-0.232l-0.076,0.043l0.152,0.189l-0.076-0.232l0.026,0.079l-0.013-0.083l-0.013,0.003l0.026,0.079l-0.013-0.083
		l-0.014,0.001H24.876V30.103z"/>
	<path fill="#FFFFFF" d="M24.876,42.665h49.202c0.628,0,1.047-0.418,1.047-1.047s-0.418-1.047-1.047-1.047H24.876
		c-0.628,0-1.047,0.418-1.047,1.047S24.248,42.665,24.876,42.665z"/>
	<path fill="#FFFFFF" d="M24.876,42.665v1.214h49.202c0.58,0.005,1.187-0.208,1.617-0.643c0.435-0.431,0.648-1.038,0.643-1.617
		c0.005-0.58-0.208-1.187-0.643-1.617c-0.431-0.435-1.038-0.648-1.617-0.643H24.876c-0.58-0.005-1.187,0.208-1.617,0.643
		c-0.435,0.431-0.648,1.038-0.643,1.617c-0.005,0.58,0.208,1.187,0.643,1.617c0.431,0.435,1.038,0.648,1.617,0.643V42.665v-1.214
		l-0.014-0.001l-0.041,0.236l0.176-0.142l-0.135-0.093l-0.041,0.236l0.176-0.142l-0.189,0.152l0.232-0.076l-0.043-0.076
		l-0.189,0.152l0.232-0.076l-0.079,0.026l0.083-0.013L25.04,41.62l-0.079,0.026l0.083-0.013l-0.001-0.014l0.001-0.014l-0.236-0.041
		l0.142,0.176l0.093-0.135l-0.236-0.041l0.142,0.176l-0.152-0.189l0.076,0.232l0.076-0.043l-0.152-0.189l0.076,0.232l-0.026-0.079
		l0.013,0.083l0.013-0.003l-0.026-0.079l0.013,0.083l0.014-0.001h49.202l0.014,0.001l0.041-0.236l-0.176,0.142l0.135,0.093
		l0.041-0.236l-0.176,0.142l0.189-0.152l-0.232,0.076l0.043,0.076l0.189-0.152l-0.232,0.076l0.079-0.026l-0.083,0.013l0.003,0.013
		l0.079-0.026l-0.083,0.013l0.001,0.014l-0.001,0.015l0.236,0.041l-0.142-0.176l-0.093,0.135l0.236,0.041l-0.142-0.176l0.152,0.189
		l-0.076-0.232l-0.076,0.043l0.152,0.189l-0.076-0.232l0.026,0.079l-0.013-0.083l-0.013,0.003l0.026,0.079l-0.013-0.083
		l-0.014,0.001H24.876V42.665z"/>
	<path fill="#FFFFFF" d="M54.397,54.181c0.628,0,1.047-0.418,1.047-1.047s-0.418-1.047-1.047-1.047H24.876
		c-0.628,0-1.047,0.418-1.047,1.047s0.418,1.047,1.047,1.047H54.397z"/>
	<path fill="#FFFFFF" d="M54.397,54.181v1.214c0.58,0.005,1.187-0.208,1.617-0.643c0.435-0.431,0.648-1.038,0.643-1.617
		c0.005-0.58-0.208-1.187-0.643-1.617c-0.431-0.435-1.038-0.648-1.617-0.643H24.876c-0.58-0.005-1.187,0.208-1.617,0.643
		c-0.435,0.431-0.648,1.038-0.643,1.617c-0.005,0.58,0.208,1.187,0.643,1.617c0.431,0.435,1.038,0.648,1.617,0.643h29.521V54.181
		v-1.214H24.876l-0.014-0.001l-0.041,0.236l0.176-0.142l-0.135-0.093l-0.041,0.236l0.176-0.142l-0.189,0.152l0.232-0.076
		l-0.043-0.076l-0.189,0.152l0.232-0.076l-0.079,0.026l0.083-0.013l-0.003-0.013l-0.079,0.026l0.083-0.013l-0.001-0.014l0.001-0.014
		l-0.236-0.041l0.142,0.176l0.093-0.135l-0.236-0.041l0.142,0.176l-0.152-0.189l0.076,0.232l0.076-0.043l-0.152-0.189l0.076,0.232
		l-0.026-0.079l0.013,0.083l0.013-0.003l-0.026-0.079l0.013,0.083l0.014-0.001h29.521l0.014,0.001l0.041-0.236l-0.176,0.142
		l0.135,0.093l0.041-0.236l-0.176,0.142l0.189-0.152l-0.232,0.076l0.043,0.076l0.189-0.152l-0.232,0.076l0.079-0.026l-0.083,0.013
		l0.003,0.013l0.079-0.026l-0.083,0.013l0.001,0.014l-0.001,0.014l0.236,0.041l-0.142-0.176l-0.093,0.135l0.236,0.041l-0.142-0.176
		l0.152,0.189l-0.076-0.232l-0.076,0.043l0.152,0.189l-0.076-0.232l0.026,0.079l-0.013-0.083l-0.013,0.003l0.026,0.079l-0.013-0.083
		l-0.014,0.001L54.397,54.181L54.397,54.181z"/>
</g>
</svg>
