<?xml version="1.0" encoding="utf-8"?>
<!-- Generator: Adobe Illustrator 17.0.0, SVG Export Plug-In . SVG Version: 6.00 Build 0)  -->
<!DOCTYPE svg PUBLIC "-//W3C//DTD SVG 1.1//EN" "http://www.w3.org/Graphics/SVG/1.1/DTD/svg11.dtd">
<svg version="1.1" id="Слой_1" xmlns="http://www.w3.org/2000/svg" xmlns:xlink="http://www.w3.org/1999/xlink" x="0px" y="0px"
	 width="90.725px" height="80px" viewBox="2.637 2.326 90.725 80" enable-background="new 2.637 2.326 90.725 80"
	 xml:space="preserve">
<g>
	<path fill="#FFFFFF" d="M86.376,82.326H9.624c-2.551,0-4.754-1.276-6.029-3.479s-1.276-4.754,0-6.956L41.971,5.805
		C43.246,3.602,45.449,2.326,48,2.326c2.551,0,4.754,1.276,6.029,3.479l38.376,66.087c1.276,2.203,1.276,4.754,0,6.956
		S88.812,82.326,86.376,82.326z M48,6.963c-0.348,0-1.391,0.116-1.971,1.16L7.652,74.21c-0.579,1.043-0.232,1.971,0,2.319
		c0.232,0.348,0.812,1.16,1.971,1.16h76.638c1.16,0,1.855-0.812,1.971-1.16c0.232-0.348,0.579-1.276,0-2.319L49.971,8.123
		C49.391,7.08,48.348,6.963,48,6.963z"/>
	<rect x="45.681" y="31.311" fill="#FFFFFF" width="4.637" height="26.666"/>
	<rect x="45.681" y="62.616" fill="#FFFFFF" width="4.637" height="5.797"/>
</g>
</svg>
