<?xml version="1.0" encoding="utf-8"?>
<!-- Generator: Adobe Illustrator 17.0.0, SVG Export Plug-In . SVG Version: 6.00 Build 0)  -->
<!DOCTYPE svg PUBLIC "-//W3C//DTD SVG 1.1//EN" "http://www.w3.org/Graphics/SVG/1.1/DTD/svg11.dtd">
<svg version="1.1" id="Слой_1" xmlns="http://www.w3.org/2000/svg" xmlns:xlink="http://www.w3.org/1999/xlink" x="0px" y="0px"
	 width="23.001px" height="20.282px" viewBox="0 0 23.001 20.282" enable-background="new 0 0 23.001 20.282" xml:space="preserve">
<g>
	<path fill="#1AA1DC" d="M21.229,20.282H1.771c-0.647,0-1.205-0.323-1.529-0.882c-0.323-0.558-0.323-1.205,0-1.764L9.971,0.882
		C10.294,0.324,10.853,0,11.5,0s1.205,0.323,1.529,0.882l9.729,16.754c0.323,0.558,0.323,1.205,0,1.764
		C22.434,19.959,21.846,20.282,21.229,20.282z M11.5,1.177c-0.088,0-0.353,0.029-0.5,0.294L1.271,18.225
		c-0.147,0.264-0.059,0.5,0,0.588s0.206,0.294,0.5,0.294H21.2c0.294,0,0.47-0.206,0.5-0.294c0.059-0.088,0.147-0.323,0-0.588
		L12,1.471C11.853,1.207,11.588,1.177,11.5,1.177z"/>
	<rect x="10.912" y="7.35" fill="#1AA1DC" width="1.176" height="6.76"/>
	<rect x="10.912" y="15.286" fill="#1AA1DC" width="1.176" height="1.47"/>
</g>
</svg>
