<?xml version="1.0" encoding="utf-8"?>
<!-- Generator: Adobe Illustrator 17.0.0, SVG Export Plug-In . SVG Version: 6.00 Build 0)  -->
<!DOCTYPE svg PUBLIC "-//W3C//DTD SVG 1.1//EN" "http://www.w3.org/Graphics/SVG/1.1/DTD/svg11.dtd">
<svg version="1.1" id="Слой_1" xmlns="http://www.w3.org/2000/svg" xmlns:xlink="http://www.w3.org/1999/xlink" x="0px" y="0px"
	 width="200px" height="200px" viewBox="0 0 200 200" enable-background="new 0 0 200 200" xml:space="preserve">
<title>iOS - Send a Message</title>
<desc>Created with Sketch.</desc>
<g>
	<path fill="#51A7F9" d="M173.333,20H26.667c-7.333,0-13.333,6-13.333,13.333v100c0,7.333,6,13.333,13.333,13.333h20v26.667
		c0,3.333,2,4.667,4.667,2L80,146.667h93.333c7.333,0,13.333-6,13.333-13.333v-100C186.667,26,180.667,20,173.333,20z M180,133.333
		c0,4-2.667,6.667-6.667,6.667H80c-2,0-3.333,0.667-4.667,2l-22,22v-17.333c0-4-2.667-6.667-6.667-6.667h-20
		c-4,0-6.667-2.667-6.667-6.667v-100c0-4,2.667-6.667,6.667-6.667h146.667c4,0,6.667,2.667,6.667,6.667V133.333z"/>
	<path fill="#51A7F9" d="M112.667,54c-1.333-1.333-3.333-1.333-4.667,0s-1.333,3.333,0,4.667l20.667,20.667H63.333
		c-2,0.667-3.333,2-3.333,4c0,2,1.333,3.333,3.333,3.333h65.333L108,107.333c-1.333,1.333-1.333,3.333,0,4.667
		c1.333,1.333,3.333,1.333,4.667,0l26.667-26.667c1.333-1.333,1.333-3.333,0-4.667L112.667,54z"/>
</g>
</svg>
