<?xml version="1.0" encoding="utf-8"?>
<!-- Generator: Adobe Illustrator 17.0.0, SVG Export Plug-In . SVG Version: 6.00 Build 0)  -->
<!DOCTYPE svg PUBLIC "-//W3C//DTD SVG 1.1//EN" "http://www.w3.org/Graphics/SVG/1.1/DTD/svg11.dtd">
<svg version="1.1"
	 id="Слой_1" xmlns:sodipodi="http://sodipodi.sourceforge.net/DTD/sodipodi-0.dtd" xmlns:inkscape="http://www.inkscape.org/namespaces/inkscape" xmlns:cc="http://creativecommons.org/ns#" xmlns:rdf="http://www.w3.org/1999/02/22-rdf-syntax-ns#" xmlns:svg="http://www.w3.org/2000/svg" xmlns:dc="http://purl.org/dc/elements/1.1/"
	 xmlns="http://www.w3.org/2000/svg" xmlns:xlink="http://www.w3.org/1999/xlink" x="0px" y="0px" width="80px" height="80px"
	 viewBox="1 1 80 80" enable-background="new 1 1 80 80" xml:space="preserve">
<g transform="translate(0,-1026.3622)">
	<g transform="matrix(1.0664186,0,0,1.0664186,58.689952,71.970494)">
		<g transform="translate(-56.000005,-133)">
			<path fill="#455773" d="M18.629,1028.888c-9.242,0-16.726,7.489-16.726,16.732v41.56c0,9.242,7.484,16.726,16.726,16.726h41.566
				c9.242,0,16.726-7.484,16.726-16.726v-41.56c0-9.242-7.484-16.732-16.726-16.732H18.629z M18.629,1031.774h41.566
				c7.694,0,13.84,6.152,13.84,13.846v41.56c0,7.694-6.147,13.84-13.84,13.84H18.629c-7.694,0-13.84-6.147-13.84-13.84v-41.56
				C4.788,1037.926,10.935,1031.774,18.629,1031.774z M37.913,1043.314c-2.341,0-4.271,1.925-4.271,4.266v2.609
				c-0.548,0.197-1.087,0.418-1.612,0.67l-1.837-1.843c-1.656-1.656-4.385-1.656-6.041,0l-2.119,2.119
				c-1.656,1.656-1.656,4.39,0,6.047l1.837,1.831c-0.248,0.526-0.465,1.063-0.66,1.612h-2.609c-2.341,0-4.271,1.925-4.271,4.266
				v2.998c0,2.341,1.93,4.271,4.271,4.271H23.2c0.196,0.546,0.42,1.082,0.67,1.606l-1.837,1.843c-1.656,1.656-1.656,4.385,0,6.041
				l2.119,2.125c1.656,1.656,4.385,1.656,6.041,0l1.831-1.843c0.528,0.249,1.067,0.465,1.618,0.66v2.609
				c0,2.341,1.93,4.277,4.271,4.277h2.998c2.341,0,4.271-1.937,4.271-4.277v-2.592c0.549-0.197,1.08-0.43,1.606-0.682l1.843,1.849
				c1.656,1.656,4.391,1.656,6.047,0l2.113-2.125c1.656-1.656,1.656-4.385,0-6.041l-1.831-1.837c0.248-0.527,0.465-1.063,0.66-1.612
				h2.604c2.341,0,4.271-1.931,4.271-4.271v-2.998c0-2.342-1.93-4.266-4.271-4.266h-2.604c-0.197-0.545-0.415-1.083-0.665-1.606
				l1.837-1.837c1.656-1.656,1.656-4.39,0-6.047l-2.113-2.119c-1.656-1.656-4.391-1.656-6.047,0l-1.837,1.837
				c-0.528-0.249-1.061-0.471-1.612-0.665v-2.609c0-2.342-1.93-4.266-4.271-4.266L37.913,1043.314L37.913,1043.314z M37.913,1046.2
				h2.998c0.794,0,1.386,0.586,1.386,1.381v3.567c0.001,0.646,0.432,1.213,1.054,1.386c1.077,0.301,2.115,0.732,3.094,1.273
				c0.563,0.311,1.264,0.213,1.719-0.242l2.507-2.507c0.561-0.562,1.4-0.562,1.961,0l2.119,2.119c0.561,0.562,0.561,1.4,0,1.961
				l-2.525,2.519c-0.454,0.458-0.548,1.163-0.231,1.724c0.548,0.975,0.981,2.008,1.291,3.083c0.179,0.62,0.747,1.045,1.392,1.043
				h3.544c0.794,0,1.386,0.593,1.386,1.386v2.998c0,0.793-0.592,1.386-1.386,1.386H54.66c-0.648-0.001-1.218,0.43-1.392,1.054
				c-0.302,1.077-0.726,2.115-1.268,3.094c-0.311,0.563-0.213,1.264,0.242,1.719l2.507,2.507c0.561,0.561,0.561,1.4,0,1.961
				l-2.119,2.119c-0.561,0.561-1.4,0.561-1.961,0l-2.519-2.519c-0.459-0.458-1.166-0.555-1.73-0.237
				c-0.975,0.548-2.008,0.981-3.083,1.291c-0.618,0.178-1.043,0.743-1.043,1.386v3.55c0,0.794-0.592,1.386-1.386,1.386H37.91
				c-0.794,0-1.386-0.592-1.386-1.386v-3.562c-0.001-0.646-0.432-1.212-1.054-1.386c-1.077-0.301-2.115-0.726-3.094-1.268
				c-0.562-0.313-1.262-0.217-1.719,0.237l-2.507,2.507c-0.561,0.561-1.4,0.561-1.961,0l-2.119-2.125
				c-0.561-0.561-0.561-1.394,0-1.955l2.513-2.513c0.458-0.456,0.557-1.16,0.242-1.724c-0.547-0.977-0.978-2.013-1.285-3.088
				c-0.177-0.621-0.745-1.05-1.392-1.048h-3.55c-0.794,0-1.386-0.593-1.386-1.386v-2.998c0-0.793,0.592-1.392,1.386-1.392h3.562
				c0.647,0.002,1.216-0.426,1.392-1.048c0.302-1.077,0.726-2.11,1.268-3.088c0.311-0.563,0.213-1.264-0.242-1.719l-2.507-2.507
				c-0.561-0.561-0.561-1.4,0-1.961l2.119-2.119c0.561-0.562,1.4-0.562,1.961,0l2.519,2.519c0.458,0.456,1.161,0.552,1.725,0.237
				c0.975-0.548,2.008-0.981,3.083-1.291c0.62-0.177,1.048-0.741,1.048-1.386v-3.556C36.526,1046.786,37.119,1046.2,37.913,1046.2z
				 M39.411,1057.74c-4.763,0-8.656,3.893-8.656,8.656c0,4.763,3.893,8.65,8.656,8.65c4.764,0,8.661-3.888,8.661-8.65
				C48.073,1061.634,44.175,1057.74,39.411,1057.74z M39.411,1060.626c3.204,0,5.771,2.567,5.771,5.771
				c0,3.203-2.567,5.765-5.771,5.765c-3.204,0-5.771-2.562-5.771-5.765C33.641,1063.193,36.207,1060.626,39.411,1060.626z"/>
		</g>
	</g>
</g>
</svg>
