<?xml version="1.0" encoding="utf-8"?>
<!-- Generator: Adobe Illustrator 17.0.0, SVG Export Plug-In . SVG Version: 6.00 Build 0)  -->
<!DOCTYPE svg PUBLIC "-//W3C//DTD SVG 1.1//EN" "http://www.w3.org/Graphics/SVG/1.1/DTD/svg11.dtd">
<svg version="1.1" id="Слой_1" xmlns="http://www.w3.org/2000/svg" xmlns:xlink="http://www.w3.org/1999/xlink" x="0px" y="0px"
	 width="71.934px" height="80px" viewBox="6.533 7.268 71.934 80" enable-background="new 6.533 7.268 71.934 80"
	 xml:space="preserve">
<g>
	<path fill="#FFFFFF" d="M57.736,26.385c-0.002,0.414-0.016,0.827-0.043,1.24c-0.014,0.211-0.033,0.421-0.053,0.632
		c-0.01,0.107-0.022,0.212-0.035,0.319c-0.01,0.089-0.077,0.584-0.014,0.132c-0.127,0.916-0.317,1.822-0.549,2.717
		c-0.24,0.927-0.537,1.841-0.872,2.738c-0.082,0.218-0.168,0.436-0.255,0.652c-0.044,0.108-0.089,0.217-0.134,0.324
		c0.149-0.357-0.006,0.01-0.032,0.069c-0.203,0.467-0.422,0.927-0.65,1.382c-0.438,0.875-0.924,1.725-1.45,2.55
		c-0.25,0.393-0.514,0.777-0.784,1.156c-0.135,0.188-0.272,0.373-0.412,0.558c-0.236,0.312,0.196-0.25-0.045,0.058
		c-0.095,0.12-0.191,0.239-0.288,0.356c-0.594,0.725-1.236,1.411-1.918,2.053c-0.319,0.3-0.651,0.586-0.989,0.864
		c-0.084,0.069-0.169,0.135-0.254,0.202c0.316-0.248,0.024-0.02-0.036,0.024c-0.2,0.149-0.404,0.291-0.609,0.431
		c-0.718,0.486-1.481,0.904-2.276,1.248c0.39-0.169,0.063-0.029-0.015,0.002c-0.095,0.037-0.19,0.072-0.285,0.107
		c-0.19,0.069-0.382,0.132-0.575,0.191c-0.416,0.129-0.842,0.228-1.271,0.306c-0.099,0.018-0.198,0.033-0.298,0.048
		c0.447-0.069,0.096-0.014,0.003-0.003c-0.201,0.023-0.402,0.037-0.603,0.048c-0.438,0.024-0.878,0.014-1.316-0.019
		c-0.119-0.009-0.784-0.096-0.298-0.025c-0.199-0.029-0.397-0.066-0.593-0.106c-0.428-0.086-0.849-0.205-1.263-0.341
		c-0.193-0.063-0.383-0.134-0.572-0.207c-0.078-0.03-0.407-0.168-0.016-0.002c-0.094-0.04-0.187-0.082-0.281-0.124
		c-0.409-0.185-0.805-0.396-1.193-0.621c-0.365-0.212-0.718-0.443-1.065-0.684c-0.176-0.123-0.348-0.25-0.518-0.379
		c0.321,0.243,0.025,0.017-0.034-0.029c-0.113-0.091-0.224-0.183-0.336-0.276c-0.71-0.594-1.368-1.247-1.99-1.934
		c-0.305-0.338-0.598-0.687-0.883-1.043c-0.041-0.05-0.28-0.358-0.047-0.056c-0.07-0.091-0.14-0.184-0.209-0.276
		c-0.162-0.217-0.319-0.436-0.475-0.658c-0.56-0.798-1.07-1.632-1.541-2.485c-0.228-0.412-0.442-0.831-0.649-1.253
		c-0.103-0.211-0.203-0.424-0.301-0.637c-0.049-0.107-0.096-0.214-0.145-0.321c-0.03-0.067-0.235-0.547-0.08-0.177
		c-0.74-1.755-1.3-3.588-1.651-5.46c-0.041-0.216-0.076-0.432-0.111-0.649c-0.017-0.107-0.032-0.215-0.048-0.322
		c0.062,0.429,0.008,0.058-0.002-0.025c-0.056-0.455-0.094-0.912-0.119-1.37c-0.052-0.949-0.019-1.902,0.085-2.848
		c0.008-0.07,0.063-0.471,0.007-0.069c0.016-0.117,0.036-0.234,0.054-0.35c0.037-0.232,0.082-0.463,0.129-0.694
		c0.102-0.494,0.23-0.983,0.376-1.467c0.133-0.442,0.289-0.876,0.459-1.305c0.025-0.063,0.178-0.424,0.023-0.062
		c0.045-0.105,0.092-0.21,0.139-0.314c0.11-0.243,0.228-0.482,0.349-0.719c0.43-0.843,0.94-1.643,1.505-2.401
		c0.231-0.31-0.199,0.251,0.04-0.052c0.07-0.089,0.142-0.176,0.213-0.263c0.144-0.174,0.292-0.344,0.443-0.513
		c0.326-0.365,0.671-0.713,1.027-1.048c0.329-0.31,0.674-0.603,1.026-0.885c0.301-0.241-0.256,0.193,0.052-0.04
		c0.091-0.069,0.182-0.135,0.273-0.201c0.214-0.155,0.433-0.303,0.654-0.449c0.794-0.52,1.637-0.966,2.507-1.344
		c-0.36,0.157-0.001,0.003,0.062-0.023c0.107-0.043,0.214-0.084,0.322-0.124c0.216-0.081,0.434-0.157,0.652-0.229
		c0.478-0.158,0.964-0.29,1.454-0.405c0.458-0.107,0.922-0.19,1.387-0.258c-0.403,0.059-0.002,0.002,0.069-0.007
		c0.118-0.014,0.237-0.025,0.355-0.036c0.279-0.027,0.559-0.044,0.839-0.057c0.485-0.022,0.97-0.019,1.455,0
		c0.24,0.009,0.48,0.026,0.719,0.046c0.119,0.01,0.238,0.022,0.356,0.034c0.078,0.008,0.607,0.078,0.187,0.019
		c0.965,0.135,1.915,0.363,2.841,0.663c0.402,0.13,0.796,0.28,1.186,0.44c-0.378-0.156,0.184,0.085,0.267,0.124
		c0.207,0.096,0.412,0.197,0.615,0.301c0.741,0.379,1.45,0.82,2.127,1.305c0.073,0.052,0.555,0.419,0.236,0.171
		c0.179,0.139,0.353,0.283,0.526,0.429c0.316,0.267,0.619,0.549,0.916,0.839c0.295,0.29,0.578,0.593,0.851,0.904
		c0.15,0.169,0.294,0.344,0.436,0.52c0.042,0.052,0.278,0.357,0.042,0.05c0.069,0.09,0.136,0.181,0.203,0.272
		c0.493,0.67,0.93,1.382,1.318,2.118c0.195,0.371,0.373,0.75,0.541,1.134c-0.163-0.376,0.074,0.191,0.107,0.276
		c0.083,0.215,0.16,0.432,0.234,0.651c0.275,0.81,0.479,1.643,0.626,2.484c0.016,0.092,0.107,0.719,0.052,0.3
		c0.031,0.236,0.055,0.473,0.076,0.711C57.717,25.419,57.734,25.902,57.736,26.385c0.003,0.825,0.686,1.514,1.514,1.514
		c0.823,0,1.516-0.689,1.514-1.514c-0.015-4.213-1.476-8.198-4.076-11.493c-2.461-3.118-6.057-5.348-9.908-6.278
		c-4.135-0.999-8.489-0.478-12.314,1.346c-3.562,1.698-6.539,4.682-8.305,8.201c-0.964,1.92-1.536,3.943-1.817,6.068
		c-0.256,1.943-0.117,3.896,0.198,5.822c0.631,3.865,2.212,7.645,4.356,10.911c2.083,3.174,4.894,6.139,8.413,7.701
		c1.731,0.768,3.576,1.21,5.479,1.163c1.902-0.047,3.729-0.589,5.428-1.424c3.475-1.709,6.208-4.795,8.233-8.03
		c2.066-3.3,3.539-7.102,4.075-10.966c0.139-1.003,0.235-2.006,0.239-3.019c0.003-0.825-0.691-1.514-1.514-1.514
		C58.422,24.871,57.739,25.56,57.736,26.385z"/>
	<path fill="#FFFFFF" d="M57.736,26.385l-0.846-0.003c-0.001,0.395-0.015,0.79-0.041,1.187c-0.013,0.197-0.031,0.399-0.051,0.605
		c-0.009,0.097-0.021,0.199-0.033,0.305v-0.002l-0.021,0.167l-0.013,0.096l-0.004,0.034l-0.002,0.014l-0.002,0.013l-0.002,0.016
		l-0.003,0.075h0.846l-0.785-0.314c-0.057,0.146-0.059,0.245-0.061,0.314h0.846l-0.785-0.314l0.785,0.314l-0.453-0.715
		c-0.174,0.108-0.286,0.277-0.333,0.4l0.785,0.314l-0.453-0.715l0.453,0.715l-0.013-0.846c-0.122,0-0.29,0.035-0.44,0.131
		l0.453,0.715l-0.013-0.846l0.013,0.846l0.376-0.758c-0.069-0.03-0.17-0.085-0.388-0.088l0.013,0.846l0.376-0.758l-0.376,0.758
		l0.542-0.651c-0.03-0.024-0.066-0.057-0.166-0.108l-0.376,0.758l0.542-0.651l-0.542,0.651l0.598-0.598l-0.057-0.052l-0.542,0.651
		l0.598-0.598l-0.598,0.598v0.846c0.217,0,0.382-0.081,0.476-0.147c0.189-0.139,0.218-0.222,0.256-0.275
		c0.058-0.103,0.061-0.133,0.073-0.162l0.021-0.077l0.009-0.05l0.01-0.069l0.019-0.138l-1.676-0.233
		c-0.122,0.877-0.305,1.752-0.53,2.622c-0.231,0.894-0.519,1.779-0.846,2.653c-0.078,0.209-0.162,0.42-0.247,0.633
		c-0.041,0.102-0.085,0.206-0.129,0.315l1.562,0.651l0.051-0.122l0.013-0.031l0.007-0.016l0.008-0.019l0.011-0.03l0.014-0.046
		l0.013-0.057c0.004-0.03,0.014-0.063,0.015-0.158c0-0.142-0.036-0.26-0.073-0.344c-0.069-0.148-0.135-0.214-0.182-0.261
		c-0.139-0.126-0.177-0.128-0.213-0.151c-0.119-0.06-0.245-0.09-0.378-0.09c-0.157,0.001-0.27,0.041-0.347,0.074
		c-0.152,0.073-0.202,0.129-0.245,0.167l-0.108,0.129l-0.044,0.073l-0.025,0.051l-0.025,0.057l-0.078,0.182l0.001-0.001
		c-0.196,0.45-0.408,0.897-0.63,1.342c-0.423,0.846-0.895,1.671-1.407,2.473c-0.24,0.377-0.495,0.75-0.759,1.119
		c-0.128,0.179-0.261,0.358-0.399,0.538l-0.06,0.08l-0.019,0.025l-0.014,0.019l-0.019,0.03l-0.03,0.049l-0.036,0.074l-0.033,0.092
		c-0.012,0.047-0.032,0.106-0.035,0.239h0.846l0.598-0.598l-0.129-0.106c-0.074-0.041-0.184-0.132-0.47-0.142
		c-0.223,0-0.441,0.091-0.598,0.248s-0.248,0.376-0.248,0.598s0.091,0.441,0.248,0.598s0.376,0.248,0.598,0.248
		c0.257-0.01,0.338-0.074,0.402-0.102c0.113-0.065,0.133-0.091,0.159-0.112l0.061-0.06l0.036-0.042l0.072-0.092l0.036-0.047
		l0.018-0.024l0.016-0.023l0.024-0.036l0.033-0.059l0.037-0.084c0.014-0.05,0.048-0.098,0.055-0.301
		c0-0.223-0.091-0.441-0.248-0.598c-0.157-0.157-0.376-0.248-0.598-0.248s-0.441,0.091-0.598,0.248
		c-0.157,0.157-0.248,0.376-0.248,0.598h0.846l-0.778-0.333c-0.066,0.159-0.067,0.264-0.069,0.333h0.846l-0.778-0.333l0.778,0.333
		l-0.407-0.741c-0.178,0.093-0.316,0.272-0.371,0.409l0.778,0.333l-0.407-0.741l0.407,0.741l-0.01-0.846
		c-0.097,0.001-0.244,0.02-0.398,0.104l0.407,0.741l-0.01-0.846l0.01,0.846l0.266-0.803c-0.038-0.009-0.102-0.041-0.276-0.043
		l0.01,0.846l0.266-0.803l-0.266,0.803l0.302-0.79l-0.036-0.013l-0.266,0.803l0.302-0.79c-0.006,0.003-0.089-0.05-0.302-0.056
		c-0.183,0.003-0.272,0.045-0.335,0.069c-0.119,0.054-0.151,0.085-0.182,0.107l-0.08,0.071l-0.05,0.054l-0.094,0.118
		c-0.088,0.112-0.181,0.226-0.277,0.344c-0.57,0.696-1.186,1.355-1.843,1.973c-0.301,0.283-0.618,0.558-0.945,0.824
		c-0.075,0.062-0.157,0.125-0.241,0.192l1.047,1.33l0.114-0.09l0.029-0.023l0.014-0.011l0.017-0.014l0.029-0.026l0.048-0.049
		l0.067-0.085l0.069-0.119c0.026-0.064,0.075-0.151,0.081-0.361c0-0.142-0.036-0.26-0.073-0.344
		c-0.069-0.148-0.135-0.214-0.182-0.261c-0.139-0.126-0.177-0.128-0.213-0.151c-0.119-0.06-0.245-0.09-0.378-0.09
		c-0.121,0.002-0.18,0.019-0.227,0.031c-0.087,0.025-0.117,0.042-0.144,0.054c-0.086,0.044-0.084,0.048-0.101,0.058l-0.039,0.027
		l-0.093,0.071l-0.085,0.065l0.002-0.001c-0.185,0.138-0.378,0.273-0.578,0.408c-0.674,0.456-1.39,0.849-2.138,1.173l0.674,1.553
		l0.148-0.064l0.037-0.016l0.019-0.008l0.025-0.012l0.043-0.023l0.074-0.047l0.108-0.093c0.029-0.03,0.066-0.069,0.115-0.146
		c0.045-0.078,0.123-0.204,0.128-0.447c0-0.142-0.036-0.26-0.073-0.344c-0.069-0.148-0.135-0.214-0.182-0.261
		c-0.139-0.126-0.177-0.128-0.213-0.151c-0.119-0.06-0.245-0.09-0.378-0.09c-0.147,0.004-0.167,0.019-0.2,0.024
		c-0.089,0.024-0.079,0.025-0.095,0.029l-0.038,0.015l-0.182,0.075c-0.08,0.032-0.169,0.064-0.265,0.099
		c-0.169,0.062-0.348,0.12-0.535,0.178c-0.378,0.117-0.771,0.208-1.174,0.282c-0.083,0.015-0.174,0.03-0.273,0.045l0.256,1.673
		c0.082-0.013,0.137-0.021,0.171-0.026l0.036-0.005l0.007-0.001l-0.058-0.394l0.056,0.394h0.002l-0.058-0.394l0.056,0.394
		l-0.11-0.773l0.104,0.774l0.007-0.001l-0.11-0.773l0.104,0.774l-0.111-0.828l0.099,0.829l0.012-0.002l-0.111-0.828l0.099,0.829
		l-0.1-0.838l0.083,0.839l0.017-0.002l-0.1-0.838l0.083,0.839l-0.083-0.842v0.846l0.083-0.004l-0.083-0.842v0.846
		c0.342,0,0.651-0.206,0.782-0.522c0.131-0.316,0.058-0.68-0.184-0.922l-0.598,0.598l0.704-0.47l-0.106-0.129l-0.598,0.598
		l0.704-0.47l-0.704,0.47h0.846c-0.01-0.285-0.101-0.396-0.142-0.47l-0.704,0.47h0.846c0-0.327-0.188-0.624-0.482-0.764
		s-0.643-0.099-0.897,0.107l0.533,0.658l-0.337-0.776c-0.037,0.019-0.082,0.03-0.196,0.119l0.533,0.658l-0.337-0.776l0.337,0.776
		l-0.231-0.814l-0.107,0.038l0.337,0.776l-0.231-0.814l0.23,0.813l-0.161-0.83l-0.07,0.017l0.23,0.813l-0.161-0.83l0.156,0.806
		l-0.131-0.81l-0.025,0.004l0.156,0.806l-0.131-0.81l0.045,0.275l-0.042-0.275h-0.002l0.045,0.275l-0.042-0.275L43.496,45.9
		c-0.174,0.02-0.36,0.033-0.553,0.044c-0.146,0.008-0.293,0.012-0.441,0.012c-0.252,0-0.508-0.011-0.767-0.03
		c0,0.001-0.125-0.014-0.224-0.025l-0.144-0.017l-0.056-0.006l-0.029-0.003l-0.082-0.004l-0.051,0.002
		c-0.027,0.003-0.058,0-0.165,0.026c-0.056,0.017-0.135,0.033-0.276,0.129c-0.069,0.049-0.156,0.124-0.231,0.247
		c-0.076,0.12-0.128,0.289-0.125,0.443c0,0.201,0.071,0.36,0.134,0.456c0.13,0.19,0.218,0.227,0.272,0.267
		c0.107,0.062,0.14,0.067,0.17,0.08l0.083,0.024l0.068,0.013c0.039,0.006,0.088,0.014,0.175,0.026l0.241-1.676
		c-0.175-0.025-0.356-0.059-0.546-0.097c-0.387-0.078-0.776-0.187-1.168-0.316c-0.172-0.057-0.349-0.122-0.531-0.192l-0.104-0.042
		l-0.06-0.025l-0.024-0.009l-0.017-0.007l-0.023-0.008l-0.036-0.012l-0.05-0.014c-0.033-0.005-0.052-0.019-0.196-0.023v0.846
		l0.47-0.704c-0.074-0.041-0.184-0.132-0.47-0.142v0.846l0.47-0.704l-0.47,0.704l0.598-0.598l-0.129-0.106l-0.47,0.704l0.598-0.598
		c-0.242-0.242-0.606-0.315-0.922-0.184c-0.316,0.131-0.522,0.439-0.522,0.782c0.005,0.244,0.084,0.371,0.129,0.45
		c0.1,0.15,0.149,0.174,0.184,0.207l0.105,0.073l0.069,0.036l0.038,0.017c0.029,0.013,0.081,0.035,0.178,0.076l0.661-1.558
		c-0.081-0.035-0.168-0.074-0.262-0.116c-0.375-0.17-0.747-0.368-1.118-0.582c-0.338-0.196-0.673-0.414-1.005-0.646
		c-0.162-0.113-0.325-0.234-0.492-0.36l-1.021,1.35l0.115,0.087l0.028,0.021l0.012,0.008l0.014,0.009l0.023,0.015l0.041,0.025
		l0.065,0.034l0.087,0.036c0.048,0.014,0.103,0.041,0.272,0.045c0.294,0,0.565-0.151,0.72-0.401c0.155-0.25,0.168-0.56,0.037-0.823
		l0,0l-0.757,0.378h0.846c-0.003-0.16-0.036-0.248-0.059-0.311c-0.051-0.121-0.084-0.158-0.107-0.192l-0.078-0.091l-0.059-0.054
		l-0.025-0.02l-0.089-0.069l-0.085-0.065c-0.102-0.081-0.208-0.169-0.318-0.261c-0.674-0.564-1.305-1.189-1.905-1.852
		c-0.291-0.322-0.573-0.658-0.85-1.004l-0.079-0.1l-0.046-0.058L33.15,40.29l-0.011-0.014l-0.015-0.018l-0.028-0.03l-0.05-0.05
		l-0.088-0.068l-0.122-0.068c-0.064-0.025-0.152-0.071-0.349-0.075v0.846l0.47-0.704c-0.145-0.099-0.33-0.145-0.47-0.142v0.846
		l0.47-0.704l-0.47,0.704l0.811-0.243c-0.033-0.112-0.118-0.309-0.341-0.461l-0.47,0.704l0.811-0.243l-0.811,0.243h0.846
		c-0.001-0.053-0.002-0.124-0.036-0.243l-0.811,0.243h0.846c0-0.223-0.091-0.441-0.248-0.598c-0.157-0.157-0.376-0.248-0.598-0.248
		s-0.441,0.091-0.598,0.248s-0.248,0.376-0.248,0.598c0.008,0.215,0.045,0.26,0.059,0.311c0.034,0.082,0.047,0.098,0.058,0.118
		l0.041,0.064l0.023,0.03l0.096,0.125l1.34-1.034c-0.066-0.085-0.133-0.174-0.202-0.267c-0.154-0.206-0.306-0.418-0.459-0.636
		c-0.54-0.769-1.034-1.577-1.493-2.408c-0.219-0.397-0.427-0.803-0.63-1.216c-0.099-0.202-0.195-0.409-0.292-0.619
		c-0.047-0.101-0.092-0.205-0.14-0.311l-0.073-0.168l-0.043-0.099l-0.016-0.036l-0.008-0.019l-0.011-0.023l-0.02-0.039l-0.042-0.068
		l-0.083-0.102l-0.138-0.118c-0.076-0.046-0.201-0.139-0.476-0.147v0.846l0.47-0.704c-0.145-0.099-0.33-0.145-0.47-0.142v0.846
		l0.47-0.704l-0.47,0.704l0.811-0.243c-0.033-0.112-0.118-0.309-0.341-0.461l-0.47,0.704l0.811-0.243l-0.811,0.243h0.846
		c-0.001-0.053-0.002-0.124-0.036-0.243l-0.811,0.243h0.846c0-0.223-0.091-0.441-0.248-0.598c-0.157-0.157-0.376-0.248-0.598-0.248
		s-0.441,0.091-0.598,0.248c-0.157,0.157-0.248,0.376-0.248,0.598c0.003,0.14,0.018,0.162,0.023,0.195
		c0.024,0.09,0.025,0.081,0.03,0.098l0.016,0.041l0.056,0.134l1.56-0.658c-0.717-1.702-1.259-3.477-1.599-5.287
		c-0.038-0.204-0.073-0.412-0.107-0.625c-0.016-0.099-0.03-0.202-0.047-0.311l-1.676,0.241l0.023,0.158l0.005,0.036l0.002,0.01
		l0.001,0.007l0.002,0.01l0.003,0.019l0.008,0.038l0.02,0.072l0.053,0.126c0.021,0.038,0.046,0.088,0.123,0.176
		c0.04,0.043,0.096,0.099,0.193,0.157c0.095,0.058,0.246,0.119,0.433,0.119c0.294,0,0.565-0.151,0.72-0.401
		c0.155-0.25,0.168-0.56,0.037-0.823l0,0l-0.757,0.378h0.846l-0.003-0.073l-0.004-0.039l-0.03-0.219v-0.001
		c-0.053-0.432-0.09-0.871-0.113-1.313c-0.015-0.284-0.023-0.57-0.023-0.855c0-0.618,0.036-1.237,0.104-1.854l0.015-0.123
		l0.009-0.074l0.003-0.027l0.002-0.013l0.002-0.013l0.002-0.016l0.003-0.074c0.001-0.141-0.039-0.289-0.102-0.403
		c-0.096-0.173-0.218-0.271-0.328-0.334c-0.118-0.061-0.212-0.103-0.416-0.109c-0.166,0-0.306,0.05-0.4,0.101
		c-0.189,0.107-0.244,0.198-0.289,0.254c-0.077,0.113-0.085,0.153-0.101,0.187l-0.03,0.096l-0.014,0.063l-0.006,0.037
		c-0.003,0.025-0.01,0.074-0.024,0.169l1.676,0.233c0.014-0.105,0.032-0.216,0.052-0.333c0.035-0.215,0.077-0.434,0.123-0.658
		c0.095-0.464,0.217-0.927,0.357-1.391c0.124-0.414,0.272-0.826,0.436-1.238l0.046-0.112l0.028-0.067l0.01-0.025l0.005-0.014
		l0.006-0.015l0.009-0.025l0.013-0.04l0.014-0.053c0.005-0.031,0.017-0.059,0.019-0.182c0.002-0.141-0.041-0.305-0.118-0.431
		c-0.138-0.225-0.305-0.307-0.399-0.349c-0.15-0.059-0.214-0.058-0.261-0.063l-0.069-0.003c-0.256,0.006-0.382,0.09-0.46,0.135
		c-0.147,0.102-0.169,0.148-0.201,0.182l-0.069,0.101l-0.035,0.065l-0.012,0.026c-0.009,0.022-0.027,0.063-0.07,0.163l1.557,0.664
		c0.041-0.095,0.085-0.194,0.132-0.298c0.102-0.226,0.214-0.453,0.332-0.683c0.405-0.795,0.889-1.555,1.43-2.279l0.06-0.081
		l0.022-0.03l0.019-0.029l0.027-0.045l0.036-0.069l0.035-0.09c0.013-0.047,0.037-0.105,0.041-0.259
		c-0.012-0.278-0.084-0.355-0.112-0.42c-0.052-0.087-0.077-0.111-0.096-0.135l-0.041-0.043c-0.157-0.157-0.376-0.248-0.598-0.248
		c-0.168,0.003-0.257,0.039-0.321,0.063c-0.121,0.052-0.157,0.085-0.19,0.108l-0.088,0.076l-0.054,0.059l-0.041,0.052L29.7,16.577
		l-0.027,0.036l-0.018,0.025l-0.022,0.034l-0.031,0.054l-0.037,0.08L29.533,16.9c-0.012,0.046-0.03,0.106-0.031,0.227
		c0.007,0.069-0.013,0.187,0.115,0.427c0.05,0.087,0.131,0.185,0.236,0.261c0.188,0.137,0.402,0.164,0.512,0.159
		c0.088-0.003,0.138-0.014,0.168-0.02l0.034-0.008l-0.219-0.817l0.169,0.829l0.05-0.012l-0.219-0.817l0.169,0.829l-0.169-0.829
		v0.846c0.078,0,0.134-0.01,0.169-0.017l-0.169-0.829v0.846c0.256-0.01,0.335-0.074,0.399-0.1c0.112-0.063,0.131-0.089,0.158-0.109
		l0.061-0.059l0.041-0.047l0.079-0.098c0.063-0.08,0.132-0.163,0.204-0.251c0.133-0.162,0.274-0.323,0.421-0.487
		c0.305-0.343,0.634-0.673,0.976-0.995c0.308-0.29,0.636-0.569,0.975-0.84l0.08-0.064l0.029-0.025l0.028-0.025l0.042-0.042
		l0.062-0.074l0.07-0.111c0.026-0.064,0.089-0.143,0.099-0.397c-0.012-0.279-0.088-0.369-0.127-0.445
		c-0.068-0.105-0.114-0.151-0.186-0.212l-0.151-0.097c-0.073-0.033-0.172-0.087-0.383-0.091c-0.19,0.006-0.243,0.038-0.294,0.052
		c-0.085,0.033-0.104,0.047-0.126,0.059l-0.074,0.047l-0.054,0.041l-0.076,0.059l-0.036,0.028l-0.022,0.018l-0.031,0.028
		l-0.048,0.049l-0.068,0.085l-0.069,0.119c-0.026,0.064-0.077,0.152-0.083,0.365l0.003,0.07c0.003,0.03,0.005,0.072,0.03,0.164
		c0.025,0.077,0.065,0.217,0.234,0.382c0.144,0.146,0.399,0.234,0.563,0.229c0.147,0.002,0.234-0.027,0.288-0.044
		c0.093-0.033,0.107-0.046,0.107-0.045l-0.378-0.757v0.846c0.186,0.005,0.369-0.082,0.378-0.089l-0.378-0.757v0.846
		c0.151-0.003,0.21-0.027,0.258-0.041c0.086-0.029,0.11-0.045,0.135-0.056l0.086-0.052l0.057-0.041l0.071-0.053
		c0.081-0.062,0.168-0.125,0.26-0.191c0.199-0.144,0.406-0.285,0.621-0.426c0.749-0.492,1.549-0.914,2.38-1.275l-0.675-1.552
		l-0.125,0.054l-0.031,0.014l-0.016,0.007l-0.02,0.009l-0.036,0.019l-0.063,0.039l-0.099,0.077l-0.118,0.132
		c-0.046,0.075-0.148,0.195-0.159,0.493h0.846l0.598-0.598l-0.129-0.106c-0.074-0.041-0.184-0.132-0.47-0.142
		c-0.223,0-0.441,0.091-0.598,0.248c-0.157,0.157-0.248,0.376-0.248,0.598s0.091,0.441,0.248,0.598
		c0.157,0.157,0.376,0.248,0.598,0.248c0.103-0.002,0.137-0.012,0.168-0.017c0.098-0.022,0.094-0.026,0.113-0.031l0.043-0.016
		l0.113-0.048l0.096-0.041l0.006-0.003l-0.003,0.001c0.096-0.039,0.197-0.077,0.305-0.118c0.2-0.075,0.407-0.147,0.62-0.217
		c0.448-0.149,0.91-0.274,1.38-0.384c0.429-0.101,0.869-0.179,1.317-0.245l-0.245-1.675l-0.14,0.02l-0.035,0.005l-0.016,0.003
		l-0.019,0.003l-0.036,0.008l-0.068,0.019l-0.12,0.049c-0.036,0.019-0.085,0.041-0.173,0.115c-0.043,0.038-0.1,0.091-0.162,0.189
		c-0.061,0.095-0.131,0.252-0.131,0.453h0.846l0.598-0.598l-0.598,0.598l0.65-0.542l-0.052-0.057l-0.598,0.598l0.65-0.542
		l-0.65,0.542l0.722-0.441l-0.072-0.101l-0.65,0.542l0.722-0.441l-0.722,0.441l0.807-0.254c-0.031-0.096-0.062-0.147-0.085-0.187
		l-0.722,0.441l0.807-0.254l-0.807,0.254l0.844,0.068c0.011-0.148-0.014-0.25-0.036-0.322l-0.807,0.254l0.844,0.068l-0.844-0.068
		l0.724,0.439c0.076-0.124,0.112-0.262,0.12-0.371l-0.844-0.068l0.724,0.439l-0.724-0.439l0.293,0.794
		c0.13-0.045,0.316-0.163,0.431-0.355l-0.724-0.439l0.293,0.794l-0.293-0.794v0.846c0.067-0.001,0.158-0.004,0.293-0.052
		l-0.293-0.794v0.846l0.07-0.003l0.052-0.006l0.221-0.03h0.002c0.107-0.013,0.219-0.024,0.338-0.035
		c0.259-0.025,0.525-0.041,0.796-0.053c0.217-0.01,0.438-0.014,0.658-0.014c0.24,0,0.482,0.005,0.724,0.015
		c0.223,0.008,0.45,0.025,0.684,0.044c0.107,0.008,0.22,0.02,0.338,0.032l0.172,0.021l0.107,0.014l0.041,0.005l0.02,0.003
		l0.018,0.002l0.075,0.003l0.131-0.01c0.048-0.008,0.113-0.02,0.198-0.057c0.124-0.047,0.313-0.184,0.41-0.368
		c0.1-0.183,0.106-0.337,0.107-0.411c-0.001-0.223-0.085-0.39-0.152-0.484c-0.141-0.188-0.223-0.215-0.276-0.251
		c-0.102-0.055-0.13-0.059-0.159-0.07c-0.087-0.026-0.083-0.021-0.1-0.025l-0.047-0.009c-0.029-0.004-0.074-0.011-0.156-0.022
		l-0.233,1.676c0.91,0.127,1.813,0.344,2.697,0.63c0.376,0.122,0.751,0.264,1.126,0.418l0.643-1.566l-0.107-0.043l-0.039-0.015
		L48.646,11.5l-0.044-0.014l-0.056-0.014c-0.031-0.005-0.063-0.016-0.173-0.018v0.845l0.267-0.802
		c-0.046-0.011-0.087-0.038-0.267-0.043v0.845l0.267-0.802c-0.257-0.086-0.542-0.042-0.762,0.116
		c-0.22,0.159-0.351,0.415-0.351,0.686c0.006,0.25,0.087,0.377,0.133,0.454c0.101,0.148,0.148,0.171,0.182,0.204l0.102,0.071
		l0.073,0.039l0.096,0.043c0.104,0.046,0.286,0.124,0.303,0.133c0.192,0.088,0.386,0.184,0.584,0.286
		c0.699,0.357,1.373,0.776,2.02,1.239l0.175,0.131l0.107,0.08l0.041,0.03l0.023,0.016l0.028,0.019l0.046,0.028l0.07,0.036
		l0.091,0.035c0.047,0.013,0.106,0.036,0.256,0.04c0.342,0,0.651-0.206,0.782-0.522c0.131-0.316,0.058-0.68-0.184-0.922
		l-0.598,0.598l0.702-0.469l-0.106-0.129l-0.598,0.598l0.704-0.47l-0.704,0.47h0.846c-0.01-0.286-0.101-0.396-0.142-0.47
		l-0.704,0.47h0.846c-0.003-0.171-0.041-0.26-0.064-0.323c-0.052-0.12-0.085-0.155-0.107-0.188l-0.074-0.085l-0.058-0.053
		l-0.053-0.042l-0.077-0.06l-1.039,1.336c0.165,0.128,0.33,0.265,0.498,0.407c0.296,0.25,0.585,0.518,0.869,0.797
		c0.277,0.272,0.545,0.559,0.808,0.859c0.138,0.157,0.275,0.322,0.414,0.493l0.074,0.094l0.044,0.057l0.017,0.021l0.01,0.013
		l0.014,0.017l0.025,0.028l0.047,0.047l0.082,0.066l0.118,0.07c0.064,0.026,0.151,0.08,0.371,0.085c0.394,0,0.733-0.269,0.823-0.652
		c0.091-0.382-0.093-0.775-0.445-0.951l-0.378,0.757l0.508-0.677l-0.129-0.08l-0.378,0.757l0.508-0.677l-0.508,0.677l0.661-0.529
		c-0.069-0.085-0.117-0.12-0.153-0.148l-0.508,0.677l0.661-0.529l-0.661,0.529l0.773-0.344c-0.038-0.085-0.079-0.142-0.113-0.185
		l-0.661,0.529l0.773-0.344l-0.773,0.344h0.846c0-0.142-0.036-0.26-0.073-0.344l-0.773,0.344h0.846
		c-0.002-0.133-0.023-0.193-0.035-0.239c-0.027-0.087-0.043-0.114-0.055-0.14c-0.042-0.08-0.045-0.077-0.054-0.093l-0.025-0.036
		c-0.018-0.024-0.043-0.057-0.109-0.143l-1.343,1.031c0.062,0.081,0.126,0.168,0.193,0.259c0.465,0.631,0.88,1.307,1.252,2.011
		c0.183,0.346,0.352,0.707,0.513,1.076l1.552-0.675l-0.047-0.106l-0.017-0.038l-0.018-0.036l-0.032-0.056l-0.064-0.091l-0.117-0.118
		c-0.036-0.029-0.081-0.064-0.161-0.104c-0.079-0.038-0.197-0.087-0.377-0.089c-0.141,0.003-0.245,0.025-0.378,0.09
		c-0.067,0.035-0.145,0.079-0.24,0.179c-0.09,0.096-0.224,0.284-0.228,0.577c0.001,0.093,0.01,0.127,0.014,0.157
		c0.02,0.097,0.025,0.096,0.03,0.116l0.025,0.065c0.02,0.051,0.052,0.13,0.085,0.208l0.066,0.162
		c0.077,0.199,0.15,0.405,0.222,0.618c0.259,0.762,0.453,1.553,0.594,2.358c0.002,0.008,0.02,0.129,0.035,0.228l0.021,0.14
		l0.008,0.053l0.006,0.032l0.009,0.042l0.022,0.075l0.057,0.129c0.022,0.039,0.048,0.09,0.128,0.177
		c0.041,0.043,0.097,0.097,0.195,0.154c0.095,0.055,0.243,0.113,0.422,0.113c0.257,0.005,0.495-0.135,0.598-0.248
		c0.105-0.107,0.145-0.191,0.173-0.25c0.048-0.111,0.053-0.16,0.062-0.199c0.018-0.117,0.011-0.118,0.014-0.136v-0.014l-0.003-0.08
		c-0.005-0.055-0.009-0.081-0.021-0.173l-1.678,0.221c0.029,0.218,0.052,0.443,0.072,0.675c0.041,0.451,0.057,0.91,0.058,1.374
		c0.012,1.297,1.054,2.349,2.36,2.357c1.298-0.009,2.349-1.048,2.36-2.355h-0.151l0.151,0.001V26.39h-0.151l0.151,0.001
		l-0.784-0.003l0.784,0.036l0.001-0.033l-0.784-0.003l0.784,0.036l0.001-0.02v-0.021c-0.015-4.408-1.547-8.582-4.258-12.014
		c-2.589-3.277-6.341-5.6-10.373-6.576c-1.459-0.353-2.943-0.525-4.422-0.525c-2.913,0-5.806,0.665-8.456,1.928
		c-3.744,1.786-6.845,4.899-8.698,8.585c-1.011,2.014-1.609,4.134-1.899,6.336c-0.097,0.739-0.14,1.476-0.14,2.209
		c0,1.305,0.135,2.595,0.343,3.861c0.655,4,2.281,7.882,4.483,11.239c2.143,3.261,5.045,6.35,8.777,8.01
		c1.734,0.769,3.602,1.239,5.543,1.239c0.1,0,0.2-0.001,0.3-0.003c2.05-0.052,3.997-0.634,5.78-1.511
		c3.681-1.815,6.498-5.024,8.577-8.341c2.124-3.395,3.641-7.3,4.196-11.299c0.142-1.026,0.243-2.067,0.246-3.134v-0.003v-0.01
		l-0.603,0.005h0.603v-0.005l-0.603,0.005h0.603c-0.01-1.306-1.061-2.346-2.36-2.356c-1.306,0.008-2.349,1.059-2.36,2.358
		L57.736,26.385l0.846,0.003c0-0.177,0.074-0.344,0.201-0.471c0.127-0.127,0.291-0.199,0.467-0.199c0.173,0,0.34,0.073,0.468,0.2
		c0.128,0.128,0.2,0.292,0.2,0.464v0.009l0.603-0.005h-0.603v0.005l0.603-0.005h-0.603v-0.003c-0.003,0.961-0.095,1.926-0.23,2.906
		c-0.516,3.729-1.946,7.427-3.954,10.633c-1.971,3.154-4.62,6.117-7.889,7.72c-1.614,0.794-3.321,1.294-5.076,1.337
		c-0.086,0.003-0.172,0.003-0.257,0.003c-1.666,0-3.299-0.403-4.857-1.093c-3.307-1.462-6.024-4.302-8.049-7.392
		c-2.084-3.175-3.619-6.854-4.228-10.583c-0.196-1.202-0.321-2.402-0.321-3.588c0-0.666,0.039-1.329,0.126-1.987
		c0.271-2.045,0.817-3.971,1.734-5.798c1.68-3.351,4.533-6.208,7.913-7.817c2.424-1.157,5.071-1.764,7.725-1.764
		c1.348,0,2.699,0.157,4.025,0.476c3.669,0.884,7.11,3.021,9.442,5.98c2.49,3.156,3.879,6.954,3.894,10.971l0.846-0.003
		l-0.845-0.038l-0.001,0.038v0.006c0,0.171-0.072,0.335-0.2,0.463c-0.128,0.127-0.296,0.2-0.468,0.2
		c-0.176,0-0.339-0.073-0.467-0.199c-0.126-0.127-0.201-0.294-0.201-0.471c-0.002-0.501-0.019-1.008-0.065-1.519
		c-0.022-0.243-0.047-0.493-0.08-0.746l-1.678,0.221l0.013,0.1l0.002,0.015l0.472-0.052l-0.473,0.043l0.001,0.009l0.472-0.052
		l-0.473,0.043l0.802-0.073H56.77l0.003,0.073l0.802-0.073H56.77h0.834l-0.834-0.029l-0.001,0.029h0.834l-0.834-0.029l0.845,0.029
		l-0.835-0.132l-0.01,0.102l0.845,0.029l-0.835-0.132l0.836,0.132l-0.776-0.337c-0.049,0.12-0.052,0.167-0.059,0.205l0.836,0.132
		l-0.776-0.337l0.776,0.337l-0.598-0.598c-0.112,0.115-0.15,0.201-0.178,0.261l0.776,0.337l-0.598-0.598l0.598,0.598v-0.846
		c-0.257-0.005-0.495,0.135-0.598,0.248l0.598,0.598v-0.846v0.846l0.422-0.734c-0.095-0.055-0.243-0.113-0.422-0.113v0.846
		l0.422-0.734l-0.422,0.734l0.702-0.473c-0.042-0.055-0.09-0.144-0.279-0.26l-0.422,0.734l0.702-0.473l-0.701,0.473l0.793-0.294
		c-0.014-0.033-0.021-0.069-0.091-0.179l-0.701,0.473l0.793-0.294l-0.787,0.292l0.814-0.203l-0.027-0.089l-0.787,0.292l0.814-0.203
		l-0.713,0.178l0.724-0.129l-0.011-0.05l-0.713,0.178l0.724-0.129c0,0-0.016-0.103-0.03-0.193c-0.014-0.097-0.027-0.182-0.037-0.24
		c-0.154-0.878-0.367-1.753-0.658-2.61c-0.076-0.223-0.157-0.452-0.245-0.684c-0.021-0.055-0.059-0.145-0.097-0.239l-0.049-0.119
		l-0.013-0.03l-0.279,0.109l0.282-0.102l-0.003-0.007l-0.279,0.109l0.282-0.102l-0.708,0.259l0.718-0.231l-0.009-0.028l-0.708,0.259
		l0.718-0.231l-0.788,0.254l0.801-0.208l-0.014-0.045l-0.788,0.254l0.801-0.208l-0.815,0.212l0.828-0.156l-0.013-0.057l-0.815,0.212
		l0.828-0.156l-0.831,0.157h0.845c-0.001-0.093-0.01-0.127-0.014-0.157l-0.831,0.157h0.845h-0.846l0.619,0.577
		c0.09-0.096,0.224-0.284,0.228-0.577h-0.846l0.619,0.577l-0.619-0.577l0.283,0.797c0.091-0.036,0.191-0.073,0.336-0.22
		l-0.619-0.577l0.283,0.797l-0.283-0.797v0.846c0.106-0.001,0.191-0.017,0.283-0.048l-0.283-0.797v0.846v-0.846l-0.377,0.757
		c0.079,0.038,0.197,0.087,0.377,0.089v-0.846l-0.377,0.757l0.377-0.757l-0.613,0.584c0.04,0.037,0.082,0.092,0.235,0.173
		l0.377-0.757l-0.613,0.584l0.611-0.582l-0.707,0.461l0.096,0.121l0.611-0.582l-0.707,0.461l0.685-0.447l-0.734,0.362l0.048,0.085
		l0.685-0.447l-0.734,0.362l0.52-0.257l-0.526,0.245l0.006,0.011l0.52-0.257l-0.526,0.245l0.002,0.004l0.041,0.094l1.552-0.675
		c-0.173-0.398-0.36-0.797-0.568-1.192c-0.405-0.768-0.863-1.516-1.385-2.225c-0.067-0.091-0.137-0.186-0.213-0.285l-1.343,1.031
		l0.079,0.102l0.014,0.019l0.212-0.159l-0.213,0.157l0.002,0.003l0.212-0.159l-0.213,0.157l0.621-0.456l-0.631,0.443l0.01,0.014
		l0.621-0.456l-0.631,0.443l0.684-0.48l-0.703,0.452l0.019,0.028l0.684-0.48l-0.703,0.452l0.71-0.456l-0.74,0.407l0.03,0.049
		l0.71-0.456l-0.74,0.407l0.741-0.408l-0.778,0.333l0.036,0.075l0.741-0.408l-0.778,0.333l0.779-0.333l-0.812,0.239l0.033,0.093
		l0.779-0.333l-0.812,0.239l0.812-0.239h-0.846c0.002,0.133,0.023,0.193,0.035,0.239l0.812-0.239h-0.846
		c0,0.142,0.036,0.26,0.073,0.344c0.069,0.148,0.135,0.214,0.182,0.261c0.139,0.126,0.177,0.128,0.213,0.151l0.378-0.757v-0.846
		v0.846l0.371-0.761c-0.064-0.026-0.151-0.08-0.371-0.085v0.846l0.371-0.761l-0.371,0.761l0.542-0.651
		c-0.029-0.021-0.053-0.05-0.171-0.11l-0.371,0.761l0.542-0.651l-0.541,0.65l0.61-0.585l-0.069-0.065l-0.541,0.65l0.61-0.585
		l-0.601,0.575l0.64-0.531l-0.039-0.044l-0.601,0.575l0.64-0.531l-0.46,0.382l0.467-0.373l-0.008-0.008l-0.46,0.382l0.467-0.373
		l-0.064-0.081l-0.082-0.103c-0.146-0.18-0.297-0.363-0.458-0.546c-0.283-0.322-0.58-0.641-0.894-0.949
		c-0.306-0.3-0.625-0.597-0.961-0.881c-0.177-0.15-0.36-0.301-0.552-0.45l-1.039,1.336l0.077,0.061l0.008,0.007l0.414-0.506
		l-0.426,0.492l0.015,0.013l0.414-0.506l-0.429,0.493l0.538-0.619l-0.572,0.588l0.034,0.031l0.538-0.619l-0.572,0.588l0.587-0.603
		l-0.642,0.545l0.055,0.059l0.587-0.603l-0.642,0.545l0.645-0.547l-0.716,0.449l0.071,0.097l0.645-0.547l-0.716,0.449l0.716-0.45
		l-0.782,0.323l0.065,0.127l0.716-0.45l-0.782,0.323l0.782-0.323h-0.846c0.003,0.171,0.041,0.26,0.064,0.323l0.782-0.323h-0.846
		c0.01,0.285,0.101,0.396,0.142,0.47l0.106,0.129l0.598-0.598v-0.846v0.846l0.256-0.806c-0.047-0.013-0.106-0.036-0.256-0.04v0.846
		l0.256-0.806l-0.256,0.806l0.39-0.75c-0.024-0.011-0.047-0.027-0.134-0.056l-0.256,0.806l0.39-0.75l-0.382,0.735l0.465-0.687
		l-0.082-0.049l-0.382,0.735l0.465-0.687l-0.316,0.468l0.332-0.457l-0.015-0.01l-0.316,0.468l0.332-0.457l-0.156-0.118l-0.183-0.136
		c-0.707-0.505-1.45-0.97-2.235-1.37c-0.208-0.107-0.423-0.213-0.647-0.316c-0.053-0.025-0.144-0.063-0.237-0.104l-0.118-0.052
		l-0.028-0.013l-0.183,0.396l0.194-0.391l-0.011-0.006l-0.183,0.396l0.194-0.391L48.4,12.25l0.39-0.686l-0.039-0.02L48.4,12.25
		l0.39-0.686l-0.413,0.731l0.486-0.683l-0.072-0.046l-0.414,0.729l0.486-0.683l-0.49,0.689l0.597-0.598l-0.107-0.091l-0.49,0.689
		l0.597-0.598l-0.597,0.599l0.713-0.454c-0.051-0.078-0.088-0.115-0.116-0.145l-0.597,0.599l0.713-0.454l-0.713,0.454h0.846
		c-0.006-0.25-0.087-0.377-0.132-0.454l-0.713,0.454h0.846h-0.846l-0.267,0.803c0.046,0.011,0.087,0.038,0.267,0.043v-0.845
		l-0.173,0.827c0.03,0.005,0.062,0.016,0.173,0.018v-0.845l-0.173,0.827l0.168-0.804L48.097,13.1
		c0.016,0.004,0.011,0.008,0.104,0.029l0.168-0.804L48.097,13.1l0.142-0.406l-0.157,0.401l0.014,0.005l0.142-0.406l-0.157,0.401
		l0.098,0.04l0.643-1.566c-0.405-0.166-0.819-0.323-1.247-0.462c-0.967-0.314-1.966-0.555-2.986-0.696l-0.233,1.676l0.119,0.017
		l0.019,0.003l0.079-0.509l-0.089,0.507l0.01,0.002l0.079-0.509l-0.089,0.507l0.139-0.793l-0.169,0.787l0.031,0.006l0.139-0.793
		l-0.169,0.787l0.177-0.823l-0.239,0.806l0.062,0.016l0.177-0.823l-0.239,0.806l0.24-0.811l-0.353,0.768l0.113,0.042l0.24-0.811
		l-0.353,0.768l0.353-0.769l-0.522,0.666c0.089,0.068,0.134,0.085,0.169,0.103l0.353-0.769l-0.522,0.666l0.522-0.666l-0.694,0.484
		c0.069,0.097,0.128,0.146,0.172,0.182l0.522-0.666l-0.694,0.484l0.694-0.484h-0.846c0.001,0.223,0.085,0.39,0.152,0.484
		l0.694-0.484h-0.846h0.846l-0.769-0.353c-0.072,0.16-0.076,0.284-0.077,0.353h0.846l-0.769-0.353l0.769,0.353l-0.519-0.669
		c-0.102,0.077-0.198,0.198-0.25,0.316l0.769,0.353l-0.519-0.669l0.519,0.669l-0.157-0.831c-0.077,0.016-0.207,0.046-0.362,0.163
		l0.519,0.669l-0.157-0.832l0.157,0.831v-0.846c-0.032,0.001-0.076,0-0.157,0.014l0.157,0.831v-0.845v0.828l0.072-0.824
		l-0.072-0.003v0.828l0.072-0.824l-0.048,0.548l0.062-0.546l-0.014-0.002l-0.048,0.548l0.062-0.546l-0.157-0.02l-0.189-0.023
		c-0.118-0.012-0.243-0.025-0.374-0.036c-0.245-0.02-0.498-0.038-0.756-0.048c-0.261-0.01-0.526-0.016-0.79-0.016
		c-0.244,0-0.489,0.005-0.736,0.016c-0.288,0.014-0.581,0.031-0.88,0.059c-0.118,0.012-0.244,0.024-0.373,0.039h0.002l-0.156,0.02
		l-0.072,0.01l-0.019,0.003l0.015,0.116l-0.014-0.116H40.22l0.015,0.116l-0.014-0.116l0.085,0.711l-0.074-0.712l-0.011,0.001
		l0.085,0.711l-0.074-0.712l0.085,0.814l-0.068-0.816l-0.018,0.002l0.085,0.814l-0.068-0.816l0.069,0.839v-0.843l-0.069,0.003
		l0.069,0.839v-0.842c-0.07,0.002-0.168,0.004-0.314,0.061c-0.124,0.047-0.293,0.159-0.4,0.333c-0.096,0.15-0.131,0.318-0.131,0.44
		c0.002,0.217,0.058,0.318,0.088,0.388c0.052,0.1,0.084,0.135,0.108,0.166l0.052,0.057c0.242,0.242,0.606,0.315,0.922,0.184
		c0.316-0.131,0.522-0.439,0.522-0.782h-0.846l0.715,0.453c0.061-0.095,0.131-0.252,0.131-0.453h-0.846l0.715,0.453l-0.715-0.453
		l0.448,0.718c0.053-0.04,0.139-0.077,0.267-0.266l-0.715-0.453l0.448,0.718l-0.448-0.718l0.279,0.799
		c0.03-0.013,0.063-0.018,0.168-0.08l-0.448-0.718l0.279,0.799l-0.278-0.798l0.197,0.822l0.081-0.024l-0.278-0.798l0.197,0.822
		l-0.194-0.806l0.143,0.817l0.051-0.01l-0.194-0.806l0.143,0.817l-0.096-0.547l0.086,0.548l0.009-0.002l-0.096-0.547l0.086,0.548
		c0.006-0.001,0.059-0.009,0.162-0.024l-0.245-1.675c-0.483,0.071-0.97,0.157-1.457,0.272c-0.514,0.121-1.025,0.259-1.533,0.427
		c-0.224,0.074-0.454,0.153-0.685,0.241c-0.107,0.041-0.221,0.084-0.338,0.131l0.003-0.002l-0.142,0.059l-0.064,0.028l-0.017,0.007
		l0.112,0.268l-0.108-0.269l-0.003,0.001l0.112,0.268l-0.108-0.269l0.285,0.711l-0.27-0.717l-0.015,0.006l0.285,0.711l-0.27-0.717
		l0.294,0.779l-0.265-0.79l-0.029,0.01l0.294,0.779l-0.265-0.79l0.268,0.801l-0.224-0.814l-0.045,0.014l0.268,0.801l-0.224-0.814
		l0.224,0.816L36.29,11.53l-0.057,0.014l0.224,0.816L36.29,11.53l0.168,0.829v-0.846c-0.103,0.002-0.137,0.012-0.168,0.017
		l0.168,0.829v-0.846c-0.223,0-0.441,0.091-0.598,0.248c-0.157,0.157-0.248,0.376-0.248,0.598s0.091,0.441,0.248,0.598
		c0.157,0.157,0.376,0.248,0.598,0.248v-0.846l-0.47,0.704c0.074,0.041,0.184,0.132,0.47,0.142v-0.846l-0.47,0.704l0.47-0.704
		l-0.598,0.598l0.129,0.106l0.47-0.704l-0.598,0.598c0.242,0.242,0.606,0.315,0.922,0.184c0.316-0.131,0.522-0.439,0.522-0.782
		h-0.846l0.687,0.493c0.046-0.075,0.148-0.195,0.159-0.493h-0.846l0.687,0.493l-0.687-0.493l0.509,0.676
		c0.032-0.03,0.073-0.044,0.179-0.183l-0.687-0.493l0.509,0.676l-0.509-0.675l0.418,0.735l0.091-0.059l-0.509-0.675l0.418,0.735
		l-0.412-0.724l0.356,0.753l0.056-0.029l-0.412-0.724l0.356,0.753l-0.258-0.546l0.247,0.551l0.011-0.005l-0.258-0.546l0.247,0.551
		c0.003-0.002,0.052-0.023,0.144-0.063l-0.675-1.552c-0.909,0.396-1.794,0.862-2.633,1.412c-0.228,0.149-0.458,0.305-0.687,0.471
		c-0.091,0.066-0.188,0.136-0.288,0.212l-0.065,0.049l-0.005,0.003l0.239,0.328l-0.231-0.334l-0.008,0.006l0.239,0.328l-0.231-0.334
		l0.445,0.646l-0.416-0.665l-0.03,0.019l0.445,0.646l-0.416-0.665l0.443,0.71l-0.388-0.741l-0.054,0.031l0.443,0.71l-0.388-0.741
		l0.392,0.748l-0.311-0.784l-0.08,0.037l0.392,0.748l-0.311-0.784l0.312,0.786l-0.218-0.817l-0.094,0.031l0.312,0.786l-0.218-0.817
		l0.219,0.817v-0.846c-0.115,0.002-0.173,0.018-0.219,0.029l0.219,0.817v-0.846l0,0v0.846l0.501-0.682
		c-0.152-0.117-0.363-0.168-0.501-0.164v0.846l0.501-0.682l-0.498,0.68l0.755-0.382c-0.042-0.084-0.119-0.201-0.254-0.3
		l-0.501,0.682l0.755-0.382l-0.755,0.382l0.839-0.114c-0.009-0.047-0.012-0.118-0.084-0.268l-0.755,0.382l0.839-0.114l-0.839,0.114
		l0.846-0.014l-0.008-0.1l-0.839,0.114l0.846-0.014l-0.846,0.014h0.846V14.34l-0.846,0.014h0.846h-0.846l0.79,0.305
		c0.023-0.063,0.055-0.15,0.057-0.305h-0.846l0.79,0.305l-0.789-0.305l0.685,0.497c0.023-0.035,0.056-0.072,0.104-0.192
		l-0.789-0.305l0.685,0.497l-0.683-0.496l0.606,0.587l0.077-0.091l-0.683-0.496l0.606,0.587l-0.581-0.563l0.525,0.616l0.057-0.053
		l-0.581-0.563l0.525,0.616l-0.338-0.398l0.331,0.405l0.008-0.007l-0.338-0.398l0.331,0.405l0.057-0.045l0.03-0.023l-0.037-0.049
		l0.036,0.05l0.001-0.001l-0.037-0.049l0.036,0.05l-0.425-0.584l0.406,0.597l0.02-0.014l-0.425-0.584l0.405,0.598l-0.462-0.685
		l0.421,0.712l0.041-0.026l-0.462-0.685l0.421,0.712l-0.429-0.725l0.36,0.762l0.068-0.036l-0.429-0.725l0.36,0.762l-0.362-0.764
		l0.272,0.801l0.091-0.036l-0.362-0.764l0.272,0.801l-0.272-0.801v0.846c0.165-0.004,0.223-0.031,0.272-0.045l-0.272-0.801v0.846
		v-0.846l-0.445,0.719c0.077,0.038,0.166,0.115,0.445,0.127v-0.846l-0.445,0.719l0.445-0.719l-0.657,0.533
		c0.061,0.072,0.107,0.118,0.212,0.186l0.445-0.719l-0.657,0.533l0.657-0.533L32.47,14.63l0.097,0.151l0.657-0.533L32.47,14.63
		l0.755-0.383h-0.846c0.005,0.212,0.058,0.31,0.091,0.383l0.755-0.383h-0.846h0.846l-0.747-0.397
		c-0.026,0.064-0.089,0.143-0.099,0.397h0.846l-0.747-0.397l0.746,0.396l-0.639-0.553c-0.02,0.026-0.045,0.046-0.107,0.157
		l0.746,0.396l-0.639-0.553l0.632,0.548l-0.575-0.608l-0.058,0.06l0.632,0.548l-0.575-0.608l0.468,0.493l-0.436-0.519l-0.031,0.028
		l0.468,0.493l-0.437-0.521l-0.069,0.056c-0.366,0.293-0.728,0.601-1.077,0.93c-0.37,0.349-0.733,0.713-1.078,1.101
		c-0.154,0.173-0.311,0.351-0.465,0.539c-0.072,0.087-0.147,0.179-0.224,0.277l-0.052,0.064l-0.004,0.005l0.33,0.271l-0.322-0.279
		l-0.008,0.008l0.33,0.271l-0.322-0.279l0.598,0.518l-0.571-0.547l-0.026,0.029l0.598,0.518l-0.571-0.547l0.606,0.58l-0.553-0.63
		l-0.052,0.05l0.606,0.58l-0.553-0.63l0.558,0.635l-0.468-0.703l-0.09,0.069l0.558,0.635l-0.468-0.703l0.469,0.704l-0.346-0.772
		l-0.123,0.068l0.469,0.704l-0.346-0.772l0.346,0.772V16.28c-0.194,0.004-0.283,0.049-0.346,0.074l0.346,0.772V16.28l0,0v0.846
		l0.386-0.753c-0.151-0.077-0.294-0.094-0.386-0.093v0.846l0.386-0.753l-0.386,0.753l0.671-0.515
		c-0.069-0.091-0.173-0.181-0.285-0.237l-0.386,0.753l0.671-0.515l-0.671,0.515l0.828-0.175c-0.018-0.08-0.052-0.202-0.157-0.34
		l-0.671,0.515l0.828-0.175l-0.828,0.175h0.846c0-0.04-0.002-0.092-0.019-0.175l-0.828,0.175h0.846H30.35l0.799,0.278
		c0.014-0.049,0.042-0.104,0.047-0.278H30.35l0.799,0.278l-0.797-0.278l0.74,0.407c0.011-0.023,0.026-0.043,0.058-0.129
		l-0.797-0.278l0.74,0.407l-0.713-0.392l0.667,0.465l0.045-0.073l-0.713-0.392l0.667,0.465l-0.443-0.308l0.437,0.317l0.006-0.008
		l-0.443-0.308l0.437,0.317l0.043-0.057l0.023-0.03l-0.053-0.042l0.052,0.043l0.001-0.001l-0.053-0.042l0.052,0.043l-0.564-0.462
		l0.547,0.482l0.017-0.019l-0.564-0.462l0.547,0.482l-0.621-0.548l0.585,0.587l0.037-0.039l-0.621-0.548l0.585,0.587l-0.595-0.597
		l0.526,0.658l0.068-0.061l-0.595-0.597l0.526,0.658l-0.528-0.661l0.421,0.734l0.107-0.073l-0.528-0.661l0.421,0.734l-0.421-0.734
		l0.292,0.794l0.129-0.061l-0.421-0.734l0.292,0.794l-0.292-0.795v0.846c0.144-0.002,0.23-0.03,0.292-0.052l-0.292-0.795v0.846
		V16.99l-0.598,0.598l0.598-0.598l-0.66,0.528l0.063,0.069l0.598-0.598l-0.66,0.528l0.661-0.529l-0.735,0.42l0.074,0.109
		l0.661-0.529l-0.735,0.42l0.735-0.42H29.61c0.012,0.278,0.084,0.355,0.112,0.42l0.735-0.42H29.61h0.846l-0.806-0.259
		c-0.013,0.047-0.037,0.105-0.041,0.259h0.846l-0.806-0.259l0.804,0.258l-0.749-0.39c-0.011,0.024-0.026,0.047-0.055,0.132
		l0.804,0.258l-0.749-0.39l0.729,0.379l-0.682-0.459l-0.047,0.08l0.729,0.379l-0.682-0.459h0.001l-0.001-0.001l0,0h0.001
		l-0.001-0.001l-0.045,0.061c-0.591,0.791-1.126,1.632-1.582,2.522c-0.124,0.245-0.249,0.495-0.366,0.756
		c-0.047,0.105-0.096,0.214-0.146,0.33l1.557,0.664l0.052-0.122l0.01-0.024v-0.001l-0.67-0.297l0.666,0.306l0.004-0.01l-0.67-0.297
		l0.666,0.306l-0.754-0.347l0.744,0.369l0.01-0.021l-0.754-0.347l0.744,0.369l-0.757-0.375l0.735,0.416l0.022-0.041l-0.757-0.375
		l0.735,0.416l-0.736-0.416l0.691,0.487l0.045-0.071l-0.736-0.416l0.691,0.487l-0.691-0.488l0.603,0.594l0.089-0.107l-0.691-0.488
		l0.603,0.594l-0.603-0.594l0.46,0.711c0.077-0.051,0.114-0.088,0.143-0.117l-0.603-0.594l0.46,0.711l-0.46-0.711v0.846
		c0.256-0.006,0.382-0.091,0.46-0.135l-0.46-0.711v0.846v-0.846l-0.166,0.829c0.122,0.022,0.16,0.014,0.166,0.016v-0.846
		l-0.166,0.829l0.166-0.83L27.98,21.05c0.157,0.104,0.252,0.118,0.316,0.134l0.166-0.83l-0.482,0.696l0.482-0.696l-0.729,0.431
		c0.075,0.127,0.169,0.212,0.246,0.265l0.482-0.696l-0.729,0.431l0.729-0.431h-0.846c-0.002,0.14,0.041,0.305,0.118,0.431
		l0.729-0.431h-0.846h0.846l-0.827-0.182c-0.005,0.031-0.017,0.059-0.019,0.182h0.846l-0.827-0.182l0.824,0.181l-0.795-0.283
		c-0.005,0.017-0.007,0.009-0.03,0.102l0.824,0.181l-0.795-0.283l0.717,0.256l-0.705-0.285l-0.011,0.03l0.717,0.256l-0.705-0.285
		l-0.04,0.096l-0.052,0.129c-0.176,0.445-0.34,0.902-0.482,1.372c-0.151,0.502-0.287,1.015-0.394,1.541
		c-0.048,0.236-0.096,0.479-0.135,0.729c-0.019,0.116-0.039,0.239-0.057,0.368l1.676,0.233l0.019-0.136l0.004-0.027v-0.002
		l-0.708-0.107l0.707,0.117l0.002-0.009l-0.708-0.107l0.707,0.117l-0.82-0.135l0.816,0.157l0.003-0.021l-0.82-0.135l0.816,0.157
		l-0.829-0.159l0.82,0.201l0.009-0.042l-0.829-0.159l0.82,0.201l-0.822-0.201l0.798,0.282l0.024-0.08l-0.822-0.201l0.798,0.282
		l-0.798-0.282l0.735,0.418c0.043-0.078,0.052-0.11,0.063-0.136l-0.798-0.282l0.735,0.418l-0.735-0.418l0.598,0.598
		c0.084-0.086,0.113-0.14,0.137-0.18l-0.735-0.418l0.598,0.598l-0.598-0.598l0.4,0.746c0.096-0.052,0.155-0.105,0.198-0.147
		l-0.598-0.598l0.4,0.746l-0.4-0.746v0.846c0.166,0,0.306-0.05,0.4-0.101l-0.4-0.746v0.846v-0.846l-0.301,0.79
		c0.081,0.029,0.162,0.053,0.301,0.055v-0.846l-0.301,0.79l0.301-0.79l-0.641,0.553c0.113,0.128,0.223,0.192,0.339,0.238l0.301-0.79
		l-0.641,0.553l0.641-0.553h-0.846c-0.003,0.216,0.095,0.43,0.206,0.553l0.641-0.553h-0.846h0.843l-0.839-0.073l-0.003,0.073h0.843
		l-0.839-0.073l0.009,0.001l-0.01-0.002l0.001,0.001l0.009,0.001l-0.01-0.002l-0.029,0.227c-0.074,0.675-0.114,1.357-0.114,2.039
		c0,0.316,0.008,0.631,0.025,0.947c0.025,0.474,0.065,0.95,0.124,1.428v-0.001l0.019,0.148l0.009,0.067l0.003,0.02l0.001,0.003
		l0.526-0.072l-0.526,0.069v0.003l0.526-0.072l-0.526,0.069l0.794-0.104l-0.795,0.097l0.001,0.007l0.794-0.104l-0.795,0.097
		l0.833-0.102l-0.834,0.09l0.002,0.012l0.833-0.102l-0.834,0.09l0.839-0.09l-0.84,0.073l0.002,0.018l0.839-0.09l-0.84,0.073
		l0.843-0.073h-0.846l0.003,0.073l0.843-0.073h-0.846c0,0.134,0.03,0.259,0.09,0.378l0,0l0.757-0.378V28.06v0.846l0.434-0.727
		c-0.095-0.058-0.246-0.119-0.434-0.119v0.846l0.434-0.727l-0.434,0.727l0.708-0.463c-0.041-0.054-0.085-0.142-0.275-0.264
		l-0.434,0.727l0.708-0.463l-0.708,0.463l0.796-0.287c-0.014-0.032-0.019-0.066-0.087-0.175l-0.708,0.463l0.796-0.287l-0.796,0.287
		l0.823-0.201l-0.026-0.086l-0.796,0.287l0.823-0.201l-0.821,0.201l0.833-0.145l-0.012-0.055l-0.821,0.201l0.833-0.145L27.457,28.9
		l0.792-0.119l-0.003-0.019L27.457,28.9l0.792-0.119c0,0-0.008-0.059-0.028-0.196l-1.676,0.241c0.015,0.107,0.031,0.218,0.05,0.334
		c0.035,0.221,0.072,0.445,0.115,0.672c0.363,1.934,0.941,3.824,1.703,5.633l1.56-0.658l-0.043-0.103l-0.008-0.018l-0.416,0.169
		l0.419-0.163l-0.003-0.007l-0.416,0.169l0.419-0.163l-0.736,0.286l0.745-0.265l-0.008-0.021l-0.736,0.286l0.745-0.265l-0.788,0.281
		l0.801-0.244l-0.012-0.036l-0.788,0.281l0.801-0.244l-0.807,0.246l0.821-0.195l-0.014-0.052l-0.807,0.246l0.821-0.195l-0.823,0.195
		h0.846c-0.003-0.14-0.018-0.162-0.023-0.195l-0.823,0.195h0.846c0-0.223-0.091-0.441-0.248-0.598
		c-0.157-0.157-0.376-0.248-0.598-0.248s-0.441,0.091-0.598,0.248c-0.157,0.157-0.248,0.376-0.248,0.598
		c0.004,0.07-0.005,0.174,0.09,0.378c0.049,0.099,0.14,0.228,0.288,0.326c0.145,0.099,0.33,0.145,0.47,0.142v-0.846l-0.476,0.699
		c0.076,0.046,0.201,0.139,0.476,0.147v-0.846l-0.476,0.699l0.476-0.699l-0.669,0.518c0.03,0.033,0.049,0.077,0.193,0.181
		l0.476-0.699l-0.669,0.518l0.669-0.518l-0.733,0.422l0.064,0.096l0.669-0.518l-0.733,0.422l0.717-0.413l-0.756,0.358l0.031,0.059
		l0.717-0.413l-0.748,0.354l0.462-0.218l-0.466,0.208l0.004,0.01l0.462-0.218l-0.466,0.208l0.063,0.145l0.07,0.162
		c0.047,0.107,0.096,0.217,0.148,0.33c0.1,0.217,0.202,0.436,0.31,0.657c0.212,0.432,0.432,0.863,0.669,1.29
		c0.483,0.876,1.009,1.734,1.589,2.562c0.158,0.225,0.321,0.453,0.49,0.68c0.069,0.092,0.14,0.188,0.216,0.285l1.34-1.034
		l-0.077-0.1l-0.014-0.018l-0.291,0.22l0.294-0.216l-0.003-0.004l-0.291,0.22l0.294-0.216l-0.631,0.464l0.643-0.447l-0.012-0.017
		l-0.631,0.464l0.643-0.447l-0.687,0.477l0.709-0.444l-0.021-0.034l-0.687,0.477l0.709-0.444l-0.716,0.449l0.748-0.392l-0.032-0.057
		l-0.716,0.449l0.748-0.392l-0.75,0.393l0.787-0.311l-0.037-0.082l-0.75,0.393l0.787-0.311l-0.787,0.311h0.846
		c-0.008-0.216-0.045-0.26-0.059-0.311l-0.787,0.311h0.846c0-0.223-0.091-0.441-0.248-0.598c-0.157-0.157-0.376-0.248-0.598-0.248
		s-0.441,0.091-0.598,0.248c-0.157,0.157-0.248,0.376-0.248,0.598c0.004,0.07-0.005,0.174,0.09,0.378
		c0.049,0.099,0.14,0.228,0.288,0.326c0.145,0.099,0.33,0.145,0.47,0.142v-0.846l-0.349,0.771c0.063,0.025,0.152,0.071,0.349,0.075
		v-0.846l-0.349,0.771l0.349-0.771l-0.527,0.662c0.03,0.022,0.059,0.052,0.178,0.109l0.349-0.771l-0.527,0.662l0.527-0.662
		l-0.603,0.593l0.076,0.069l0.527-0.662l-0.603,0.593l0.594-0.584l-0.637,0.537l0.043,0.047l0.594-0.584l-0.637,0.537l0.472-0.398
		l-0.481,0.388l0.008,0.01l0.472-0.398l-0.481,0.388l0.064,0.081l0.079,0.1c0.293,0.365,0.596,0.727,0.916,1.081
		c0.641,0.708,1.328,1.39,2.073,2.015c0.113,0.094,0.228,0.191,0.352,0.289l0.116,0.09l0.052,0.041l0.014,0.011l0.095-0.122
		l-0.096,0.121l0.001,0.001l0.095-0.122l-0.096,0.121l0.469-0.594l-0.478,0.586l0.01,0.008l0.469-0.594l-0.478,0.586l0.527-0.646
		l-0.548,0.628l0.02,0.017l0.527-0.646l-0.548,0.628l0.555-0.636l-0.592,0.603l0.036,0.034l0.555-0.636l-0.592,0.603l0.592-0.603
		l-0.651,0.541l0.058,0.063l0.592-0.603l-0.651,0.541l0.651-0.541l-0.723,0.44l0.072,0.102l0.651-0.541l-0.723,0.44l0.723-0.44
		l-0.787,0.311L35.3,44.83l0.723-0.44l-0.787,0.311l0.787-0.311h-0.846c0.003,0.16,0.036,0.248,0.059,0.311l0.787-0.311h-0.846
		c0,0.134,0.03,0.259,0.09,0.378l0,0l0.757-0.378v-0.846v0.846l0.272-0.801c-0.048-0.013-0.103-0.041-0.272-0.045v0.846l0.272-0.801
		l-0.272,0.801l0.401-0.745c-0.023-0.011-0.043-0.025-0.129-0.056l-0.272,0.801l0.401-0.745l-0.4,0.743l0.476-0.697l-0.076-0.047
		l-0.4,0.743l0.476-0.697l-0.421,0.615l0.443-0.599L36.5,43.691l-0.421,0.615l0.443-0.599c-0.001-0.001-0.047-0.035-0.135-0.102
		l-1.021,1.35c0.175,0.132,0.355,0.267,0.545,0.399c0.36,0.25,0.733,0.495,1.125,0.722c0.405,0.234,0.826,0.46,1.268,0.659
		c0.093,0.042,0.193,0.087,0.3,0.133l0.661-1.558l-0.145-0.062l-0.026-0.011l-0.124,0.283l0.129-0.282l-0.004-0.002l-0.124,0.283
		l0.129-0.282l-0.323,0.711l0.344-0.701l-0.021-0.01l-0.323,0.711l0.344-0.701L38.748,46l0.412-0.729l-0.042-0.023L38.748,46
		l0.412-0.729l-0.416,0.736l0.49-0.689l-0.074-0.047l-0.416,0.736l0.49-0.689l-0.49,0.69l0.6-0.597l-0.109-0.093l-0.49,0.69
		l0.6-0.597l-0.6,0.597l0.717-0.45c-0.05-0.079-0.088-0.117-0.117-0.147l-0.6,0.597l0.717-0.45l-0.717,0.45h0.846
		c-0.005-0.245-0.084-0.371-0.129-0.45l-0.717,0.45h0.846h-0.846l-0.598,0.598l0.129,0.106c0.074,0.041,0.184,0.132,0.47,0.142
		v-0.846l-0.196,0.823c0.033,0.005,0.052,0.019,0.196,0.023v-0.846l-0.196,0.823l0.195-0.816l-0.286,0.789
		c0.015,0.004,0.005,0.005,0.091,0.027l0.195-0.816l-0.286,0.789l0.003-0.01l-0.004,0.01h0.001l0.003-0.01l-0.004,0.01l0.188,0.076
		c0.195,0.075,0.399,0.151,0.613,0.222c0.438,0.144,0.89,0.272,1.36,0.366c0.205,0.041,0.418,0.082,0.641,0.113l0.241-1.676
		l-0.128-0.019l-0.013-0.002h-0.002l-0.101,0.59l0.123-0.586l-0.022-0.004l-0.101,0.59l0.123-0.586l-0.168,0.799l0.227-0.784
		l-0.059-0.014l-0.168,0.799l0.227-0.784l-0.234,0.809l0.344-0.768l-0.111-0.041l-0.234,0.809l0.344-0.768l-0.346,0.772l0.515-0.671
		c-0.089-0.066-0.134-0.084-0.168-0.101l-0.346,0.772l0.515-0.671l-0.515,0.672l0.689-0.491c-0.071-0.098-0.13-0.146-0.174-0.18
		l-0.515,0.672l0.689-0.491l-0.689,0.491h0.846c-0.001-0.228-0.089-0.397-0.157-0.491l-0.689,0.491h0.846h-0.846l0.721,0.443
		c0.076-0.12,0.128-0.289,0.125-0.443h-0.846l0.721,0.443l-0.721-0.443l0.338,0.776c0.082-0.04,0.234-0.103,0.383-0.333
		l-0.721-0.443l0.338,0.776l-0.338-0.776l0.096,0.84c0.041-0.008,0.09-0.003,0.24-0.064l-0.338-0.776l0.096,0.84l-0.096-0.834v0.839
		c0.006-0.002-0.005,0.003,0.096-0.006l-0.096-0.834v0.839v-0.757l-0.067,0.755l0.067,0.003v-0.757l-0.067,0.755h0.001
		c0.026,0.003,0.125,0.014,0.217,0.025c0.099,0.011,0.179,0.021,0.258,0.028c0.294,0.022,0.592,0.035,0.893,0.035
		c0.177,0,0.355-0.004,0.533-0.014c0.21-0.012,0.428-0.026,0.653-0.052l0.157-0.021l0.065-0.009l0.021-0.003l0.008-0.002
		l0.008-0.001l0.013-0.003l0.025-0.005l0.048-0.012l0.089-0.03c0.029-0.013,0.064-0.025,0.146-0.075
		c0.041-0.028,0.096-0.063,0.177-0.153l-0.636-0.558l0,0h-0.846c0.01,0.285,0.101,0.396,0.142,0.47l0.106,0.129l0.598-0.598v-0.846
		l-0.083,0.004l-0.032,0.003c-0.027,0.004-0.071,0.01-0.234,0.036l0.256,1.673c0.1-0.015,0.206-0.031,0.321-0.052
		c0.456-0.084,0.914-0.19,1.369-0.33c0.201-0.062,0.407-0.129,0.617-0.206c0.096-0.035,0.197-0.073,0.305-0.115l0.135-0.056
		l0.057-0.024l0.013-0.005l-0.179-0.438l0.172,0.441l0.007-0.003l-0.179-0.438l0.172,0.441l-0.287-0.736l0.267,0.744l0.02-0.008
		l-0.287-0.736l0.267,0.744l-0.283-0.787l0.248,0.799l0.036-0.012l-0.283-0.787l0.248,0.799l-0.25-0.806l0.2,0.82l0.051-0.014
		l-0.25-0.806l0.2,0.82l-0.2-0.822v0.846c0.147-0.004,0.167-0.019,0.2-0.024l-0.2-0.822v0.846v-0.846l-0.378,0.757l0.378-0.757
		l-0.508,0.677l0.129,0.08l0.378-0.757l-0.508,0.677l0.508-0.677l-0.661,0.529c0.069,0.085,0.117,0.12,0.153,0.148l0.508-0.677
		l-0.661,0.529l0.661-0.529l-0.773,0.344c0.038,0.085,0.079,0.142,0.113,0.185l0.661-0.529l-0.773,0.344l0.773-0.344H45.38
		c0,0.142,0.036,0.26,0.073,0.344l0.773-0.344H45.38h0.846l-0.718-0.447c-0.045,0.078-0.123,0.204-0.128,0.447h0.846l-0.718-0.447
		l0.718,0.447l-0.537-0.653c-0.035,0.033-0.083,0.058-0.181,0.206l0.718,0.447l-0.537-0.653l0.537,0.653l-0.434-0.726l-0.103,0.073
		l0.537,0.653l-0.434-0.726l0.427,0.716l-0.36-0.751l-0.067,0.036l0.427,0.716l-0.36-0.751l0.266,0.554l-0.253-0.56l-0.014,0.006
		l0.266,0.554l-0.253-0.56c-0.003,0.002-0.061,0.027-0.17,0.074l0.674,1.553c0.843-0.366,1.651-0.809,2.413-1.324
		c0.212-0.144,0.427-0.294,0.641-0.453l0.002-0.001l0.113-0.087l0.052-0.04l0.013-0.01l-0.237-0.312l0.233,0.316l0.004-0.003
		l-0.237-0.312l0.233,0.316l-0.465-0.631l0.45,0.642l0.015-0.011l-0.465-0.631l0.45,0.642l-0.48-0.685l0.449,0.706l0.031-0.02
		l-0.48-0.685l0.449,0.706l-0.454-0.713l0.399,0.744l0.053-0.031l-0.454-0.713l0.399,0.744l-0.4-0.746l0.321,0.783l0.08-0.037
		l-0.4-0.746l0.321,0.783L49.1,44.271l0.227,0.815l0.094-0.032L49.1,44.271l0.227,0.815L49.1,44.271v0.846
		c0.121-0.002,0.18-0.019,0.227-0.031L49.1,44.271v0.846v-0.846l-0.378,0.757l0.378-0.757l-0.508,0.677l0.129,0.08l0.378-0.757
		l-0.508,0.677l0.508-0.677L48.439,44.8c0.069,0.085,0.117,0.12,0.153,0.148l0.508-0.677L48.439,44.8l0.661-0.529l-0.773,0.344
		c0.038,0.085,0.079,0.142,0.113,0.185l0.661-0.529l-0.773,0.344l0.773-0.344h-0.846c0,0.142,0.036,0.26,0.073,0.344l0.773-0.344
		h-0.846H49.1l-0.764-0.361c-0.026,0.064-0.075,0.151-0.081,0.361h0.846l-0.765-0.361l0.765,0.361l-0.657-0.534
		c-0.021,0.03-0.051,0.056-0.109,0.173l0.765,0.361l-0.657-0.534l0.656,0.533l-0.59-0.605l-0.066,0.072l0.656,0.533l-0.59-0.605
		l0.581,0.596l-0.536-0.636l-0.045,0.041l0.581,0.596l-0.536-0.636l0.382,0.454l-0.373-0.462l-0.009,0.008l0.382,0.454l-0.373-0.462
		c-0.003,0.003-0.047,0.037-0.131,0.103l1.047,1.33c0.085-0.067,0.174-0.137,0.266-0.212c0.351-0.287,0.698-0.586,1.034-0.903
		c0.708-0.667,1.376-1.379,1.993-2.133c0.097-0.119,0.197-0.242,0.298-0.369l0.055-0.069l0.005-0.006l-0.52-0.429l0.508,0.443
		l0.013-0.014l-0.52-0.429l0.508,0.443l-0.62-0.542l0.591,0.574l0.03-0.031l-0.62-0.542l0.591,0.574l-0.604-0.587l0.549,0.639
		l0.055-0.052l-0.604-0.587l0.549,0.639l-0.549-0.641l0.459,0.711l0.092-0.069l-0.551-0.641l0.459,0.711l-0.459-0.711l0.335,0.777
		l0.124-0.066l-0.459-0.711l0.335,0.777l-0.335-0.777v0.846c0.183-0.003,0.272-0.045,0.335-0.069l-0.335-0.777v0.846v-0.846
		l-0.267,0.803c0.042,0.014,0.126,0.042,0.267,0.043v-0.846l-0.267,0.803l0.267-0.803l-0.299,0.792l0.031,0.011l0.267-0.803
		l-0.299,0.792l0.001,0.001l0.096,0.03c0.047,0.011,0.117,0.027,0.235,0.024c0.087-0.003,0.208-0.022,0.338-0.085
		c0.2-0.091,0.36-0.294,0.414-0.443c0.059-0.151,0.061-0.251,0.063-0.319c0-0.223-0.091-0.441-0.248-0.598
		c-0.157-0.157-0.376-0.248-0.598-0.248s-0.441,0.091-0.598,0.248c-0.157,0.157-0.248,0.376-0.248,0.598h0.846l-0.817-0.219
		c-0.011,0.046-0.028,0.104-0.029,0.219h0.846l-0.817-0.219l0.817,0.219l-0.737-0.414c-0.014,0.032-0.03,0.036-0.08,0.195
		l0.817,0.219l-0.737-0.414l0.725,0.407l-0.69-0.465l-0.036,0.058l0.725,0.407l-0.69-0.465l0.588,0.397l-0.575-0.417l-0.014,0.019
		l0.588,0.397l-0.575-0.417l0.154,0.112l-0.153-0.113l-0.001,0.002l0.154,0.112l-0.153-0.113l-0.047,0.063l-0.024,0.03l-0.002,0.003
		l0.535,0.43l-0.524-0.443l-0.011,0.013l0.535,0.43l-0.524-0.443l0.63,0.532l-0.604-0.56l-0.025,0.028l0.63,0.532l-0.604-0.56
		l0.618,0.573l-0.572-0.619l-0.048,0.048l0.618,0.573l-0.57-0.621l0.572,0.623l-0.488-0.691l-0.084,0.068l0.572,0.623l-0.488-0.691
		l0.488,0.691l-0.369-0.762l-0.119,0.07l0.488,0.691l-0.369-0.762l0.369,0.762v-0.846c-0.216,0.006-0.304,0.058-0.369,0.085
		l0.369,0.762v-0.846c-0.223,0-0.441,0.091-0.598,0.248c-0.157,0.157-0.248,0.376-0.248,0.598s0.091,0.441,0.248,0.598
		c0.157,0.157,0.376,0.248,0.598,0.248v-0.846l-0.47,0.704c0.074,0.041,0.184,0.132,0.47,0.142v-0.846l-0.47,0.704l0.47-0.704
		l-0.598,0.598l0.129,0.106l0.47-0.704l-0.598,0.598c0.242,0.242,0.606,0.315,0.922,0.184s0.522-0.439,0.522-0.782h-0.846
		l0.812,0.239c0.012-0.047,0.032-0.106,0.035-0.239h-0.846l0.812,0.239l-0.812-0.239l0.757,0.377
		c0.012-0.025,0.028-0.052,0.054-0.139l-0.812-0.239l0.757,0.377l-0.752-0.376l0.699,0.466c0.008-0.015,0.011-0.012,0.053-0.091
		l-0.752-0.376l0.699,0.466l-0.625-0.417l0.609,0.44l0.015-0.022l-0.625-0.417l0.609,0.44l0.001-0.001l0.058-0.078
		c0.142-0.188,0.285-0.379,0.426-0.576c0.278-0.388,0.549-0.785,0.809-1.192c0.541-0.847,1.043-1.723,1.494-2.627
		c0.233-0.465,0.458-0.939,0.669-1.423l0.057-0.134l0.028-0.065l0.008-0.017l-0.272-0.118l0.272,0.122l0.002-0.003l-0.272-0.118
		l0.272,0.122l-0.706-0.317l0.698,0.333l0.008-0.016l-0.706-0.317l0.698,0.333l-0.756-0.36l0.739,0.394l0.017-0.034l-0.756-0.36
		l0.739,0.394l-0.746-0.398l0.709,0.459l0.036-0.061l-0.746-0.398l0.709,0.459l-0.71-0.46l0.637,0.556l0.073-0.096l-0.71-0.46
		l0.637,0.556l-0.637-0.556l0.51,0.675l0.128-0.119l-0.637-0.556l0.51,0.675l-0.51-0.675l0.347,0.772
		c0.078-0.036,0.126-0.069,0.163-0.096l-0.51-0.675l0.347,0.772l-0.347-0.772v0.846c0.158-0.001,0.269-0.041,0.347-0.074
		l-0.347-0.772v0.846v-0.846l-0.378,0.757l0.378-0.757l-0.508,0.677l0.129,0.08l0.378-0.757l-0.508,0.677l0.508-0.677l-0.661,0.529
		c0.069,0.085,0.117,0.12,0.153,0.148l0.508-0.677l-0.661,0.529l0.661-0.529l-0.773,0.344c0.038,0.085,0.079,0.142,0.113,0.185
		l0.661-0.529l-0.773,0.344l0.773-0.344h-0.846c0,0.142,0.036,0.26,0.073,0.344l0.773-0.344h-0.846h0.846l-0.831-0.158
		c-0.004,0.03-0.014,0.063-0.015,0.158h0.846l-0.831-0.158l0.829,0.158l-0.8-0.271c-0.005,0.019-0.009,0.017-0.03,0.113l0.829,0.158
		l-0.8-0.271l0.738,0.25l-0.724-0.288l-0.014,0.038l0.738,0.25l-0.724-0.288l-0.003,0.007l-0.054,0.131l1.562,0.651
		c0.045-0.108,0.091-0.219,0.137-0.333c0.088-0.22,0.177-0.443,0.262-0.672c0.344-0.92,0.651-1.861,0.9-2.822
		c0.238-0.92,0.436-1.858,0.568-2.813l-1.676-0.233l-0.02,0.144l-0.002,0.03l0.082,0.012l-0.082-0.013v0.001l0.082,0.012
		l-0.082-0.013l0.745,0.117l-0.742-0.131l-0.003,0.015l0.745,0.117l-0.742-0.131l0.823,0.146l-0.817-0.179l-0.007,0.033l0.823,0.146
		l-0.817-0.179l0.825,0.18l-0.809-0.244l-0.017,0.063l0.825,0.18l-0.809-0.244l0.81,0.245l-0.766-0.359l-0.044,0.114l0.81,0.245
		l-0.766-0.359l0.767,0.359l-0.66-0.529c-0.069,0.089-0.088,0.135-0.106,0.17l0.767,0.359l-0.66-0.529l0.66,0.529l-0.476-0.699
		c-0.098,0.068-0.147,0.126-0.184,0.17l0.66,0.529l-0.476-0.699l0.476,0.699V28.05c-0.217,0-0.382,0.081-0.476,0.147l0.476,0.699
		V28.05c-0.342,0-0.651,0.206-0.782,0.522c-0.131,0.316-0.058,0.68,0.184,0.922l0.057,0.052l0.101,0.072
		c0.04,0.024,0.091,0.054,0.187,0.085c0.072,0.022,0.173,0.047,0.322,0.036c0.109-0.008,0.247-0.044,0.371-0.12
		c0.192-0.114,0.311-0.301,0.355-0.431c0.048-0.135,0.051-0.226,0.052-0.293h-0.842l0.839,0.074l0.003-0.074h-0.842l0.839,0.074
		l-0.696-0.062l0.694,0.085l0.003-0.023l-0.696-0.062l0.694,0.085c0.003-0.025,0.032-0.245,0.041-0.321v-0.002
		c0.012-0.106,0.025-0.216,0.036-0.331c0.021-0.215,0.041-0.434,0.055-0.659c0.028-0.43,0.043-0.86,0.045-1.292L57.736,26.385z"/>
	<path fill="#FFFFFF" d="M74.589,71.5c0,4.225,0,8.451,0,12.677c0,0.244,0,0.487,0,0.73c0.504-0.504,1.01-1.01,1.514-1.514
		c-1.751,0-3.503,0-5.254,0c-4.35,0-8.698,0-13.048,0c-5.591,0-11.181,0-16.772,0c-5.475,0-10.951,0-16.426,0
		c-4.004,0-8.007,0-12.011,0c-1.233,0-2.466,0-3.699,0c0.504,0.504,1.01,1.01,1.514,1.514c0-4.225,0-8.451,0-12.677
		c0-0.927,0.014-1.849,0.12-2.771c0.047-0.403-0.049,0.333,0.008-0.069c0.017-0.117,0.036-0.234,0.055-0.35
		c0.038-0.232,0.083-0.463,0.13-0.693c0.102-0.494,0.231-0.983,0.377-1.467c0.133-0.442,0.289-0.877,0.456-1.307
		c0.025-0.063,0.175-0.425,0.022-0.063c0.045-0.106,0.091-0.21,0.138-0.315c0.108-0.244,0.226-0.483,0.345-0.721
		c0.427-0.845,0.93-1.65,1.489-2.413c0.04-0.054,0.274-0.361,0.036-0.054c0.069-0.09,0.14-0.178,0.211-0.266
		c0.142-0.176,0.289-0.348,0.438-0.519c0.322-0.369,0.663-0.721,1.015-1.061c0.325-0.315,0.665-0.613,1.013-0.9
		c0.087-0.072,0.176-0.142,0.264-0.212c0.302-0.24-0.256,0.193,0.052-0.039c0.211-0.159,0.427-0.311,0.646-0.46
		c0.784-0.535,1.615-0.997,2.476-1.395c0.139-0.064,0.278-0.125,0.419-0.185c-0.376,0.162,0.099-0.036,0.17-0.063
		c0.286-0.112,0.576-0.213,0.868-0.31c0.589-0.195,1.191-0.351,1.797-0.482c0.307-0.065,0.616-0.119,0.927-0.168
		c0.078-0.012,0.156-0.024,0.234-0.034c-0.206,0.027-0.223,0.03-0.049,0.008c0.158-0.019,0.316-0.035,0.475-0.049
		c0.533-0.05,1.069-0.07,1.604-0.07c1.328,0,2.656,0,3.984,0c-0.436-0.25-0.872-0.5-1.307-0.75c2.367,3.231,4.734,6.462,7.101,9.693
		c1.773,2.42,3.547,4.841,5.319,7.262c0.706,0.963,1.91,0.97,2.614,0c2.357-3.244,4.714-6.487,7.07-9.73
		c1.749-2.408,3.499-4.816,5.248-7.223c-0.436,0.25-0.872,0.5-1.307,0.75c1.075,0,2.149,0,3.225,0c0.468,0,0.936-0.004,1.404,0.01
		c0.48,0.015,0.958,0.055,1.434,0.109c0.403,0.047-0.333-0.049,0.069,0.008c0.117,0.017,0.234,0.036,0.35,0.055
		c0.271,0.044,0.54,0.098,0.808,0.155c0.944,0.201,1.868,0.493,2.766,0.851c0.364,0.146-0.298-0.13,0.062,0.025
		c0.105,0.045,0.209,0.093,0.314,0.14c0.208,0.095,0.413,0.195,0.617,0.298c0.44,0.222,0.868,0.467,1.288,0.726
		c0.386,0.238,0.76,0.495,1.126,0.763c0.054,0.04,0.361,0.274,0.054,0.036c0.09,0.069,0.178,0.14,0.266,0.211
		c0.206,0.165,0.405,0.338,0.603,0.512c0.706,0.624,1.354,1.311,1.949,2.04c0.071,0.088,0.141,0.177,0.211,0.266
		c-0.239-0.305-0.003,0.001,0.036,0.054c0.135,0.182,0.265,0.368,0.393,0.555c0.256,0.375,0.493,0.762,0.719,1.157
		c0.227,0.396,0.433,0.803,0.628,1.215c0.049,0.103,0.096,0.208,0.142,0.312c0.028,0.062,0.178,0.423,0.027,0.06
		c0.103,0.248,0.197,0.499,0.289,0.751c0.316,0.876,0.551,1.78,0.72,2.695c0.043,0.233,0.079,0.465,0.113,0.7
		c-0.058-0.403-0.003-0.001,0.005,0.069c0.014,0.118,0.025,0.237,0.036,0.356C74.568,70.454,74.587,70.978,74.589,71.5
		c0.003,0.825,0.686,1.514,1.514,1.514c0.823,0,1.516-0.689,1.514-1.514c-0.014-4.202-1.432-8.227-3.995-11.544
		c-2.437-3.153-5.919-5.446-9.753-6.514c-2.871-0.801-5.831-0.669-8.778-0.669c-0.662,0-1.161,0.242-1.563,0.795
		c-0.102,0.14-0.203,0.279-0.305,0.419c-0.467,0.642-0.933,1.285-1.401,1.927c-3.042,4.186-6.084,8.374-9.126,12.56
		c-0.485,0.668-0.97,1.335-1.455,2.002c0.872,0,1.742,0,2.614,0c-2.367-3.231-4.734-6.462-7.101-9.693
		c-1.426-1.946-2.853-3.894-4.279-5.84c-0.327-0.446-0.653-0.892-0.98-1.338c-0.366-0.499-0.797-0.834-1.452-0.834
		c-0.528,0-1.056,0-1.584,0c-1.225,0-2.46-0.039-3.683,0.051c-2.157,0.157-4.203,0.691-6.189,1.532
		c-3.644,1.542-6.729,4.384-8.71,7.792c-1.708,2.939-2.5,6.279-2.5,9.662c0,2.262,0,4.523,0,6.785c0,2.105,0,4.21,0,6.315
		c0,0.825,0.689,1.514,1.514,1.514c1.751,0,3.503,0,5.254,0c4.35,0,8.698,0,13.048,0c5.591,0,11.181,0,16.772,0
		c5.475,0,10.951,0,16.426,0c4.004,0,8.007,0,12.011,0c1.233,0,2.466,0,3.699,0c0.825,0,1.514-0.689,1.514-1.514
		c0-4.225,0-8.451,0-12.677c0-0.244,0-0.487,0-0.73c0-0.825-0.689-1.514-1.514-1.514S74.589,70.675,74.589,71.5z"/>
	<path fill="#FFFFFF" d="M74.589,71.5h-0.846c0,4.225,0,8.451,0,12.677c0,0.244,0,0.487,0,0.73v2.043l1.445-1.445
		c0.504-0.504,1.01-1.01,1.514-1.514l1.445-1.445h-2.043c-1.752,0-3.503,0-5.254,0c-4.35,0-8.698,0-13.048,0
		c-5.591,0-11.182,0-16.772,0c-5.475,0-10.951,0-16.426,0c-4.004,0-8.007,0-12.011,0c-1.233,0-2.466,0-3.699,0H6.85l1.445,1.445
		c0.504,0.504,1.01,1.01,1.514,1.514l1.445,1.445v-2.043c0-4.225,0-8.451,0-12.677c0-0.919,0.014-1.808,0.114-2.675l0.011-0.101
		l0.003-0.036l0.004-0.085l-0.009-0.125c-0.008-0.039-0.01-0.085-0.054-0.197c-0.025-0.057-0.057-0.135-0.159-0.25
		c-0.052-0.057-0.125-0.123-0.233-0.179c-0.106-0.057-0.249-0.096-0.391-0.096c-0.222,0-0.389,0.085-0.485,0.152
		c-0.189,0.142-0.217,0.226-0.253,0.279c-0.056,0.103-0.059,0.133-0.07,0.162c-0.026,0.089-0.021,0.085-0.025,0.104l-0.011,0.072
		l-0.013,0.098L9.677,69.4l-0.003,0.025c-0.001,0.018-0.003,0.008-0.004,0.088c0.001,0.042-0.001,0.088,0.022,0.19
		c0.014,0.053,0.027,0.121,0.099,0.245c0.038,0.062,0.093,0.143,0.206,0.233c0.108,0.088,0.303,0.18,0.52,0.179
		c0.216,0,0.381-0.081,0.476-0.146c0.188-0.138,0.218-0.222,0.256-0.275c0.057-0.103,0.061-0.133,0.073-0.162
		c0.027-0.089,0.022-0.086,0.027-0.105l0.012-0.07l0.014-0.091c0.015-0.106,0.033-0.217,0.052-0.333
		c0.036-0.215,0.078-0.434,0.124-0.658c0.096-0.465,0.218-0.929,0.358-1.394c0.124-0.415,0.272-0.828,0.434-1.241l0.047-0.114
		l0.028-0.069l0.011-0.028l0.008-0.019l0.008-0.025l0.012-0.037l0.014-0.052c0.005-0.032,0.018-0.055,0.021-0.188
		c-0.005-0.293-0.13-0.464-0.206-0.554c-0.125-0.137-0.206-0.173-0.287-0.215c-0.087-0.034-0.151-0.07-0.353-0.077
		c-0.223,0.003-0.35,0.073-0.429,0.117c-0.152,0.096-0.182,0.147-0.217,0.183l-0.079,0.11l-0.04,0.074l-0.018,0.039
		c-0.012,0.027-0.03,0.071-0.065,0.153l1.559,0.658c0.04-0.095,0.085-0.195,0.131-0.299c0.101-0.226,0.212-0.454,0.328-0.685
		c0.403-0.799,0.882-1.565,1.417-2.295l0.074-0.098l0.044-0.058l0.018-0.024l0.012-0.017l0.016-0.024l0.025-0.041l0.035-0.065
		l0.036-0.088c0.014-0.048,0.041-0.103,0.046-0.274c0.002-0.141-0.041-0.305-0.118-0.431c-0.138-0.225-0.305-0.307-0.399-0.349
		c-0.15-0.059-0.214-0.058-0.261-0.063l-0.069-0.003c-0.166,0.003-0.254,0.038-0.317,0.062c-0.12,0.052-0.156,0.084-0.19,0.107
		l-0.088,0.075l-0.053,0.058l-0.026,0.032l-0.101,0.129l1.34,1.035c0.063-0.081,0.13-0.165,0.201-0.253
		c0.131-0.163,0.271-0.327,0.416-0.493c0.302-0.347,0.626-0.682,0.965-1.01c0.305-0.295,0.628-0.579,0.964-0.856
		c0.079-0.065,0.162-0.132,0.251-0.202l0.079-0.063l0.027-0.022l0.024-0.02l0.036-0.034l0.055-0.061l0.069-0.098l0.063-0.126
		c0.023-0.063,0.058-0.15,0.061-0.315c-0.012-0.278-0.084-0.355-0.112-0.42c-0.052-0.087-0.077-0.111-0.096-0.135l-0.041-0.043
		c-0.157-0.157-0.376-0.248-0.598-0.248c-0.118,0.002-0.178,0.019-0.224,0.03c-0.161,0.05-0.163,0.068-0.195,0.081l-0.059,0.037
		l-0.041,0.03l-0.089,0.069l-0.045,0.036l-0.026,0.022l-0.031,0.027l-0.047,0.047l-0.067,0.081l-0.071,0.118
		c-0.027,0.064-0.081,0.151-0.088,0.375c0.007,0.069-0.013,0.187,0.115,0.427c0.05,0.087,0.131,0.185,0.236,0.261
		c0.188,0.137,0.402,0.164,0.512,0.159c0.088-0.003,0.138-0.014,0.168-0.02l0.034-0.008l-0.219-0.817l0.169,0.829l0.05-0.012
		l-0.219-0.817l0.169,0.829l-0.169-0.829v0.846c0.078,0,0.134-0.01,0.169-0.017l-0.169-0.829v0.846
		c0.127-0.002,0.186-0.021,0.233-0.033c0.085-0.025,0.114-0.042,0.14-0.054c0.081-0.042,0.08-0.047,0.098-0.056l0.062-0.044
		l0.072-0.053c0.197-0.149,0.403-0.293,0.615-0.438c0.74-0.505,1.532-0.945,2.354-1.326c0.127-0.058,0.26-0.117,0.399-0.176
		l-0.67-1.555l-0.117,0.051l-0.037,0.017l-0.03,0.014l-0.047,0.025l-0.079,0.052l-0.113,0.1c-0.029,0.031-0.066,0.073-0.114,0.151
		c-0.044,0.079-0.113,0.205-0.117,0.429h0.846v-0.846l0,0c-0.223,0-0.441,0.091-0.598,0.248c-0.157,0.157-0.248,0.376-0.248,0.598
		s0.091,0.441,0.248,0.598c0.157,0.157,0.376,0.248,0.598,0.248l0,0c0.094-0.001,0.127-0.01,0.157-0.014
		c0.096-0.02,0.095-0.025,0.115-0.03l0.059-0.022l0.163-0.067l0.125-0.051l0.002-0.001c0.267-0.105,0.543-0.201,0.825-0.294
		c0.555-0.184,1.126-0.333,1.709-0.457c0.286-0.061,0.58-0.113,0.881-0.16l-0.003,0.001l0.223-0.032l-0.227-1.677l-0.129,0.017
		l-0.038,0.005l-0.02,0.003l-0.026,0.004l-0.047,0.01l-0.087,0.026c-0.029,0.012-0.063,0.022-0.146,0.069
		c-0.041,0.026-0.098,0.059-0.183,0.148c-0.041,0.046-0.092,0.107-0.139,0.201c-0.047,0.093-0.089,0.225-0.088,0.377
		c0,0.342,0.206,0.651,0.522,0.782c0.316,0.131,0.68,0.058,0.922-0.184l-0.598-0.598v0.846c0.186,0.008,0.452-0.091,0.598-0.248
		l-0.598-0.598v0.846l0.069-0.003l0.067-0.008l0.086-0.011h-0.002c0.144-0.018,0.294-0.032,0.45-0.047
		c0.503-0.047,1.012-0.067,1.526-0.067c1.328,0,2.656,0,3.984,0h3.177l-2.755-1.58c-0.436-0.25-0.872-0.5-1.307-0.75L25.78,52.33
		l2.358,3.22c2.367,3.231,4.734,6.462,7.101,9.693c1.773,2.42,3.547,4.841,5.319,7.262c0.483,0.669,1.223,1.074,1.993,1.07
		c0.767,0.004,1.508-0.402,1.989-1.073c2.357-3.244,4.714-6.487,7.07-9.731c1.749-2.408,3.499-4.816,5.248-7.223l2.325-3.2
		l-3.43,1.968c-0.436,0.25-0.872,0.5-1.307,0.75l-2.755,1.58h3.177c1.075,0,2.149,0,3.225,0c0.169,0,0.337-0.001,0.503-0.001
		c0.298,0,0.589,0.002,0.875,0.011c0.45,0.014,0.905,0.052,1.364,0.104l0.1,0.011l0.036,0.003l0.085,0.004
		c0.028-0.001,0.057,0.001,0.14-0.012c0.045-0.009,0.1-0.014,0.224-0.07c0.063-0.031,0.149-0.075,0.257-0.19
		c0.107-0.107,0.229-0.332,0.225-0.575c0-0.222-0.085-0.389-0.152-0.484c-0.142-0.189-0.226-0.217-0.279-0.253
		c-0.103-0.056-0.133-0.059-0.162-0.07c-0.089-0.026-0.085-0.021-0.104-0.025l-0.072-0.01l-0.098-0.013l-0.046-0.005l-0.025-0.003
		c-0.018-0.001-0.008-0.003-0.088-0.004c-0.048,0.001-0.094,0.002-0.178,0.019c-0.045,0.011-0.096,0.019-0.201,0.07
		c-0.053,0.029-0.125,0.064-0.225,0.163c-0.049,0.05-0.106,0.118-0.156,0.218c-0.049,0.098-0.088,0.233-0.087,0.375
		c0,0.217,0.081,0.382,0.146,0.476c0.138,0.188,0.222,0.218,0.275,0.256c0.103,0.057,0.133,0.061,0.162,0.073
		c0.089,0.027,0.086,0.022,0.105,0.027l0.07,0.012l0.091,0.014c0.106,0.015,0.217,0.033,0.333,0.052
		c0.251,0.041,0.508,0.092,0.768,0.148c0.892,0.19,1.77,0.467,2.628,0.81l0.096,0.038l0.036,0.014l0.032,0.011l0.043,0.013
		l0.054,0.013c0.03,0.004,0.06,0.014,0.168,0.017c0.141,0.001,0.289-0.039,0.403-0.102c0.173-0.096,0.271-0.218,0.334-0.328
		c0.061-0.118,0.103-0.212,0.109-0.416c-0.003-0.196-0.059-0.32-0.1-0.399c-0.088-0.155-0.144-0.192-0.18-0.23l-0.119-0.09
		l-0.086-0.047l-0.065-0.029l-0.09-0.037l-0.041-0.017l-0.025-0.01l-0.032-0.013L65.1,56.15l-0.055-0.014
		c-0.031-0.005-0.062-0.015-0.172-0.018c-0.142-0.001-0.278,0.039-0.378,0.09c-0.152,0.078-0.231,0.166-0.283,0.228l-0.096,0.15
		c-0.06,0.119-0.09,0.245-0.09,0.378c0.002,0.191,0.057,0.313,0.096,0.393c0.085,0.153,0.14,0.192,0.177,0.231l0.118,0.091
		l0.086,0.048l0.063,0.029l0.082,0.036c0.095,0.041,0.194,0.085,0.298,0.133c0.193,0.088,0.388,0.184,0.586,0.283
		c0.414,0.208,0.821,0.442,1.225,0.691c0.362,0.223,0.718,0.468,1.07,0.726l0.098,0.074l0.058,0.044l0.024,0.018l0.017,0.013
		l0.025,0.017l0.041,0.026l0.067,0.035l0.089,0.036c0.048,0.013,0.104,0.04,0.269,0.044c0.342,0,0.651-0.206,0.782-0.522
		s0.058-0.68-0.184-0.922l-0.598,0.598l0.66-0.528l-0.063-0.069l-0.598,0.598l0.66-0.528l-0.661,0.528l0.735-0.42l-0.074-0.109
		l-0.661,0.528l0.735-0.42l-0.735,0.42h0.846c-0.012-0.278-0.084-0.355-0.112-0.42l-0.735,0.42h0.846
		c-0.002-0.157-0.035-0.245-0.058-0.307c-0.049-0.12-0.082-0.157-0.105-0.192l-0.077-0.091l-0.06-0.056l-0.033-0.027l-0.128-0.102
		l-1.035,1.339c0.081,0.063,0.165,0.13,0.253,0.201c0.191,0.154,0.382,0.317,0.573,0.487c0.667,0.589,1.284,1.243,1.853,1.941
		c0.064,0.08,0.131,0.164,0.201,0.253l1.332-1.044l-0.085-0.107l-0.024-0.03l-0.016-0.019l-0.025-0.028l-0.045-0.045l-0.078-0.065
		l-0.115-0.071c-0.064-0.027-0.149-0.085-0.384-0.092v0.846l0.267-0.802c-0.212-0.062-0.264-0.037-0.267-0.043v0.846l0.267-0.802
		l-0.267,0.803l0.668-0.52c-0.131-0.169-0.297-0.25-0.4-0.283l-0.267,0.803l0.668-0.52l-0.668,0.52h0.846
		c0.003-0.136-0.045-0.352-0.179-0.52l-0.668,0.52h0.846c0-0.223-0.091-0.441-0.248-0.598c-0.157-0.157-0.376-0.248-0.598-0.248
		c-0.223,0-0.441,0.091-0.598,0.248c-0.157,0.157-0.248,0.376-0.248,0.598c0.003,0.151,0.027,0.21,0.041,0.258
		c0.03,0.087,0.045,0.111,0.057,0.135l0.052,0.085l0.028,0.039l0.133,0.175c0.124,0.168,0.248,0.344,0.372,0.527
		c0.24,0.352,0.466,0.721,0.684,1.1c0.212,0.371,0.41,0.758,0.597,1.156c0.044,0.094,0.089,0.193,0.135,0.297l-0.001-0.002
		l0.047,0.111l0.028,0.065l0.009,0.022l0.004,0.009l0.004,0.009l0.007,0.015l0.014,0.029l0.029,0.052l0.06,0.087l0.112,0.117
		c0.035,0.029,0.079,0.065,0.159,0.108c0.08,0.04,0.201,0.095,0.393,0.096c0.394,0,0.733-0.269,0.823-0.652
		c0.091-0.382-0.093-0.775-0.445-0.951l-0.378,0.757l0.508-0.677l-0.129-0.08l-0.378,0.757l0.508-0.677l-0.508,0.677l0.661-0.529
		c-0.069-0.085-0.117-0.12-0.153-0.148l-0.508,0.677l0.661-0.529l-0.661,0.529l0.773-0.344c-0.038-0.085-0.079-0.142-0.113-0.185
		l-0.661,0.529l0.773-0.344l-0.773,0.344h0.846c0-0.142-0.036-0.26-0.073-0.344l-0.773,0.344h0.846
		c-0.003-0.125-0.015-0.151-0.019-0.182c-0.022-0.091-0.024-0.082-0.028-0.099l-0.012-0.032c-0.009-0.024-0.024-0.058-0.07-0.17
		l-1.563,0.649c0.096,0.23,0.185,0.47,0.274,0.715c0.299,0.827,0.522,1.687,0.685,2.562c0.04,0.215,0.074,0.438,0.107,0.665
		l1.676-0.239l-0.02-0.141l-0.006-0.039l-0.004-0.025l-0.008-0.037l-0.019-0.069l-0.049-0.121c-0.019-0.037-0.041-0.085-0.115-0.174
		c-0.039-0.044-0.091-0.101-0.19-0.164c-0.096-0.061-0.253-0.131-0.454-0.132c-0.272-0.006-0.547,0.148-0.689,0.355
		c-0.142,0.205-0.156,0.383-0.157,0.492l0.003,0.072l0.008,0.074l0.025,0.196v-0.002c0.012,0.107,0.023,0.22,0.034,0.339
		c0.046,0.489,0.065,0.987,0.067,1.49c0.012,1.297,1.054,2.349,2.36,2.357c1.298-0.009,2.349-1.048,2.36-2.355v-0.008l-0.777,0.007
		l0.776,0.036l-0.003-0.045l-0.777,0.007l0.776,0.036l0.001-0.02v-0.021c-0.014-4.39-1.498-8.599-4.172-12.059
		c-2.556-3.305-6.189-5.694-10.195-6.812c-2.29-0.637-4.582-0.707-6.818-0.708c-0.735,0-1.465,0.008-2.187,0.008
		c-0.432-0.001-0.867,0.082-1.259,0.281c-0.393,0.196-0.726,0.5-0.988,0.863c-0.102,0.14-0.203,0.279-0.305,0.42
		c-0.466,0.642-0.933,1.285-1.4,1.927c-3.042,4.186-6.084,8.374-9.126,12.56c-0.485,0.668-0.97,1.335-1.455,2.002l-0.977,1.344
		h1.661c0.872,0,1.742,0,2.614,0h1.669l-0.987-1.346c-2.367-3.231-4.734-6.462-7.101-9.693c-1.426-1.946-2.853-3.894-4.279-5.84
		c-0.327-0.446-0.653-0.892-0.98-1.338c-0.223-0.304-0.493-0.598-0.855-0.823c-0.359-0.226-0.809-0.359-1.28-0.356
		c-0.528,0-1.056,0-1.584,0c-0.56,0-1.131-0.008-1.709-0.008c-0.669,0-1.347,0.011-2.034,0.061
		c-2.257,0.164-4.398,0.724-6.457,1.596c-3.83,1.622-7.041,4.586-9.112,8.146c-1.792,3.082-2.615,6.573-2.615,10.086
		c0,2.262,0,4.523,0,6.785c0,2.105,0,4.21,0,6.315c0.009,1.303,1.056,2.351,2.36,2.36c1.751,0,3.503,0,5.254,0
		c4.35,0,8.698,0,13.048,0c5.591,0,11.181,0,16.772,0c5.475,0,10.951,0,16.426,0c4.004,0,8.007,0,12.011,0c1.233,0,2.466,0,3.699,0
		c1.303-0.009,2.351-1.056,2.36-2.36c0-4.225,0-8.451,0-12.677c0-0.244,0-0.487,0-0.73c-0.009-1.303-1.056-2.351-2.36-2.36
		c-1.303,0.009-2.351,1.056-2.36,2.36L74.589,71.5l0.846,0.001c0-0.174,0.073-0.34,0.2-0.468c0.128-0.127,0.294-0.2,0.468-0.2
		s0.34,0.073,0.468,0.2c0.127,0.127,0.2,0.293,0.2,0.467c0,0.244,0,0.487,0,0.73c0,4.225,0,8.451,0,12.677
		c0,0.174-0.073,0.34-0.2,0.468c-0.128,0.127-0.294,0.2-0.468,0.2c-1.233,0-2.466,0-3.699,0c-4.004,0-8.007,0-12.011,0
		c-5.475,0-10.951,0-16.426,0c-5.591,0-11.181,0-16.772,0c-4.35,0-8.698,0-13.048,0c-1.752,0-3.503,0-5.254,0
		c-0.174,0-0.34-0.073-0.468-0.2c-0.126-0.127-0.199-0.293-0.199-0.467c0-2.105,0-4.21,0-6.315c0-2.262,0-4.523,0-6.785
		c0-3.252,0.761-6.442,2.386-9.235c1.892-3.257,4.851-5.977,8.308-7.438c1.912-0.809,3.864-1.317,5.92-1.467
		c0.624-0.046,1.262-0.057,1.912-0.057c0.562,0,1.133,0.008,1.709,0.008c0.528,0,1.056,0,1.584,0
		c0.184,0.003,0.277,0.036,0.388,0.102c0.109,0.067,0.238,0.189,0.381,0.385c0.327,0.446,0.653,0.892,0.98,1.338
		c1.426,1.946,2.852,3.894,4.279,5.84c2.367,3.231,4.734,6.462,7.101,9.693l0.683-0.5v-0.846c-0.872,0-1.742,0-2.614,0v0.846
		l0.685,0.498c0.485-0.667,0.97-1.335,1.455-2.002c3.042-4.186,6.084-8.374,9.126-12.56c0.466-0.642,0.933-1.285,1.401-1.927
		c0.102-0.14,0.203-0.279,0.305-0.419c0.14-0.19,0.257-0.283,0.38-0.346c0.124-0.061,0.27-0.099,0.498-0.1
		c0.735,0,1.464-0.008,2.187-0.008c2.2-0.001,4.331,0.078,6.364,0.646c3.661,1.02,6.992,3.215,9.311,6.216
		c2.453,3.174,3.805,7.017,3.818,11.029l0.846-0.003l-0.845-0.039l-0.001,0.043l0.171-0.001h-0.171v0.001l0.171-0.001h-0.171
		c0,0.171-0.072,0.335-0.2,0.463c-0.128,0.127-0.296,0.2-0.468,0.2c-0.176,0-0.339-0.073-0.467-0.199
		c-0.126-0.127-0.201-0.294-0.201-0.471c-0.002-0.542-0.022-1.091-0.074-1.643c-0.011-0.118-0.023-0.243-0.037-0.373V69.48
		l-0.019-0.148l-0.009-0.07l-0.003-0.018l-0.307,0.036l0.307-0.032l-0.001-0.004l-0.307,0.036l0.307-0.032l-0.727,0.075l0.729-0.062
		l-0.002-0.014l-0.727,0.075l0.729-0.062l-0.829,0.07h0.832l-0.003-0.07l-0.829,0.07h0.832h-0.846l0.689,0.492
		c0.142-0.205,0.156-0.383,0.157-0.492h-0.846l0.689,0.492l-0.689-0.492v0.846c0.272,0.006,0.547-0.148,0.689-0.355l-0.689-0.492
		v0.846v-0.846l-0.454,0.714c0.096,0.061,0.253,0.131,0.454,0.132v-0.846l-0.454,0.714l0.454-0.714l-0.72,0.444
		c0.04,0.054,0.077,0.14,0.267,0.27l0.454-0.714l-0.72,0.444l0.719-0.444l-0.8,0.275c0.013,0.03,0.018,0.063,0.08,0.169l0.719-0.444
		l-0.8,0.275l0.797-0.274l-0.821,0.192l0.024,0.082l0.797-0.274l-0.821,0.192l0.761-0.178l-0.771,0.129l0.01,0.048l0.761-0.178
		l-0.771,0.129l0.221-0.037l-0.222,0.035v0.003l0.221-0.037l-0.222,0.035c0.002,0.009,0.009,0.062,0.022,0.154l1.676-0.239
		c-0.034-0.239-0.072-0.485-0.118-0.734c-0.177-0.955-0.423-1.904-0.757-2.829c-0.094-0.26-0.193-0.523-0.303-0.789l-1.563,0.649
		l0.051,0.122l0.01,0.025l0.001,0.003l0.614-0.248l-0.616,0.242l0.003,0.006l0.614-0.248l-0.616,0.242l0.763-0.3l-0.768,0.287
		l0.005,0.013l0.763-0.3l-0.768,0.287l0.789-0.294l-0.797,0.271l0.008,0.024l0.789-0.294l-0.797,0.271l0.801-0.272l-0.812,0.234
		l0.012,0.038l0.801-0.272l-0.812,0.234l0.813-0.234l-0.827,0.182l0.014,0.052l0.813-0.234l-0.827,0.182l0.826-0.182h-0.846
		c0.003,0.125,0.015,0.151,0.019,0.182l0.826-0.182h-0.846c0,0.142,0.036,0.26,0.073,0.344c0.069,0.148,0.135,0.214,0.182,0.261
		c0.139,0.126,0.177,0.128,0.213,0.151l0.378-0.757V64.67v0.846l0.394-0.75c-0.079-0.04-0.201-0.095-0.394-0.096v0.846l0.394-0.75
		l-0.394,0.749l0.625-0.571c-0.038-0.037-0.077-0.092-0.231-0.179l-0.394,0.749l0.625-0.571l-0.625,0.571l0.716-0.451l-0.091-0.119
		l-0.625,0.571l0.716-0.451l-0.715,0.451l0.762-0.368l-0.047-0.084l-0.715,0.451l0.762-0.368l-0.74,0.357l0.754-0.328l-0.014-0.03
		l-0.74,0.357l0.754-0.328l-0.263,0.114l0.264-0.113l-0.001-0.003l-0.263,0.114l0.264-0.113l-0.096-0.227l-0.001-0.002
		c-0.047-0.105-0.096-0.214-0.149-0.327c-0.201-0.428-0.419-0.856-0.659-1.275c-0.234-0.409-0.483-0.815-0.755-1.214
		c-0.131-0.191-0.267-0.387-0.411-0.582l-0.088-0.116l-0.041-0.053l-0.008-0.011l-0.422,0.313l0.428-0.305l-0.006-0.008
		l-0.422,0.313l0.428-0.305l-0.652,0.463l0.668-0.439l-0.016-0.024l-0.652,0.463l0.668-0.439l-0.702,0.461l0.729-0.416L72.009,61.4
		l-0.702,0.461l0.729-0.416l-0.734,0.419l0.769-0.349l-0.036-0.07l-0.734,0.419l0.769-0.349L71.3,61.864l0.806-0.258l-0.035-0.091
		L71.3,61.863l0.806-0.258L71.3,61.863h0.846c-0.003-0.151-0.027-0.21-0.041-0.258L71.3,61.863h0.846
		c0-0.223-0.091-0.441-0.248-0.598c-0.157-0.157-0.376-0.248-0.598-0.248c-0.223,0-0.441,0.091-0.598,0.248
		c-0.157,0.157-0.248,0.376-0.248,0.598c-0.003,0.136,0.045,0.352,0.179,0.52c0.096,0.125,0.218,0.206,0.312,0.249
		c0.144,0.064,0.232,0.069,0.283,0.075L71.3,62.71v-0.846l-0.384,0.754c0.064,0.027,0.149,0.085,0.384,0.092v-0.846l-0.384,0.754
		l0.384-0.753l-0.549,0.643c0.028,0.021,0.05,0.048,0.165,0.11l0.384-0.753l-0.549,0.643l0.548-0.641l-0.613,0.579l0.065,0.062
		l0.548-0.641l-0.613,0.579l0.572-0.542l-0.607,0.503l0.035,0.039l0.572-0.542l-0.607,0.503l0.217-0.18l-0.219,0.177l0.003,0.003
		l0.217-0.18l-0.219,0.177l0.091,0.115l1.332-1.044c-0.07-0.09-0.143-0.183-0.221-0.278c-0.621-0.762-1.301-1.483-2.045-2.14
		c-0.203-0.179-0.413-0.36-0.633-0.537c-0.088-0.071-0.18-0.146-0.278-0.221l-1.035,1.339l0.101,0.079l0.017,0.014l0.28-0.352
		l-0.286,0.348l0.006,0.005l0.28-0.352l-0.286,0.348l0.504-0.613l-0.525,0.596l0.019,0.017l0.504-0.613l-0.525,0.596l0.554-0.63
		l-0.591,0.595l0.036,0.035l0.554-0.63l-0.591,0.595l0.596-0.6l-0.653,0.537l0.058,0.063l0.596-0.6l-0.653,0.537l0.654-0.537
		l-0.726,0.435l0.072,0.102l0.654-0.537l-0.726,0.435l0.726-0.435l-0.789,0.307l0.063,0.128l0.726-0.435l-0.789,0.307l0.789-0.307
		h-0.846c0.002,0.157,0.035,0.245,0.058,0.307l0.789-0.307h-0.846c0.012,0.278,0.084,0.355,0.112,0.42
		c0.052,0.087,0.077,0.111,0.096,0.135l0.041,0.043l0.598-0.598v-0.846v0.846l0.269-0.802c-0.048-0.013-0.104-0.04-0.269-0.044
		v0.846l0.269-0.802l-0.269,0.801l0.399-0.746c-0.023-0.011-0.045-0.026-0.13-0.056l-0.269,0.801l0.399-0.746l-0.395,0.738
		l0.472-0.691l-0.077-0.047l-0.395,0.738l0.472-0.691v-0.001l-0.165-0.124c-0.379-0.278-0.772-0.548-1.181-0.801
		c-0.436-0.269-0.884-0.526-1.352-0.762c-0.209-0.105-0.424-0.212-0.647-0.313c-0.104-0.047-0.213-0.097-0.33-0.147l-0.078-0.034
		l-0.006-0.003l-0.167,0.37l0.176-0.366l-0.009-0.004l-0.167,0.37l0.176-0.366l-0.344,0.713l0.378-0.696l-0.035-0.018l-0.344,0.713
		l0.378-0.696l-0.4,0.736l0.465-0.697l-0.059-0.026l-0.4,0.736l0.465-0.697l-0.47,0.702l0.571-0.623l-0.102-0.08l-0.47,0.702
		l0.571-0.623l-0.572,0.624l0.691-0.488l-0.119-0.135l-0.572,0.624l0.691-0.488l-0.691,0.488h0.846
		c-0.009-0.289-0.108-0.413-0.156-0.488l-0.691,0.488h0.846h-0.846l0.757,0.378l-0.757-0.378l0.598,0.598
		c0.098-0.101,0.132-0.17,0.158-0.22l-0.757-0.378l0.598,0.598l-0.598-0.598l0.378,0.757c0.102-0.051,0.17-0.109,0.22-0.158
		l-0.598-0.598l0.378,0.757l-0.378-0.757v0.846c0.142,0.001,0.278-0.039,0.378-0.09l-0.378-0.757v0.846v-0.845l-0.202,0.821
		c0.034,0.005,0.048,0.019,0.202,0.025v-0.845l-0.202,0.821l0.195-0.792l-0.283,0.766c0.014,0.004,0.003,0.003,0.087,0.027
		l0.195-0.792l-0.283,0.766l0.18-0.487l-0.19,0.484l0.009,0.003l0.18-0.487l-0.19,0.484l0.069,0.029l0.035,0.014l0.002,0.001
		l0.217-0.489l-0.232,0.482l0.014,0.007l0.217-0.489l-0.232,0.482l0.348-0.723l-0.388,0.702l0.04,0.02l0.348-0.723l-0.388,0.702
		l0.405-0.735l-0.478,0.691l0.072,0.045l0.405-0.735l-0.478,0.691l0.481-0.696l-0.589,0.606l0.108,0.089l0.481-0.696l-0.589,0.606
		l0.59-0.607l-0.708,0.462c0.052,0.078,0.09,0.115,0.118,0.145l0.59-0.607l-0.708,0.462l0.708-0.462h-0.846
		c0.006,0.256,0.091,0.384,0.137,0.462l0.708-0.462h-0.846h0.846l-0.79-0.301c-0.029,0.081-0.053,0.162-0.055,0.301h0.846
		l-0.79-0.301l0.79,0.301l-0.553-0.641c-0.128,0.113-0.192,0.223-0.238,0.339l0.79,0.301l-0.553-0.641l0.553,0.641v-0.846
		c-0.216-0.003-0.43,0.095-0.553,0.206l0.553,0.641v-0.846v0.845l0.167-0.828c-0.03-0.004-0.06-0.014-0.167-0.017v0.845l0.167-0.828
		l-0.162,0.808l0.264-0.781c-0.016-0.004-0.011-0.007-0.102-0.027l-0.162,0.808l0.264-0.781l-0.158,0.468l0.174-0.462l-0.014-0.003
		l-0.158,0.468l0.174-0.462l-0.084-0.033c-0.936-0.374-1.906-0.68-2.903-0.893c-0.276-0.059-0.559-0.115-0.848-0.162
		c-0.116-0.019-0.239-0.039-0.368-0.058l-0.086-0.013l-0.007-0.001l-0.066,0.41l0.077-0.408l-0.011-0.002l-0.066,0.41l0.077-0.408
		l-0.147,0.78l0.189-0.771l-0.041-0.009l-0.147,0.78l0.189-0.771l-0.199,0.816l0.281-0.791l-0.082-0.025l-0.199,0.816l0.281-0.791
		l-0.283,0.796l0.423-0.732c-0.08-0.045-0.113-0.054-0.14-0.064l-0.283,0.796l0.423-0.732l-0.423,0.733l0.605-0.592
		c-0.086-0.085-0.141-0.116-0.182-0.141l-0.423,0.733l0.605-0.592l-0.605,0.592l0.75-0.392c-0.051-0.096-0.102-0.156-0.145-0.2
		l-0.605,0.592l0.75-0.392l-0.75,0.392h0.846c0-0.16-0.047-0.298-0.096-0.392l-0.75,0.392h0.846h-0.846l0.758,0.375
		c0.049-0.098,0.088-0.233,0.087-0.375h-0.846l0.758,0.375l-0.759-0.375l0.487,0.691c0.069-0.052,0.174-0.129,0.271-0.316
		l-0.759-0.375l0.487,0.691l-0.487-0.691l0.248,0.809c0.051-0.018,0.114-0.033,0.239-0.118l-0.487-0.691l0.248,0.809l-0.247-0.807
		v0.845c0.063-0.003,0.107,0.003,0.247-0.037l-0.247-0.807v0.845v-0.803l-0.071,0.8l0.071,0.003v-0.803l-0.071,0.8l0.042-0.479
		l-0.051,0.478l0.008,0.001l0.042-0.479l-0.051,0.478l0.077,0.01l0.038,0.005h0.002l0.084-0.538l-0.1,0.536l0.016,0.003l0.084-0.538
		l-0.1,0.536l0.147-0.79l-0.195,0.78l0.047,0.01l0.147-0.79l-0.195,0.78l0.203-0.816l-0.294,0.787l0.091,0.028l0.203-0.816
		l-0.294,0.787l0.295-0.792l-0.446,0.718c0.084,0.051,0.121,0.062,0.151,0.074l0.295-0.792l-0.446,0.718l0.446-0.718l-0.63,0.564
		c0.084,0.091,0.141,0.126,0.184,0.154l0.446-0.718L60.42,56.5l0.63-0.564l-0.765,0.363c0.045,0.093,0.093,0.156,0.135,0.202
		l0.63-0.564l-0.765,0.363l0.764-0.363h-0.846c0,0.144,0.037,0.271,0.081,0.362l0.764-0.363h-0.846h0.846l-0.621-0.575
		c-0.107,0.107-0.229,0.332-0.225,0.575h0.846l-0.621-0.575l0.621,0.575l-0.25-0.808c-0.069,0.029-0.179,0.041-0.371,0.234
		l0.621,0.575l-0.25-0.808l0.249,0.807l-0.071-0.842c-0.036,0.004-0.075,0.004-0.179,0.035l0.249,0.807l-0.071-0.842l0.07,0.838
		v-0.841l-0.07,0.003l0.07,0.838v-0.841v0.733l0.065-0.73l-0.065-0.003v0.733l0.065-0.73l-0.093-0.01
		c-0.493-0.057-0.995-0.098-1.504-0.114c-0.315-0.01-0.625-0.011-0.927-0.011c-0.169,0-0.337,0.001-0.503,0.001
		c-1.075,0-2.149,0-3.225,0v0.846l0.421,0.734c0.436-0.25,0.872-0.5,1.307-0.75l-0.421-0.734l-0.685-0.498
		c-1.749,2.408-3.499,4.816-5.248,7.223c-2.357,3.244-4.714,6.487-7.07,9.73c-0.223,0.296-0.433,0.372-0.619,0.376
		c-0.187-0.003-0.404-0.082-0.627-0.378c-1.773-2.42-3.547-4.841-5.319-7.262c-2.367-3.231-4.734-6.462-7.101-9.693l-0.683,0.5
		l-0.421,0.734c0.436,0.25,0.872,0.5,1.307,0.75l0.421-0.734v-0.846c-1.328,0-2.656,0-3.984,0c-0.557,0-1.12,0.021-1.684,0.074
		c-0.16,0.015-0.326,0.031-0.498,0.052h-0.002l-0.084,0.01l-0.017,0.002l0.039,0.346l-0.035-0.346l-0.004,0.001l0.039,0.346
		l-0.035-0.346l0.074,0.742l-0.061-0.744l-0.014,0.001l0.074,0.742l-0.061-0.744l0.068,0.832v-0.834l-0.068,0.003l0.068,0.832
		v-0.834c-0.186-0.008-0.452,0.091-0.598,0.248l0.598,0.598h0.846h-0.846l0.758,0.376c0.047-0.093,0.089-0.225,0.088-0.376h-0.846
		l0.758,0.376l-0.758-0.377l0.511,0.674c0.058-0.047,0.149-0.112,0.246-0.298l-0.758-0.377l0.511,0.674l-0.511-0.674l0.314,0.785
		c0.036-0.018,0.08-0.027,0.197-0.112l-0.511-0.674l0.314,0.785l-0.314-0.785l0.21,0.819l0.104-0.034l-0.314-0.785l0.21,0.819
		l-0.206-0.805l0.14,0.819l0.067-0.014l-0.206-0.805l0.14,0.819l-0.1-0.585l0.086,0.586l0.014-0.003l-0.1-0.585l0.086,0.586
		c0.004-0.001,0.063-0.008,0.149-0.02l-0.227-1.677c-0.083,0.012-0.165,0.024-0.246,0.036l-0.003,0.001
		c-0.32,0.05-0.644,0.107-0.972,0.177c-0.631,0.135-1.263,0.299-1.887,0.505c-0.301,0.1-0.606,0.206-0.911,0.326l-0.012,0.004
		l0.014-0.005l-0.188,0.076l-0.091,0.037l-0.022,0.008l0.152,0.389l-0.143-0.393l-0.008,0.003l0.152,0.389l-0.143-0.393l0.265,0.729
		l-0.237-0.738l-0.028,0.009l0.265,0.729l-0.237-0.738l0.255,0.792l-0.21-0.805l-0.045,0.013l0.255,0.792l-0.21-0.805l0.212,0.815
		l-0.157-0.828l-0.056,0.013l0.212,0.815l-0.157-0.828l0.157,0.831v-0.845c-0.094,0.001-0.127,0.01-0.157,0.014l0.157,0.831v-0.845
		l0,0c-0.223,0-0.441,0.091-0.598,0.248s-0.248,0.376-0.248,0.598s0.091,0.441,0.248,0.598s0.376,0.248,0.598,0.248l0,0
		c0.223,0,0.441-0.091,0.598-0.248c0.157-0.157,0.248-0.376,0.248-0.598h-0.846l0.729,0.429c0.044-0.079,0.113-0.205,0.117-0.429
		h-0.846l0.729,0.429l-0.729-0.429l0.548,0.645c0.036-0.035,0.087-0.064,0.182-0.216l-0.729-0.429l0.548,0.645l-0.547-0.644
		l0.438,0.722l0.109-0.079l-0.547-0.644l0.438,0.722l-0.42-0.692l0.349,0.73l0.07-0.038l-0.42-0.692l0.349,0.73l-0.211-0.44
		l0.202,0.443l0.008-0.003l-0.211-0.44l0.202,0.443l0.117-0.051l-0.67-1.555c-0.141,0.061-0.289,0.125-0.439,0.195
		c-0.898,0.416-1.771,0.9-2.597,1.464c-0.224,0.153-0.452,0.312-0.678,0.482l-0.064,0.048l-0.001,0.001l0.416,0.597l-0.39-0.614
		l-0.025,0.017l0.416,0.597l-0.39-0.614l0.444,0.699l-0.393-0.728l-0.05,0.03l0.444,0.699l-0.394-0.728l0.401,0.741l-0.324-0.778
		l-0.076,0.036l0.401,0.741l-0.324-0.778l0.325,0.779l-0.233-0.812l-0.093,0.032l0.325,0.779l-0.233-0.812l0.233,0.813V58.23
		c-0.127,0.002-0.186,0.021-0.233,0.033l0.233,0.813V58.23l0,0v0.846l0.386-0.753c-0.151-0.077-0.294-0.094-0.386-0.093v0.846
		l0.386-0.753l-0.386,0.753l0.671-0.515c-0.069-0.091-0.173-0.181-0.285-0.237l-0.386,0.753l0.671-0.515l-0.671,0.515l0.828-0.175
		c-0.018-0.08-0.052-0.202-0.157-0.34l-0.671,0.515l0.828-0.175l-0.828,0.175h0.846c0-0.04-0.002-0.092-0.019-0.175l-0.828,0.175
		h0.846h-0.846l0.74,0.409c0.027-0.065,0.095-0.141,0.106-0.409h-0.846l0.74,0.409l-0.74-0.409l0.63,0.564
		c0.02-0.026,0.045-0.043,0.11-0.155l-0.74-0.409l0.63,0.564l-0.621-0.555l0.564,0.614l0.057-0.058l-0.621-0.555l0.564,0.614
		l-0.432-0.47l0.404,0.495l0.029-0.025l-0.432-0.47l0.404,0.495l0.058-0.046l0.029-0.022l0,0l-0.421-0.575l0.404,0.588l0.018-0.013
		l-0.421-0.575l0.404,0.588l-0.467-0.68l0.431,0.704l0.036-0.024l-0.467-0.68l0.431,0.704l-0.44-0.718l0.378,0.753l0.062-0.035
		l-0.44-0.718l0.378,0.753l-0.38-0.756l0.294,0.793l0.086-0.037l-0.38-0.756l0.294,0.793l-0.282-0.793v0.846
		c0.191-0.006,0.244-0.039,0.294-0.052l-0.294-0.794v0.846v-0.846l-0.598,0.598l0.598-0.598l-0.66,0.528l0.063,0.069l0.598-0.598
		l-0.66,0.528l0.661-0.529l-0.735,0.42l0.074,0.109l0.661-0.529l-0.735,0.42l0.735-0.42h-0.846c0.012,0.278,0.084,0.355,0.112,0.42
		l0.735-0.42h-0.846h0.846l-0.785-0.315c-0.023,0.063-0.058,0.15-0.061,0.315h0.846l-0.785-0.315l0.785,0.315l-0.681-0.502
		c-0.022,0.033-0.054,0.069-0.104,0.187l0.785,0.315l-0.681-0.502l0.68,0.501l-0.607-0.587l-0.073,0.086l0.68,0.501l-0.607-0.587
		l0.586,0.568l-0.533-0.619l-0.053,0.051l0.586,0.568l-0.533-0.619l0.241,0.28l-0.234-0.286l-0.007,0.006l0.241,0.28l-0.234-0.286
		l-0.072,0.058c-0.088,0.07-0.181,0.144-0.278,0.223c-0.36,0.298-0.718,0.611-1.062,0.944c-0.365,0.353-0.723,0.722-1.064,1.114
		c-0.152,0.174-0.306,0.355-0.459,0.544c-0.071,0.088-0.146,0.18-0.221,0.278l1.34,1.035l0.079-0.102l0.014-0.017l-0.337-0.267
		l0.333,0.272l0.004-0.005l-0.337-0.267l0.333,0.272l-0.613-0.503l0.597,0.521l0.016-0.019l-0.613-0.503l0.597,0.521l-0.631-0.552
		l0.598,0.587l0.033-0.036l-0.631-0.552l0.598,0.587l-0.603-0.592l0.542,0.648l0.061-0.056l-0.603-0.592l0.542,0.648l-0.543-0.648
		l0.444,0.72l0.099-0.071l-0.543-0.648l0.444,0.72l-0.444-0.72l0.317,0.784l0.127-0.064l-0.444-0.72l0.317,0.784l-0.317-0.784v0.846
		c0.166-0.003,0.254-0.038,0.317-0.062l-0.317-0.784v0.846v-0.846l-0.166,0.829c0.122,0.022,0.16,0.014,0.166,0.016v-0.846
		l-0.166,0.829l0.166-0.83l-0.482,0.696c0.157,0.104,0.252,0.118,0.316,0.134l0.166-0.83l-0.482,0.696l0.482-0.696l-0.729,0.431
		c0.075,0.127,0.169,0.212,0.246,0.265l0.482-0.696l-0.729,0.431l0.729-0.431h-0.846c-0.002,0.14,0.041,0.305,0.118,0.431
		l0.729-0.431h-0.846h0.846l-0.801-0.274c-0.014,0.048-0.041,0.103-0.046,0.274h0.846l-0.801-0.274l0.8,0.273l-0.744-0.402
		c-0.011,0.023-0.025,0.043-0.057,0.129l0.8,0.273l-0.744-0.402l0.735,0.398l-0.69-0.473l-0.046,0.075l0.735,0.398l-0.69-0.473
		l0.56,0.384l-0.549-0.4l-0.011,0.016l0.56,0.384l-0.549-0.4l-0.059,0.079l-0.078,0.104c-0.583,0.796-1.112,1.641-1.562,2.533
		c-0.124,0.245-0.246,0.497-0.363,0.757c-0.047,0.104-0.096,0.214-0.145,0.33l1.559,0.658l0.051-0.12l0.008-0.02l-0.401-0.176
		l0.399,0.183l0.005-0.003l-0.401-0.176l0.399,0.183l-0.724-0.332l0.713,0.355l0.011-0.024l-0.724-0.332l0.713,0.355l-0.751-0.374
		l0.726,0.421L12.4,65.73l-0.751-0.374l0.726,0.421l-0.732-0.423l0.68,0.503l0.052-0.079l-0.732-0.423l0.68,0.503l-0.68-0.503
		l0.581,0.615l0.1-0.113l-0.68-0.503l0.581,0.615l-0.581-0.615l0.429,0.729c0.08-0.047,0.12-0.085,0.151-0.114l-0.581-0.615
		l0.429,0.729l-0.429-0.729v0.846c0.223-0.003,0.35-0.073,0.429-0.117l-0.429-0.729v0.846v-0.846l-0.267,0.803
		c0.063,0.019,0.129,0.041,0.267,0.043v-0.846l-0.267,0.803l0.267-0.803l-0.527,0.662c0.101,0.078,0.169,0.109,0.26,0.141
		l0.267-0.803l-0.527,0.662l0.527-0.662l-0.704,0.471c0.067,0.098,0.126,0.151,0.176,0.191l0.527-0.662l-0.704,0.471l0.703-0.47
		h-0.846c0.001,0.216,0.079,0.375,0.142,0.47l0.703-0.47h-0.846h0.846l-0.825-0.188c-0.005,0.032-0.018,0.055-0.021,0.188h0.846
		l-0.825-0.188l0.817,0.186l-0.789-0.282c-0.004,0.016-0.006,0.007-0.028,0.096l0.817,0.186l-0.789-0.282l-0.001,0.001l-0.08,0.195
		c-0.174,0.446-0.338,0.902-0.479,1.372c-0.151,0.502-0.287,1.015-0.395,1.539c-0.049,0.236-0.096,0.478-0.137,0.728
		c-0.019,0.116-0.039,0.239-0.058,0.367l-0.013,0.087l0.003,0.003l0.411,0.066l-0.41-0.077l-0.002,0.011l0.411,0.066l-0.41-0.077
		l0.78,0.147l-0.772-0.189l-0.009,0.041l0.78,0.147l-0.772-0.189l0.816,0.2L9.716,69.23l-0.025,0.082l0.816,0.2L9.716,69.23
		l0.796,0.283l-0.732-0.423c-0.045,0.08-0.054,0.113-0.064,0.14l0.796,0.283l-0.732-0.423l0.732,0.424L9.922,68.91
		c-0.085,0.086-0.116,0.141-0.141,0.182l0.732,0.424l-0.591-0.605l0.592,0.605l-0.392-0.75c-0.096,0.051-0.156,0.102-0.2,0.145
		l0.592,0.605l-0.392-0.75l0.392,0.75v-0.846c-0.16,0-0.298,0.047-0.392,0.096l0.392,0.75v-0.846v0.846l0.52-0.668
		c-0.108-0.088-0.303-0.18-0.52-0.179v0.846l0.52-0.668l-0.52,0.668l0.784-0.317c-0.036-0.074-0.071-0.19-0.265-0.35l-0.52,0.668
		l0.784-0.317l-0.784,0.317l0.839-0.102c-0.007-0.047-0.012-0.102-0.055-0.214l-0.784,0.317l0.839-0.102l-0.838,0.102h0.844
		l-0.006-0.102l-0.838,0.102h0.844h-0.802l0.801,0.071l0.003-0.071h-0.804l0.801,0.071l-0.477-0.042l0.476,0.051l0.001-0.008
		l-0.477-0.042l0.476,0.051l0.01-0.077l0.005-0.038v-0.003l-0.538-0.084l0.536,0.1l0.003-0.016l-0.538-0.084l0.536,0.1l-0.791-0.147
		l0.78,0.195l0.01-0.047l-0.791-0.147l0.78,0.195l-0.816-0.203l0.788,0.294l0.028-0.091l-0.816-0.203l0.788,0.294l-0.792-0.295
		l0.718,0.446c0.051-0.084,0.062-0.121,0.074-0.151l-0.792-0.295l0.718,0.446l-0.719-0.446l0.564,0.63
		c0.091-0.084,0.126-0.141,0.154-0.184l-0.719-0.446l0.564,0.63l-0.564-0.63l0.363,0.764c0.093-0.045,0.156-0.093,0.202-0.135
		l-0.564-0.63l0.363,0.764l-0.363-0.764v0.846c0.144,0,0.271-0.037,0.363-0.081l-0.363-0.764v0.846v-0.846l-0.39,0.746
		c0.106,0.057,0.249,0.096,0.391,0.096v-0.846l-0.391,0.751l0.391-0.751l-0.723,0.44c0.05,0.077,0.129,0.201,0.332,0.31l0.391-0.751
		l-0.723,0.44l0.723-0.44l-0.824,0.19c0.014,0.049,0.021,0.112,0.102,0.251l0.723-0.44l-0.825,0.189l0.822-0.189H9.693
		c0.003,0.036-0.005,0.057,0.021,0.188l0.822-0.189H9.693h0.733l-0.73-0.065l-0.003,0.065h0.733l-0.73-0.065l-0.01,0.093
		c-0.112,0.978-0.125,1.933-0.125,2.868c0,4.225,0,8.451,0,12.677h0.846l0.598-0.598c-0.504-0.504-1.01-1.01-1.514-1.514
		l-0.598,0.598v0.846c1.233,0,2.466,0,3.699,0c4.004,0,8.007,0,12.011,0c5.475,0,10.951,0,16.426,0c5.591,0,11.181,0,16.772,0
		c4.35,0,8.698,0,13.048,0c1.752,0,3.503,0,5.254,0v-0.846l-0.598-0.598c-0.504,0.504-1.01,1.01-1.514,1.514l0.598,0.598h0.846
		c0-0.244,0-0.487,0-0.73c0-4.225,0-8.451,0-12.677L74.589,71.5L74.589,71.5z"/>
</g>
</svg>
