<?xml version="1.0" encoding="utf-8"?>
<!-- Generator: Adobe Illustrator 17.0.0, SVG Export Plug-In . SVG Version: 6.00 Build 0)  -->
<!DOCTYPE svg PUBLIC "-//W3C//DTD SVG 1.1//EN" "http://www.w3.org/Graphics/SVG/1.1/DTD/svg11.dtd">
<svg version="1.1" id="Слой_1" xmlns="http://www.w3.org/2000/svg" xmlns:xlink="http://www.w3.org/1999/xlink" x="0px" y="0px"
	 width="30.001px" height="30px" viewBox="0 0 30.001 30" enable-background="new 0 0 30.001 30" xml:space="preserve">
<g>
	<path fill="#FFFFFF" d="M29.175,30c-0.221,0-0.428-0.086-0.584-0.242l-8.174-8.174c-2.245,1.967-5.103,3.045-8.102,3.045
		c-3.289,0-6.382-1.281-8.707-3.607C1.281,18.696,0,15.604,0,12.314c0-3.289,1.281-6.382,3.607-8.707C5.933,1.281,9.025,0,12.315,0
		c3.29,0,6.382,1.281,8.708,3.607c4.558,4.558,4.769,11.993,0.562,16.809l8.175,8.175c0.322,0.322,0.322,0.846,0,1.168
		C29.603,29.914,29.396,30,29.175,30z M12.315,1.652c-2.848,0-5.526,1.109-7.539,3.123c-2.014,2.014-3.123,4.691-3.123,7.539
		c0,2.849,1.109,5.526,3.123,7.54c2.014,2.014,4.691,3.123,7.539,3.123c2.848,0,5.526-1.109,7.54-3.123
		c4.157-4.158,4.157-10.922,0-15.079C17.84,2.761,15.162,1.652,12.315,1.652z"/>
</g>
</svg>
