<?xml version="1.0" encoding="utf-8"?>
<!-- Generator: Adobe Illustrator 17.0.0, SVG Export Plug-In . SVG Version: 6.00 Build 0)  -->
<!DOCTYPE svg PUBLIC "-//W3C//DTD SVG 1.1//EN" "http://www.w3.org/Graphics/SVG/1.1/DTD/svg11.dtd">
<svg version="1.1" id="Слой_1" xmlns="http://www.w3.org/2000/svg" xmlns:xlink="http://www.w3.org/1999/xlink" x="0px" y="0px"
	 width="96px" height="84.652px" viewBox="0 0 96 84.652" enable-background="new 0 0 96 84.652" xml:space="preserve">
<g>
	<path fill="#455773" d="M88.608,84.652H7.392c-2.699,0-5.03-1.35-6.38-3.681s-1.35-5.03,0-7.361L41.62,3.681
		C42.97,1.35,45.301,0,48,0s5.03,1.35,6.38,3.681l40.608,69.93c1.35,2.331,1.35,5.03,0,7.361S91.185,84.652,88.608,84.652z
		 M48,4.907c-0.368,0-1.472,0.123-2.086,1.227L5.306,76.064c-0.613,1.104-0.245,2.086,0,2.454s0.859,1.227,2.086,1.227h81.094
		c1.227,0,1.963-0.859,2.086-1.227c0.245-0.368,0.613-1.35,0-2.454L50.086,6.134C49.472,5.03,48.368,4.907,48,4.907z"/>
	<rect x="45.546" y="30.671" fill="#455773" width="4.907" height="28.217"/>
	<rect x="45.546" y="63.796" fill="#455773" width="4.907" height="6.134"/>
</g>
</svg>
