<?xml version="1.0" encoding="utf-8"?>
<!-- Generator: Adobe Illustrator 17.0.0, SVG Export Plug-In . SVG Version: 6.00 Build 0)  -->
<!DOCTYPE svg PUBLIC "-//W3C//DTD SVG 1.1//EN" "http://www.w3.org/Graphics/SVG/1.1/DTD/svg11.dtd">
<svg version="1.1" id="Слой_1" xmlns="http://www.w3.org/2000/svg" xmlns:xlink="http://www.w3.org/1999/xlink" x="0px" y="0px"
	 width="85px" height="94.536px" viewBox="0 0 85 94.536" enable-background="new 0 0 85 94.536" xml:space="preserve">
<g>
	<path fill="#FFFFFF" d="M60.507,22.591c-0.002,0.489-0.019,0.977-0.051,1.465c-0.016,0.249-0.039,0.498-0.063,0.747
		c-0.012,0.126-0.026,0.251-0.041,0.377c-0.012,0.105-0.091,0.69-0.017,0.156c-0.15,1.082-0.375,2.153-0.649,3.211
		c-0.284,1.096-0.634,2.175-1.031,3.235c-0.097,0.258-0.198,0.515-0.301,0.77c-0.052,0.128-0.105,0.256-0.158,0.383
		c0.176-0.422-0.007,0.012-0.038,0.082c-0.24,0.552-0.499,1.095-0.768,1.633c-0.517,1.034-1.092,2.039-1.714,3.013
		c-0.296,0.464-0.607,0.918-0.927,1.366c-0.159,0.222-0.322,0.441-0.487,0.659c-0.279,0.369,0.232-0.296-0.053,0.068
		c-0.112,0.142-0.226,0.282-0.34,0.421c-0.702,0.857-1.46,1.667-2.267,2.426c-0.377,0.355-0.769,0.693-1.169,1.021
		c-0.099,0.081-0.2,0.16-0.3,0.239c0.373-0.293,0.028-0.024-0.043,0.028c-0.236,0.176-0.477,0.344-0.72,0.509
		c-0.848,0.574-1.75,1.068-2.689,1.475c0.461-0.2,0.074-0.034-0.018,0.002c-0.112,0.044-0.224,0.085-0.337,0.127
		c-0.224,0.082-0.452,0.156-0.68,0.226c-0.492,0.152-0.995,0.269-1.502,0.362c-0.117,0.021-0.234,0.039-0.352,0.057
		c0.528-0.081,0.113-0.016,0.004-0.003c-0.237,0.027-0.475,0.044-0.713,0.057c-0.518,0.028-1.038,0.016-1.555-0.023
		c-0.141-0.011-0.927-0.113-0.352-0.03c-0.235-0.034-0.469-0.078-0.701-0.125c-0.506-0.102-1.003-0.242-1.493-0.403
		c-0.228-0.075-0.453-0.158-0.676-0.245c-0.092-0.035-0.481-0.199-0.019-0.002c-0.111-0.047-0.221-0.097-0.332-0.147
		c-0.483-0.219-0.951-0.468-1.41-0.734c-0.431-0.25-0.849-0.523-1.258-0.808c-0.208-0.145-0.411-0.295-0.612-0.448
		c0.379,0.287,0.029,0.02-0.04-0.034c-0.134-0.107-0.265-0.216-0.397-0.326c-0.839-0.702-1.617-1.474-2.351-2.285
		c-0.361-0.399-0.707-0.812-1.044-1.232c-0.048-0.059-0.331-0.423-0.055-0.066c-0.083-0.108-0.165-0.217-0.247-0.326
		c-0.192-0.256-0.377-0.515-0.561-0.777c-0.662-0.943-1.264-1.928-1.821-2.936c-0.269-0.487-0.522-0.982-0.767-1.481
		c-0.122-0.249-0.24-0.501-0.356-0.753c-0.058-0.126-0.114-0.253-0.171-0.379c-0.035-0.079-0.278-0.646-0.094-0.209
		c-0.874-2.074-1.536-4.24-1.951-6.452c-0.048-0.255-0.09-0.51-0.131-0.767c-0.02-0.127-0.038-0.254-0.057-0.381
		c0.073,0.507,0.01,0.068-0.002-0.03c-0.066-0.538-0.111-1.078-0.141-1.619c-0.061-1.122-0.023-2.248,0.1-3.365
		c0.009-0.083,0.074-0.557,0.008-0.081c0.019-0.138,0.042-0.276,0.064-0.414c0.044-0.274,0.097-0.547,0.153-0.82
		c0.12-0.584,0.272-1.162,0.444-1.733c0.157-0.522,0.342-1.035,0.542-1.542c0.03-0.075,0.21-0.501,0.027-0.073
		c0.053-0.124,0.109-0.248,0.164-0.371c0.13-0.287,0.269-0.569,0.412-0.85c0.508-0.996,1.111-1.942,1.779-2.837
		c0.273-0.366-0.235,0.297,0.047-0.061c0.083-0.105,0.168-0.208,0.252-0.311c0.17-0.206,0.345-0.407,0.523-0.606
		c0.385-0.431,0.793-0.842,1.214-1.238c0.389-0.366,0.796-0.712,1.213-1.046c0.356-0.285-0.303,0.228,0.061-0.047
		c0.107-0.081,0.215-0.159,0.323-0.238c0.253-0.183,0.512-0.358,0.773-0.53c0.938-0.615,1.934-1.141,2.962-1.588
		c-0.426,0.185-0.001,0.003,0.073-0.027c0.126-0.051,0.253-0.099,0.38-0.147c0.255-0.096,0.513-0.185,0.771-0.271
		c0.565-0.187,1.139-0.343,1.718-0.479c0.541-0.127,1.089-0.225,1.639-0.305c-0.476,0.07-0.002,0.002,0.081-0.008
		c0.14-0.016,0.28-0.03,0.42-0.043c0.33-0.032,0.66-0.052,0.991-0.067c0.573-0.026,1.146-0.022,1.719,0
		c0.284,0.011,0.567,0.031,0.85,0.054c0.141,0.012,0.281,0.026,0.421,0.04c0.092,0.01,0.717,0.092,0.221,0.023
		c1.14,0.159,2.263,0.429,3.357,0.784c0.475,0.154,0.941,0.331,1.402,0.52c-0.447-0.184,0.218,0.101,0.316,0.146
		c0.245,0.113,0.487,0.233,0.727,0.356c0.876,0.448,1.714,0.969,2.514,1.542c0.086,0.062,0.656,0.495,0.279,0.202
		c0.211,0.164,0.417,0.334,0.621,0.507c0.374,0.316,0.732,0.649,1.082,0.992c0.349,0.343,0.683,0.701,1.006,1.068
		c0.177,0.2,0.347,0.406,0.515,0.614c0.05,0.062,0.329,0.422,0.05,0.059c0.081,0.106,0.161,0.214,0.24,0.321
		c0.583,0.792,1.099,1.633,1.558,2.503c0.231,0.438,0.441,0.886,0.639,1.34c-0.193-0.444,0.088,0.226,0.126,0.326
		c0.098,0.254,0.189,0.511,0.276,0.769c0.325,0.957,0.566,1.941,0.74,2.935c0.019,0.109,0.126,0.85,0.061,0.354
		c0.037,0.279,0.065,0.559,0.09,0.84C60.485,21.449,60.505,22.02,60.507,22.591c0.003,0.975,0.811,1.789,1.789,1.789
		c0.973,0,1.792-0.814,1.789-1.789c-0.018-4.978-1.744-9.688-4.817-13.581C56.36,5.325,52.11,2.69,47.56,1.591
		c-4.886-1.18-10.031-0.565-14.552,1.59c-4.209,2.006-7.727,5.533-9.814,9.691c-1.139,2.269-1.815,4.66-2.147,7.17
		c-0.303,2.296-0.138,4.604,0.234,6.88c0.746,4.567,2.614,9.034,5.147,12.893c2.462,3.751,5.783,7.255,9.942,9.1
		c2.045,0.907,4.226,1.43,6.474,1.374s4.407-0.696,6.414-1.683c4.106-2.019,7.336-5.666,9.729-9.489
		c2.441-3.9,4.182-8.393,4.815-12.958c0.164-1.185,0.278-2.371,0.282-3.568c0.003-0.975-0.816-1.789-1.789-1.789
		C61.318,20.802,60.51,21.616,60.507,22.591z"/>
	<path fill="#FFFFFF" d="M60.507,22.591l-1-0.003c-0.001,0.467-0.018,0.934-0.049,1.403c-0.015,0.233-0.037,0.471-0.06,0.715
		c-0.011,0.115-0.025,0.235-0.039,0.361v-0.002l-0.025,0.197l-0.015,0.113l-0.005,0.04l-0.002,0.017l-0.002,0.015l-0.002,0.019
		l-0.004,0.089h1l-0.928-0.371c-0.067,0.172-0.07,0.289-0.072,0.371h1l-0.928-0.371l0.928,0.371l-0.535-0.845
		c-0.206,0.128-0.338,0.327-0.393,0.473l0.928,0.371l-0.535-0.845l0.535,0.845l-0.015-1c-0.144,0-0.343,0.041-0.52,0.155
		l0.535,0.845l-0.015-1l0.015,1l0.444-0.896c-0.082-0.036-0.201-0.101-0.458-0.104l0.015,1l0.444-0.896l-0.444,0.896l0.64-0.769
		c-0.036-0.028-0.078-0.067-0.196-0.128l-0.444,0.896l0.64-0.769l-0.64,0.769l0.707-0.707l-0.067-0.062l-0.64,0.769l0.707-0.707
		l-0.707,0.707v1c0.256,0,0.451-0.096,0.563-0.174c0.223-0.164,0.258-0.262,0.302-0.325c0.068-0.122,0.072-0.157,0.086-0.191
		l0.025-0.091l0.011-0.059l0.012-0.081l0.023-0.163l-1.981-0.275c-0.144,1.036-0.36,2.07-0.626,3.098
		c-0.273,1.057-0.613,2.102-1,3.135c-0.092,0.247-0.191,0.496-0.292,0.748c-0.048,0.12-0.1,0.244-0.153,0.372l1.846,0.769
		l0.06-0.144l0.015-0.037l0.008-0.019l0.009-0.023l0.013-0.036l0.016-0.054l0.015-0.067c0.005-0.035,0.016-0.075,0.018-0.187
		c0-0.168-0.042-0.307-0.086-0.406c-0.081-0.175-0.16-0.253-0.215-0.309c-0.164-0.149-0.209-0.151-0.252-0.179
		c-0.141-0.071-0.289-0.106-0.447-0.106c-0.186,0.001-0.319,0.048-0.41,0.088c-0.18,0.086-0.239,0.153-0.289,0.197l-0.128,0.153
		l-0.052,0.086l-0.03,0.06L57.337,32.4l-0.092,0.215l0.001-0.001c-0.232,0.532-0.482,1.06-0.745,1.586
		c-0.5,1-1.058,1.975-1.663,2.922c-0.284,0.446-0.585,0.886-0.897,1.322c-0.151,0.211-0.309,0.423-0.471,0.636l-0.071,0.094
		l-0.022,0.029l-0.016,0.023l-0.023,0.035l-0.035,0.058l-0.043,0.088l-0.039,0.109c-0.014,0.055-0.038,0.125-0.041,0.283h1
		l0.707-0.707l-0.152-0.125c-0.087-0.049-0.217-0.156-0.555-0.168c-0.263,0-0.521,0.107-0.707,0.293s-0.293,0.444-0.293,0.707
		s0.107,0.521,0.293,0.707s0.444,0.293,0.707,0.293c0.304-0.012,0.399-0.088,0.475-0.12c0.134-0.077,0.157-0.107,0.188-0.132
		l0.072-0.071l0.043-0.05l0.085-0.109l0.042-0.056l0.021-0.028l0.019-0.027l0.028-0.043l0.039-0.07l0.044-0.099
		c0.016-0.059,0.057-0.116,0.065-0.356c0-0.263-0.107-0.521-0.293-0.707s-0.444-0.293-0.707-0.293s-0.521,0.107-0.707,0.293
		s-0.293,0.444-0.293,0.707h1l-0.919-0.394c-0.078,0.188-0.079,0.312-0.081,0.394h1l-0.919-0.394l0.919,0.394l-0.481-0.876
		c-0.21,0.11-0.374,0.321-0.438,0.483l0.919,0.394l-0.481-0.876l0.481,0.876l-0.012-1c-0.115,0.001-0.288,0.024-0.47,0.123
		l0.481,0.876l-0.012-1l0.012,1l0.314-0.949c-0.045-0.011-0.121-0.048-0.326-0.051l0.012,1l0.314-0.949L54.3,39.638l0.357-0.934
		l-0.042-0.015l-0.314,0.949l0.357-0.934c-0.007,0.003-0.105-0.059-0.357-0.066c-0.216,0.004-0.321,0.053-0.396,0.082
		c-0.141,0.064-0.178,0.101-0.215,0.127l-0.095,0.084l-0.059,0.064l-0.111,0.139c-0.104,0.132-0.214,0.267-0.327,0.406
		c-0.673,0.823-1.402,1.601-2.178,2.331c-0.356,0.335-0.73,0.659-1.117,0.974c-0.089,0.073-0.185,0.148-0.285,0.227l1.237,1.572
		l0.135-0.106l0.034-0.027l0.016-0.013l0.02-0.017l0.034-0.031l0.057-0.058l0.079-0.1l0.081-0.141
		c0.031-0.076,0.089-0.178,0.096-0.427c0-0.168-0.042-0.307-0.086-0.406c-0.081-0.175-0.16-0.253-0.215-0.309
		c-0.164-0.149-0.209-0.151-0.252-0.179c-0.141-0.071-0.289-0.106-0.447-0.106c-0.143,0.002-0.213,0.023-0.268,0.037
		c-0.103,0.03-0.138,0.05-0.17,0.064c-0.102,0.052-0.099,0.057-0.119,0.068l-0.046,0.032l-0.11,0.084l-0.101,0.077l0.002-0.001
		c-0.219,0.163-0.447,0.323-0.683,0.482c-0.796,0.539-1.643,1.003-2.527,1.386l0.796,1.835l0.175-0.076l0.044-0.019l0.022-0.01
		l0.029-0.014l0.051-0.027l0.087-0.056l0.128-0.11c0.034-0.035,0.078-0.081,0.136-0.173c0.053-0.092,0.145-0.241,0.151-0.528
		c0-0.168-0.042-0.307-0.086-0.406c-0.081-0.175-0.16-0.253-0.215-0.309c-0.164-0.149-0.209-0.151-0.252-0.179
		c-0.141-0.071-0.289-0.106-0.447-0.106c-0.174,0.005-0.197,0.022-0.236,0.028c-0.105,0.028-0.093,0.029-0.112,0.034l-0.045,0.018
		l-0.215,0.089c-0.095,0.038-0.2,0.076-0.313,0.117c-0.2,0.073-0.411,0.142-0.632,0.21c-0.447,0.138-0.911,0.246-1.387,0.333
		c-0.098,0.018-0.206,0.035-0.323,0.053l0.303,1.977c0.097-0.015,0.162-0.025,0.202-0.031l0.042-0.006l0.008-0.001l-0.069-0.466
		l0.066,0.466h0.002l-0.069-0.466l0.066,0.466l-0.13-0.914l0.123,0.915l0.008-0.001l-0.13-0.914l0.123,0.915l-0.131-0.978
		l0.117,0.98l0.014-0.002l-0.131-0.978l0.117,0.98l-0.118-0.99l0.098,0.992l0.02-0.002l-0.118-0.99l0.098,0.992l-0.098-0.995v1
		l0.098-0.005l-0.098-0.995v1c0.404,0,0.769-0.244,0.924-0.617s0.069-0.804-0.217-1.09l-0.707,0.707l0.832-0.555l-0.125-0.152
		l-0.707,0.707l0.832-0.555l-0.832,0.555h1c-0.012-0.337-0.119-0.468-0.168-0.555l-0.832,0.555h1c0-0.386-0.222-0.737-0.57-0.903
		s-0.76-0.117-1.06,0.126l0.63,0.777l-0.398-0.917c-0.044,0.022-0.097,0.036-0.232,0.141l0.63,0.777l-0.398-0.917l0.398,0.917
		l-0.273-0.962l-0.126,0.045l0.398,0.917l-0.273-0.962l0.272,0.961l-0.19-0.981l-0.083,0.02l0.272,0.961l-0.19-0.981l0.184,0.952
		L43.89,45.62l-0.029,0.005l0.184,0.952L43.89,45.62l0.053,0.325l-0.05-0.325h-0.002l0.053,0.325l-0.05-0.325l-0.214,0.031
		c-0.206,0.024-0.425,0.039-0.653,0.052c-0.172,0.009-0.346,0.014-0.521,0.014c-0.298,0-0.6-0.013-0.906-0.036
		c0,0.001-0.148-0.016-0.265-0.03l-0.17-0.02l-0.066-0.007l-0.034-0.003l-0.097-0.005l-0.06,0.002c-0.032,0.004-0.068,0-0.195,0.031
		c-0.066,0.02-0.16,0.039-0.326,0.152c-0.081,0.058-0.184,0.147-0.273,0.292c-0.09,0.142-0.151,0.342-0.148,0.524
		c0,0.237,0.084,0.426,0.158,0.539c0.154,0.225,0.258,0.268,0.322,0.315c0.126,0.073,0.165,0.079,0.201,0.094l0.098,0.028
		l0.08,0.015c0.046,0.007,0.104,0.016,0.207,0.031l0.285-1.98c-0.207-0.03-0.421-0.07-0.645-0.115
		c-0.457-0.092-0.917-0.221-1.38-0.373c-0.203-0.067-0.412-0.144-0.628-0.227l-0.123-0.05l-0.071-0.029l-0.028-0.011l-0.02-0.008
		l-0.027-0.01l-0.042-0.014l-0.059-0.016c-0.039-0.006-0.061-0.022-0.232-0.027v1l0.555-0.832c-0.087-0.049-0.217-0.156-0.555-0.168
		v1l0.555-0.832l-0.555,0.832l0.707-0.707l-0.152-0.125l-0.555,0.832l0.707-0.707c-0.286-0.286-0.716-0.372-1.09-0.217
		s-0.617,0.519-0.617,0.924c0.006,0.288,0.099,0.439,0.153,0.532c0.118,0.177,0.176,0.206,0.217,0.245l0.124,0.086l0.082,0.043
		l0.045,0.02c0.034,0.015,0.096,0.041,0.21,0.09l0.781-1.841c-0.096-0.041-0.199-0.087-0.31-0.137
		c-0.443-0.201-0.883-0.435-1.321-0.688c-0.4-0.232-0.795-0.489-1.188-0.763c-0.191-0.133-0.384-0.276-0.581-0.425l-1.206,1.595
		l0.136,0.103l0.033,0.025l0.014,0.01l0.016,0.011l0.027,0.018l0.048,0.03l0.077,0.04l0.103,0.042
		c0.057,0.016,0.122,0.048,0.322,0.053c0.348,0,0.668-0.179,0.851-0.474c0.183-0.296,0.199-0.662,0.044-0.973l0,0l-0.894,0.447h1
		c-0.003-0.189-0.043-0.293-0.07-0.368c-0.06-0.143-0.099-0.187-0.126-0.227l-0.092-0.107l-0.07-0.064l-0.029-0.024l-0.105-0.081
		l-0.1-0.077c-0.121-0.096-0.246-0.2-0.376-0.309c-0.796-0.666-1.542-1.405-2.251-2.189c-0.344-0.38-0.677-0.778-1.005-1.187
		l-0.093-0.118l-0.054-0.069l-0.021-0.026l-0.013-0.016l-0.018-0.021l-0.033-0.036L31.33,38.89l-0.104-0.08l-0.144-0.08
		c-0.076-0.03-0.18-0.084-0.413-0.089v1l0.555-0.832c-0.171-0.117-0.39-0.171-0.555-0.168v1l0.555-0.832l-0.555,0.832l0.958-0.287
		c-0.039-0.132-0.139-0.365-0.403-0.545l-0.555,0.832l0.958-0.287l-0.958,0.287h1c-0.001-0.063-0.002-0.147-0.042-0.287
		l-0.958,0.287h1c0-0.263-0.107-0.521-0.293-0.707c-0.186-0.186-0.444-0.293-0.707-0.293s-0.521,0.107-0.707,0.293
		s-0.293,0.444-0.293,0.707c0.01,0.254,0.053,0.307,0.07,0.367c0.04,0.097,0.055,0.116,0.068,0.14l0.049,0.076l0.027,0.036
		l0.114,0.148l1.583-1.222c-0.078-0.101-0.157-0.206-0.239-0.315c-0.182-0.243-0.362-0.494-0.542-0.751
		c-0.638-0.909-1.222-1.863-1.764-2.845c-0.259-0.469-0.505-0.949-0.744-1.437c-0.117-0.239-0.231-0.483-0.345-0.731
		c-0.055-0.119-0.109-0.242-0.166-0.368l-0.086-0.198l-0.051-0.117l-0.019-0.043l-0.01-0.022l-0.013-0.027l-0.024-0.046l-0.05-0.08
		l-0.098-0.121l-0.163-0.139c-0.09-0.054-0.237-0.164-0.563-0.174v1l0.555-0.832c-0.171-0.117-0.39-0.171-0.555-0.168v1l0.555-0.832
		l-0.555,0.832l0.958-0.287c-0.039-0.132-0.139-0.365-0.403-0.545l-0.555,0.832l0.958-0.287l-0.958,0.287h1
		c-0.001-0.063-0.002-0.147-0.042-0.287l-0.958,0.287h1c0-0.263-0.107-0.521-0.293-0.707c-0.186-0.186-0.444-0.293-0.707-0.293
		s-0.521,0.107-0.707,0.293c-0.186,0.186-0.293,0.444-0.293,0.707c0.004,0.165,0.021,0.192,0.027,0.23
		c0.028,0.106,0.029,0.096,0.035,0.116l0.019,0.048l0.066,0.158l1.843-0.777c-0.847-2.011-1.488-4.109-1.89-6.248
		c-0.045-0.241-0.086-0.487-0.126-0.738c-0.019-0.117-0.036-0.239-0.055-0.367l-1.98,0.285l0.027,0.187l0.006,0.042l0.002,0.012
		l0.001,0.008l0.002,0.012l0.004,0.023l0.01,0.045l0.024,0.085l0.063,0.149c0.025,0.045,0.054,0.104,0.145,0.208
		c0.047,0.051,0.113,0.117,0.228,0.186c0.112,0.068,0.291,0.141,0.512,0.141c0.348,0,0.668-0.179,0.851-0.474
		c0.183-0.296,0.199-0.662,0.044-0.973l0,0l-0.894,0.447h1l-0.004-0.086l-0.005-0.046l-0.035-0.259v-0.001
		c-0.063-0.511-0.106-1.029-0.134-1.551c-0.018-0.336-0.027-0.673-0.027-1.01c0-0.73,0.042-1.462,0.123-2.191l0.018-0.145
		l0.011-0.087l0.004-0.032l0.002-0.015l0.002-0.015l0.002-0.019l0.004-0.087c0.001-0.167-0.046-0.342-0.121-0.476
		c-0.113-0.205-0.258-0.32-0.388-0.395c-0.139-0.072-0.251-0.122-0.492-0.129c-0.196,0-0.362,0.059-0.473,0.119
		c-0.223,0.127-0.288,0.234-0.341,0.3c-0.091,0.134-0.1,0.181-0.119,0.221l-0.036,0.113l-0.016,0.074l-0.007,0.044
		c-0.004,0.029-0.012,0.088-0.028,0.2l1.981,0.275c0.017-0.124,0.038-0.255,0.061-0.393c0.041-0.254,0.091-0.513,0.145-0.778
		c0.112-0.548,0.256-1.096,0.422-1.644c0.147-0.489,0.322-0.976,0.515-1.463l0.054-0.132l0.033-0.079l0.012-0.029l0.006-0.016
		l0.007-0.018l0.011-0.03l0.015-0.047l0.016-0.063c0.006-0.037,0.02-0.07,0.023-0.215c0.002-0.167-0.049-0.361-0.139-0.509
		c-0.163-0.266-0.36-0.363-0.472-0.412c-0.177-0.07-0.253-0.068-0.308-0.075l-0.081-0.003c-0.303,0.007-0.452,0.106-0.543,0.16
		c-0.174,0.12-0.2,0.175-0.238,0.215l-0.082,0.119l-0.041,0.077l-0.014,0.031c-0.011,0.026-0.032,0.075-0.083,0.193l1.84,0.785
		c0.048-0.112,0.101-0.229,0.156-0.352c0.12-0.267,0.253-0.535,0.392-0.807c0.479-0.939,1.051-1.838,1.69-2.693l0.071-0.096
		l0.026-0.036l0.023-0.034l0.032-0.053l0.042-0.082l0.041-0.106c0.015-0.056,0.044-0.124,0.048-0.306
		c-0.014-0.329-0.099-0.419-0.132-0.496c-0.061-0.103-0.091-0.131-0.114-0.16l-0.048-0.051c-0.186-0.186-0.444-0.293-0.707-0.293
		c-0.198,0.003-0.304,0.046-0.379,0.074c-0.143,0.062-0.185,0.101-0.224,0.128l-0.104,0.09l-0.064,0.07l-0.049,0.061L27.377,11
		l-0.032,0.043l-0.021,0.03l-0.026,0.04l-0.037,0.064l-0.044,0.094l-0.038,0.111c-0.014,0.054-0.035,0.125-0.037,0.268
		c0.008,0.081-0.015,0.221,0.136,0.504c0.059,0.103,0.155,0.219,0.279,0.308c0.222,0.162,0.475,0.194,0.605,0.188
		c0.104-0.003,0.163-0.017,0.198-0.024l0.04-0.01l-0.259-0.966l0.2,0.98l0.059-0.014l-0.259-0.966l0.2,0.98l-0.2-0.98v1
		c0.092,0,0.158-0.012,0.2-0.02l-0.2-0.98v1c0.302-0.012,0.396-0.087,0.472-0.118c0.132-0.075,0.155-0.105,0.187-0.129l0.072-0.07
		l0.049-0.055l0.093-0.116c0.075-0.095,0.156-0.193,0.241-0.297c0.157-0.191,0.324-0.382,0.497-0.576
		c0.361-0.405,0.749-0.795,1.153-1.176c0.364-0.343,0.751-0.672,1.152-0.993l0.094-0.076l0.034-0.029l0.033-0.029l0.05-0.05
		l0.073-0.087l0.083-0.131c0.031-0.076,0.105-0.169,0.117-0.469c-0.014-0.33-0.104-0.436-0.15-0.526
		c-0.08-0.124-0.135-0.178-0.22-0.25l-0.178-0.115C31.907,7.319,31.79,7.255,31.54,7.25c-0.225,0.007-0.287,0.045-0.347,0.062
		c-0.101,0.039-0.123,0.056-0.149,0.07l-0.088,0.056l-0.064,0.048l-0.09,0.07L30.76,7.589L30.734,7.61l-0.037,0.033L30.64,7.701
		l-0.08,0.1l-0.082,0.141c-0.031,0.076-0.091,0.18-0.098,0.431l0.003,0.083c0.004,0.035,0.006,0.085,0.036,0.194
		c0.029,0.091,0.077,0.257,0.276,0.452c0.17,0.173,0.472,0.277,0.665,0.271c0.174,0.002,0.276-0.032,0.34-0.052
		c0.11-0.039,0.126-0.054,0.127-0.053L31.38,8.374v1c0.22,0.006,0.436-0.097,0.447-0.105L31.38,8.374v1
		c0.179-0.004,0.248-0.032,0.305-0.048c0.102-0.034,0.13-0.053,0.159-0.066l0.102-0.061l0.067-0.048l0.084-0.063
		c0.096-0.073,0.199-0.148,0.307-0.226c0.235-0.17,0.48-0.337,0.734-0.503c0.885-0.581,1.83-1.08,2.812-1.507l-0.798-1.834
		l-0.148,0.064l-0.037,0.016l-0.019,0.008l-0.024,0.011L34.882,5.14l-0.075,0.046L34.69,5.277l-0.139,0.156
		c-0.054,0.089-0.175,0.23-0.188,0.583h1l0.707-0.707l-0.152-0.125c-0.087-0.049-0.217-0.156-0.555-0.168
		c-0.263,0-0.521,0.107-0.707,0.293s-0.293,0.444-0.293,0.707c0,0.263,0.107,0.521,0.293,0.707s0.444,0.293,0.707,0.293
		c0.122-0.002,0.162-0.014,0.198-0.02c0.116-0.026,0.111-0.031,0.133-0.037l0.051-0.019l0.134-0.057l0.114-0.048L36,6.832
		l-0.003,0.001c0.113-0.046,0.233-0.091,0.36-0.139c0.236-0.089,0.481-0.174,0.733-0.257c0.529-0.176,1.075-0.324,1.631-0.454
		c0.507-0.119,1.027-0.212,1.556-0.289l-0.29-1.979l-0.165,0.024l-0.041,0.006l-0.019,0.003L39.74,3.752l-0.043,0.009l-0.08,0.022
		l-0.142,0.058c-0.043,0.023-0.1,0.049-0.204,0.136C39.22,4.022,39.153,4.085,39.079,4.2c-0.072,0.112-0.155,0.298-0.155,0.535h1
		l0.707-0.707l-0.707,0.707l0.768-0.64l-0.061-0.067l-0.707,0.707l0.768-0.64l-0.768,0.64l0.853-0.521l-0.085-0.119l-0.768,0.64
		l0.853-0.521l-0.853,0.521l0.954-0.3c-0.037-0.113-0.073-0.174-0.101-0.221l-0.853,0.521l0.954-0.3l-0.954,0.3l0.997,0.08
		c0.013-0.175-0.017-0.295-0.043-0.38l-0.954,0.3l0.997,0.08l-0.997-0.08l0.855,0.519c0.09-0.147,0.132-0.31,0.142-0.439
		l-0.997-0.08l0.855,0.519l-0.855-0.519l0.346,0.938c0.154-0.053,0.374-0.193,0.509-0.419l-0.855-0.519l0.346,0.938l-0.346-0.938v1
		c0.079-0.001,0.187-0.005,0.346-0.062l-0.346-0.938v1l0.083-0.003l0.061-0.007l0.261-0.035h0.002
		c0.126-0.015,0.259-0.028,0.399-0.041c0.306-0.029,0.62-0.049,0.941-0.063c0.257-0.012,0.517-0.017,0.777-0.017
		c0.284,0,0.569,0.006,0.856,0.018c0.263,0.01,0.532,0.029,0.808,0.052c0.127,0.01,0.26,0.024,0.4,0.038l0.203,0.025l0.127,0.016
		l0.048,0.006l0.024,0.003l0.021,0.002l0.089,0.004l0.155-0.012c0.057-0.009,0.133-0.024,0.234-0.067
		c0.147-0.056,0.37-0.217,0.485-0.435c0.118-0.216,0.125-0.398,0.126-0.486c-0.001-0.263-0.101-0.461-0.18-0.572
		c-0.167-0.222-0.264-0.254-0.326-0.297c-0.121-0.065-0.154-0.07-0.188-0.083c-0.103-0.031-0.098-0.025-0.118-0.03L45.157,3.74
		c-0.034-0.005-0.087-0.013-0.184-0.026l-0.275,1.981c1.075,0.15,2.142,0.406,3.187,0.745c0.444,0.144,0.887,0.312,1.331,0.494
		l0.76-1.85L49.85,5.033l-0.046-0.018l-0.039-0.014l-0.052-0.016l-0.066-0.016c-0.037-0.006-0.074-0.019-0.204-0.021v0.999
		l0.316-0.948c-0.054-0.013-0.103-0.045-0.316-0.051v0.999l0.316-0.948c-0.304-0.102-0.641-0.05-0.901,0.137
		c-0.26,0.188-0.415,0.49-0.415,0.811c0.007,0.296,0.103,0.445,0.157,0.537c0.119,0.175,0.175,0.202,0.215,0.241l0.121,0.084
		l0.086,0.046l0.114,0.051c0.123,0.054,0.338,0.147,0.358,0.157c0.227,0.104,0.456,0.218,0.69,0.338
		c0.826,0.422,1.622,0.917,2.387,1.464l0.207,0.155l0.127,0.095l0.048,0.035l0.027,0.019l0.033,0.022l0.054,0.033l0.083,0.042
		l0.107,0.041c0.056,0.015,0.125,0.043,0.303,0.047c0.404,0,0.769-0.244,0.924-0.617s0.069-0.804-0.217-1.09L53.56,8.354L54.39,7.8
		l-0.125-0.152l-0.707,0.707L54.39,7.8l-0.832,0.555h1C54.546,8.017,54.439,7.887,54.39,7.8l-0.832,0.555h1
		c-0.003-0.202-0.048-0.307-0.076-0.382c-0.062-0.142-0.1-0.183-0.127-0.222L54.267,7.65l-0.068-0.063l-0.063-0.05l-0.091-0.071
		l-1.228,1.579c0.195,0.151,0.39,0.313,0.589,0.481c0.35,0.296,0.691,0.612,1.027,0.942c0.327,0.321,0.644,0.661,0.955,1.015
		c0.163,0.186,0.325,0.381,0.489,0.583l0.088,0.111l0.052,0.067l0.02,0.025l0.012,0.015l0.016,0.02l0.03,0.033l0.056,0.056
		l0.097,0.078l0.14,0.083c0.076,0.031,0.178,0.094,0.438,0.101c0.465,0,0.866-0.318,0.973-0.77s-0.11-0.916-0.526-1.124
		l-0.447,0.894l0.6-0.8l-0.153-0.094l-0.447,0.894l0.6-0.8l-0.6,0.8l0.781-0.625c-0.082-0.1-0.138-0.142-0.181-0.175l-0.6,0.8
		l0.781-0.625l-0.781,0.625l0.914-0.406c-0.045-0.1-0.093-0.168-0.133-0.219l-0.781,0.625l0.914-0.406l-0.914,0.406h1
		c0-0.168-0.042-0.307-0.086-0.406l-0.914,0.406h1c-0.002-0.157-0.027-0.228-0.041-0.283c-0.032-0.103-0.051-0.135-0.065-0.165
		c-0.05-0.095-0.053-0.091-0.064-0.11l-0.03-0.042c-0.021-0.028-0.051-0.067-0.129-0.169l-1.587,1.218
		c0.073,0.096,0.149,0.198,0.228,0.306c0.55,0.746,1.04,1.545,1.479,2.376c0.216,0.409,0.416,0.835,0.606,1.272l1.834-0.798
		l-0.055-0.125l-0.02-0.045l-0.021-0.042l-0.038-0.066l-0.076-0.107l-0.138-0.139c-0.042-0.034-0.096-0.076-0.19-0.123
		c-0.093-0.045-0.233-0.103-0.446-0.105c-0.167,0.003-0.289,0.03-0.447,0.106c-0.079,0.041-0.171,0.093-0.284,0.212
		c-0.106,0.113-0.265,0.336-0.269,0.682c0.001,0.11,0.012,0.15,0.017,0.185c0.024,0.115,0.03,0.114,0.036,0.137l0.029,0.077
		c0.024,0.06,0.062,0.154,0.101,0.246l0.078,0.192c0.091,0.235,0.177,0.479,0.262,0.73c0.306,0.901,0.535,1.835,0.702,2.786
		c0.002,0.009,0.024,0.153,0.041,0.269l0.025,0.165l0.01,0.063l0.007,0.038l0.011,0.05l0.026,0.089l0.067,0.153
		c0.026,0.046,0.057,0.106,0.151,0.209c0.049,0.051,0.115,0.115,0.23,0.182c0.112,0.065,0.287,0.133,0.499,0.133
		c0.304,0.006,0.585-0.16,0.707-0.293c0.124-0.127,0.171-0.226,0.204-0.295c0.057-0.131,0.063-0.189,0.073-0.235
		c0.021-0.138,0.013-0.139,0.016-0.161v-0.017l-0.004-0.095c-0.006-0.065-0.011-0.096-0.025-0.204l-1.983,0.261
		c0.034,0.258,0.061,0.524,0.085,0.798c0.048,0.533,0.067,1.075,0.069,1.624c0.014,1.533,1.245,2.776,2.789,2.785
		c1.534-0.011,2.776-1.239,2.789-2.783h-0.179l0.179,0.001v-0.001h-0.179l0.179,0.001l-0.927-0.003l0.926,0.042l0.001-0.039
		l-0.927-0.003l0.926,0.042l0.001-0.024v-0.025c-0.018-5.209-1.828-10.141-5.032-14.197c-3.06-3.873-7.493-6.618-12.258-7.771
		C46.071,0.203,44.317,0,42.569,0c-3.442,0-6.861,0.786-9.992,2.278c-4.424,2.111-8.089,5.789-10.278,10.145
		c-1.195,2.38-1.901,4.885-2.244,7.487c-0.115,0.873-0.166,1.744-0.166,2.61c0,1.542,0.16,3.067,0.405,4.563
		c0.774,4.727,2.695,9.314,5.298,13.281c2.532,3.853,5.962,7.504,10.372,9.466c2.049,0.909,4.256,1.464,6.55,1.464
		c0.118,0,0.236-0.001,0.354-0.004c2.423-0.061,4.723-0.749,6.83-1.785c4.35-2.145,7.679-5.937,10.136-9.856
		c2.51-4.012,4.302-8.627,4.958-13.352c0.168-1.213,0.287-2.443,0.291-3.703v-0.003v-0.012l-0.713,0.006h0.713v-0.006l-0.713,0.006
		h0.713c-0.012-1.543-1.254-2.772-2.789-2.784c-1.543,0.01-2.776,1.252-2.789,2.786L60.507,22.591l1,0.003
		c0-0.209,0.087-0.406,0.237-0.557c0.15-0.15,0.344-0.235,0.552-0.235c0.204,0,0.402,0.086,0.553,0.236
		c0.151,0.151,0.236,0.345,0.236,0.548v0.011l0.712-0.006h-0.712v0.006l0.712-0.006h-0.712v-0.003
		c-0.003,1.136-0.112,2.276-0.272,3.434c-0.61,4.406-2.3,8.777-4.672,12.565c-2.329,3.727-5.46,7.228-9.323,9.123
		c-1.907,0.938-3.925,1.529-5.998,1.58c-0.102,0.003-0.203,0.004-0.304,0.004c-1.969,0-3.898-0.476-5.739-1.292
		c-3.908-1.728-7.119-5.084-9.511-8.735c-2.463-3.752-4.277-8.099-4.996-12.506c-0.232-1.42-0.379-2.838-0.379-4.24
		c0-0.787,0.046-1.57,0.149-2.348c0.32-2.417,0.965-4.693,2.049-6.852c1.985-3.96,5.357-7.336,9.351-9.237
		C36.304,2.717,39.432,2,42.569,2c1.593,0,3.189,0.185,4.756,0.563c4.336,1.045,8.402,3.57,11.158,7.066
		c2.942,3.73,4.584,8.217,4.602,12.965l1-0.004l-0.999-0.045l-0.001,0.045v0.007c0,0.202-0.085,0.396-0.236,0.547
		c-0.151,0.15-0.35,0.236-0.553,0.236c-0.208,0-0.401-0.086-0.552-0.235c-0.149-0.15-0.237-0.348-0.237-0.557
		c-0.002-0.592-0.023-1.191-0.077-1.795c-0.026-0.287-0.055-0.582-0.094-0.882l-1.983,0.261l0.015,0.118l0.002,0.018l0.558-0.062
		l-0.559,0.051l0.001,0.011l0.558-0.062l-0.559,0.051l0.948-0.086h-0.952l0.004,0.086l0.948-0.086h-0.952h0.986l-0.985-0.034
		l-0.001,0.034h0.986l-0.985-0.034l0.998,0.034l-0.987-0.156l-0.012,0.121l0.998,0.034l-0.987-0.156l0.988,0.156l-0.917-0.398
		c-0.058,0.142-0.061,0.197-0.07,0.242l0.988,0.156l-0.917-0.398l0.917,0.398l-0.707-0.707c-0.132,0.136-0.177,0.238-0.21,0.309
		l0.917,0.398l-0.707-0.707l0.707,0.707v-1c-0.304-0.006-0.585,0.16-0.707,0.293l0.707,0.707v-1v1l0.499-0.867
		c-0.112-0.065-0.287-0.133-0.499-0.133v1l0.499-0.867l-0.499,0.867l0.829-0.559c-0.05-0.065-0.106-0.17-0.33-0.307l-0.499,0.867
		l0.829-0.559l-0.828,0.559l0.937-0.348c-0.017-0.039-0.025-0.081-0.108-0.211l-0.828,0.559l0.937-0.348l-0.93,0.345l0.962-0.24
		l-0.032-0.105l-0.93,0.345l0.962-0.24l-0.842,0.21l0.855-0.152l-0.013-0.059l-0.842,0.21l0.855-0.152c0,0-0.019-0.122-0.035-0.228
		c-0.017-0.115-0.032-0.215-0.044-0.284c-0.182-1.038-0.434-2.072-0.778-3.084c-0.09-0.264-0.185-0.534-0.29-0.808
		c-0.025-0.065-0.07-0.171-0.115-0.283l-0.058-0.141l-0.015-0.036l-0.33,0.129l0.333-0.121l-0.003-0.008l-0.33,0.129l0.333-0.121
		l-0.837,0.306l0.848-0.273l-0.011-0.033l-0.837,0.306l0.848-0.273l-0.931,0.3l0.946-0.246l-0.016-0.053l-0.931,0.3l0.946-0.246
		l-0.963,0.25l0.978-0.184l-0.015-0.067l-0.963,0.25l0.978-0.184l-0.982,0.185h0.999c-0.001-0.11-0.012-0.15-0.017-0.185
		l-0.982,0.185h0.999h-1l0.731,0.682c0.106-0.113,0.265-0.336,0.269-0.682h-1l0.731,0.682l-0.731-0.682l0.334,0.942
		c0.108-0.043,0.226-0.086,0.397-0.26l-0.731-0.682l0.334,0.942l-0.334-0.942v1c0.125-0.001,0.226-0.02,0.334-0.057l-0.334-0.942v1
		v-1l-0.446,0.895c0.093,0.045,0.233,0.103,0.446,0.105v-1l-0.446,0.895l0.446-0.895l-0.724,0.69
		c0.047,0.044,0.097,0.109,0.278,0.205l0.446-0.895l-0.724,0.69l0.722-0.688l-0.836,0.545l0.113,0.143l0.722-0.688l-0.836,0.545
		l0.81-0.528l-0.867,0.428l0.057,0.1l0.81-0.528l-0.867,0.428l0.614-0.304l-0.621,0.29l0.007,0.013l0.614-0.304l-0.621,0.29
		l0.002,0.005l0.049,0.111l1.834-0.798c-0.205-0.47-0.425-0.942-0.671-1.408c-0.479-0.908-1.02-1.791-1.637-2.629
		c-0.079-0.108-0.162-0.22-0.252-0.337l-1.587,1.218l0.093,0.121l0.017,0.023l0.25-0.188l-0.252,0.185l0.002,0.003l0.25-0.188
		l-0.252,0.185l0.734-0.539l-0.746,0.523l0.012,0.016l0.734-0.539l-0.746,0.523l0.808-0.567l-0.831,0.534l0.022,0.033l0.808-0.567
		l-0.831,0.534l0.839-0.539l-0.874,0.481l0.035,0.058l0.839-0.539l-0.874,0.481l0.876-0.482l-0.919,0.393l0.043,0.089l0.876-0.482
		l-0.919,0.393l0.92-0.393l-0.959,0.283l0.039,0.11l0.92-0.393l-0.959,0.283l0.959-0.283h-1c0.002,0.157,0.027,0.228,0.041,0.283
		l0.959-0.283h-1c0,0.168,0.042,0.307,0.086,0.406c0.081,0.175,0.16,0.253,0.215,0.309c0.164,0.149,0.209,0.151,0.252,0.179
		l0.447-0.894v-1v1l0.438-0.899c-0.076-0.031-0.178-0.094-0.438-0.101v1l0.438-0.899l-0.438,0.899l0.64-0.769
		c-0.034-0.025-0.063-0.059-0.202-0.13l-0.438,0.899l0.64-0.769l-0.639,0.768l0.721-0.691l-0.082-0.077l-0.639,0.768l0.721-0.691
		l-0.71,0.68l0.756-0.628l-0.046-0.052l-0.71,0.68l0.756-0.628l-0.543,0.451l0.552-0.441l-0.009-0.01l-0.543,0.451l0.552-0.441
		l-0.076-0.096l-0.097-0.122c-0.173-0.213-0.351-0.429-0.541-0.645c-0.335-0.38-0.685-0.757-1.056-1.122
		c-0.362-0.355-0.739-0.705-1.136-1.041c-0.209-0.177-0.425-0.356-0.652-0.532l-1.228,1.579l0.091,0.072l0.01,0.008l0.489-0.598
		L52.9,9.108l0.018,0.015l0.489-0.598L52.9,9.108l0.636-0.732L52.86,9.071l0.04,0.037l0.636-0.732L52.86,9.071l0.694-0.713
		l-0.759,0.644l0.065,0.07l0.694-0.713l-0.759,0.644l0.762-0.646l-0.846,0.531l0.084,0.115l0.762-0.646l-0.846,0.531l0.846-0.532
		l-0.924,0.382l0.077,0.15l0.846-0.532l-0.924,0.382l0.924-0.382h-1c0.003,0.202,0.048,0.307,0.076,0.382l0.924-0.382h-1
		c0.012,0.337,0.119,0.468,0.168,0.555l0.125,0.152l0.707-0.707v-1v1l0.303-0.953c-0.056-0.015-0.125-0.043-0.303-0.047v1
		l0.303-0.953l-0.302,0.952l0.461-0.886c-0.028-0.013-0.056-0.032-0.158-0.066l-0.302,0.952l0.461-0.886l-0.452,0.869l0.549-0.812
		l-0.097-0.058l-0.452,0.869l0.549-0.812l-0.374,0.553l0.392-0.54l-0.018-0.012l-0.374,0.553l0.392-0.54L53.95,7.4l-0.216-0.161
		c-0.835-0.597-1.714-1.146-2.641-1.619c-0.246-0.126-0.5-0.252-0.764-0.373c-0.063-0.029-0.17-0.075-0.28-0.123L49.91,5.062
		l-0.033-0.015l-0.216,0.468l0.229-0.462l-0.013-0.007l-0.216,0.468l0.229-0.462l-0.415,0.835l0.461-0.811L49.89,5.052l-0.415,0.835
		l0.461-0.811L49.448,5.94l0.574-0.807l-0.085-0.054L49.448,5.94l0.574-0.807l-0.579,0.814l0.705-0.707l-0.126-0.107l-0.579,0.814
		l0.705-0.707l-0.706,0.708l0.843-0.537c-0.06-0.092-0.104-0.136-0.137-0.171l-0.706,0.708l0.843-0.537l-0.843,0.537h1
		c-0.007-0.296-0.103-0.445-0.156-0.537l-0.843,0.537h1h-1l-0.316,0.949c0.054,0.013,0.103,0.045,0.316,0.051V5.949l-0.204,0.977
		c0.036,0.006,0.073,0.019,0.204,0.021V5.949l-0.204,0.977l0.198-0.95l-0.321,0.916c0.019,0.005,0.013,0.009,0.123,0.034l0.198-0.95
		l-0.321,0.916l0.168-0.48l-0.185,0.474l0.017,0.006l0.168-0.48l-0.185,0.474l0.116,0.047l0.76-1.85
		c-0.478-0.196-0.968-0.382-1.474-0.546c-1.143-0.371-2.323-0.656-3.528-0.823l-0.275,1.981l0.141,0.02l0.023,0.003l0.093-0.601
		L44.85,5.716l0.012,0.002l0.093-0.601L44.85,5.716l0.164-0.937l-0.2,0.93l0.037,0.007l0.164-0.937l-0.2,0.93l0.209-0.972
		L44.741,5.69l0.073,0.019l0.209-0.972L44.741,5.69l0.284-0.958L44.608,5.64l0.133,0.05l0.284-0.958L44.608,5.64l0.417-0.909
		l-0.617,0.787c0.105,0.08,0.158,0.101,0.2,0.122l0.417-0.909l-0.617,0.787l0.617-0.787l-0.82,0.572
		c0.082,0.115,0.151,0.173,0.203,0.215l0.617-0.787l-0.82,0.572l0.82-0.572h-1c0.001,0.263,0.101,0.461,0.18,0.572l0.82-0.572h-1h1
		l-0.909-0.417c-0.085,0.189-0.09,0.336-0.091,0.417h1l-0.909-0.417l0.909,0.417l-0.613-0.79c-0.12,0.091-0.234,0.234-0.296,0.373
		l0.909,0.417l-0.613-0.79l0.613,0.79L44.84,3.749c-0.091,0.019-0.245,0.054-0.428,0.193l0.613,0.79L44.84,3.749l0.185,0.982v-1
		c-0.038,0.001-0.09,0-0.185,0.017l0.185,0.982V3.731v0.978l0.085-0.974l-0.085-0.004v0.978l0.085-0.974l-0.057,0.647l0.073-0.645
		L45.11,3.735l-0.057,0.647l0.073-0.645L44.94,3.713l-0.223-0.027c-0.14-0.014-0.287-0.03-0.442-0.042
		c-0.29-0.024-0.588-0.045-0.893-0.057c-0.309-0.012-0.621-0.019-0.934-0.019c-0.288,0-0.578,0.006-0.87,0.019
		c-0.34,0.016-0.687,0.037-1.04,0.07c-0.14,0.014-0.288,0.028-0.441,0.046h0.002l-0.184,0.024L39.83,3.739l-0.023,0.003l0.018,0.137
		l-0.016-0.137h-0.001l0.018,0.137L39.81,3.742l0.101,0.84l-0.088-0.841L39.81,3.742l0.101,0.84l-0.088-0.841l0.101,0.962
		l-0.08-0.964l-0.021,0.002l0.101,0.962l-0.08-0.964l0.082,0.992V3.735l-0.082,0.003l0.082,0.992V3.735
		c-0.083,0.002-0.199,0.005-0.371,0.072c-0.147,0.056-0.346,0.188-0.473,0.393c-0.114,0.177-0.155,0.376-0.155,0.52
		c0.002,0.257,0.068,0.376,0.104,0.458c0.061,0.118,0.099,0.16,0.128,0.196l0.062,0.067c0.286,0.286,0.716,0.372,1.09,0.217
		s0.617-0.519,0.617-0.924h-1l0.845,0.535c0.072-0.112,0.155-0.298,0.155-0.535h-1l0.845,0.535l-0.845-0.535l0.529,0.849
		c0.063-0.047,0.164-0.091,0.316-0.314l-0.845-0.535l0.529,0.849l-0.529-0.849l0.33,0.944c0.036-0.015,0.074-0.021,0.199-0.095
		l-0.529-0.849l0.33,0.944l-0.329-0.943l0.233,0.971l0.096-0.028l-0.329-0.943l0.233,0.971l-0.229-0.953l0.169,0.966l0.06-0.012
		l-0.229-0.953l0.169,0.966l-0.113-0.646l0.102,0.647l0.011-0.002l-0.113-0.646l0.102,0.647c0.007-0.001,0.07-0.011,0.192-0.028
		l-0.29-1.979c-0.571,0.084-1.146,0.186-1.722,0.321C37.664,4.177,37.06,4.34,36.46,4.539c-0.265,0.088-0.536,0.181-0.81,0.285
		c-0.127,0.048-0.261,0.099-0.4,0.155l0.004-0.002l-0.168,0.07L35.01,5.08l-0.02,0.008l0.132,0.317l-0.128-0.318L34.99,5.088
		l0.132,0.317l-0.128-0.318l0.337,0.84L35.012,5.08l-0.018,0.007l0.337,0.84L35.012,5.08l0.347,0.921l-0.313-0.933L35.012,5.08
		l0.347,0.921l-0.313-0.933l0.317,0.946l-0.265-0.962l-0.053,0.016l0.317,0.946l-0.265-0.962l0.265,0.964l-0.198-0.98l-0.067,0.016
		l0.265,0.964l-0.198-0.98l0.198,0.98v-1C35.24,5.018,35.2,5.03,35.164,5.036l0.198,0.98v-1c-0.263,0-0.521,0.107-0.707,0.293
		s-0.293,0.444-0.293,0.707c0,0.263,0.107,0.521,0.293,0.707s0.444,0.293,0.707,0.293v-1l-0.555,0.832
		c0.087,0.049,0.217,0.156,0.555,0.168v-1l-0.555,0.832l0.555-0.832l-0.707,0.707l0.152,0.125l0.555-0.832l-0.707,0.707
		c0.286,0.286,0.716,0.372,1.09,0.217s0.617-0.519,0.617-0.924h-1l0.812,0.583c0.054-0.089,0.175-0.231,0.188-0.583h-1l0.812,0.583
		l-0.812-0.583l0.601,0.799c0.038-0.035,0.086-0.052,0.211-0.216l-0.812-0.583l0.601,0.799l-0.601-0.798l0.494,0.868l0.107-0.07
		l-0.601-0.798l0.494,0.868l-0.487-0.856l0.421,0.89l0.066-0.034l-0.487-0.856l0.421,0.89l-0.305-0.645l0.292,0.651l0.013-0.006
		l-0.305-0.645l0.292,0.651c0.004-0.002,0.062-0.027,0.17-0.074l-0.798-1.834c-1.074,0.468-2.12,1.019-3.111,1.669
		c-0.269,0.176-0.541,0.36-0.812,0.557c-0.108,0.078-0.222,0.161-0.34,0.25l-0.077,0.058l-0.006,0.004l0.283,0.388l-0.273-0.395
		l-0.01,0.007l0.283,0.388l-0.273-0.395l0.526,0.763l-0.491-0.786l-0.036,0.023l0.526,0.763l-0.491-0.786l0.523,0.839l-0.459-0.876
		l-0.064,0.037l0.523,0.839l-0.459-0.876l0.463,0.884l-0.368-0.927l-0.095,0.044l0.463,0.884l-0.368-0.927l0.369,0.929L31.117,7.41
		l-0.111,0.037l0.369,0.929l-0.258-0.965l0.259,0.966v-1c-0.136,0.002-0.205,0.021-0.259,0.034l0.259,0.966v-1l0,0v1l0.592-0.806
		c-0.18-0.138-0.429-0.199-0.592-0.194v1l0.592-0.806L31.38,8.374l0.892-0.452c-0.05-0.099-0.141-0.237-0.3-0.354L31.38,8.374
		l0.892-0.452L31.38,8.374l0.991-0.135c-0.011-0.056-0.014-0.14-0.099-0.317L31.38,8.374l0.991-0.135L31.38,8.374l1-0.017
		l-0.009-0.118L31.38,8.374l1-0.017l-1,0.017h1V8.357l-1,0.017h1h-1l0.933,0.361c0.027-0.074,0.065-0.177,0.067-0.361h-1
		l0.933,0.361l-0.932-0.36l0.809,0.587c0.027-0.041,0.066-0.085,0.123-0.227l-0.932-0.36l0.809,0.587l-0.807-0.586l0.716,0.694
		l0.091-0.108l-0.807-0.586l0.716,0.694l-0.687-0.665l0.62,0.728l0.067-0.063l-0.687-0.665l0.62,0.728l-0.4-0.47l0.391,0.478
		l0.009-0.008l-0.4-0.47l0.391,0.478l0.067-0.053l0.035-0.027l-0.044-0.058l0.042,0.059l0.001-0.001L32.08,9.003l0.042,0.059
		l-0.502-0.69l0.48,0.706l0.024-0.017l-0.502-0.69L32.1,9.078l-0.546-0.81l0.497,0.841L32.1,9.078l-0.546-0.81l0.497,0.841
		l-0.507-0.857l0.426,0.9l0.08-0.043l-0.507-0.857l0.426,0.9l-0.428-0.903l0.321,0.946l0.107-0.043l-0.428-0.903l0.321,0.946
		l-0.321-0.947v1c0.195-0.005,0.263-0.037,0.321-0.053l-0.321-0.947v1v-1l-0.526,0.85c0.091,0.045,0.196,0.136,0.526,0.15v-1
		l-0.526,0.85l0.526-0.85l-0.776,0.63c0.072,0.085,0.126,0.14,0.25,0.22l0.526-0.85l-0.776,0.63l0.776-0.63L30.65,8.7l0.115,0.178
		l0.776-0.63L30.65,8.7l0.892-0.453h-1c0.006,0.25,0.069,0.366,0.108,0.453l0.892-0.453h-1h1l-0.883-0.469
		c-0.031,0.076-0.105,0.169-0.117,0.469h1l-0.883-0.469l0.882,0.468l-0.755-0.654c-0.024,0.031-0.053,0.054-0.127,0.185l0.882,0.468
		l-0.755-0.654l0.747,0.647l-0.68-0.718l-0.068,0.071l0.747,0.647l-0.68-0.718l0.553,0.583L30.89,7.49l-0.037,0.033l0.553,0.583
		L30.89,7.49l-0.082,0.066c-0.432,0.346-0.86,0.71-1.273,1.099c-0.437,0.412-0.866,0.843-1.274,1.301
		c-0.182,0.204-0.367,0.415-0.549,0.637c-0.085,0.103-0.174,0.211-0.265,0.327l-0.061,0.076l-0.005,0.006l0.39,0.32l-0.381-0.33
		l-0.009,0.01l0.39,0.32l-0.381-0.33l0.707,0.612l-0.675-0.646l-0.031,0.034l0.707,0.612l-0.675-0.646l0.716,0.685l-0.654-0.744
		l-0.062,0.059l0.716,0.685l-0.654-0.744l0.659,0.75l-0.553-0.831l-0.106,0.081l0.659,0.75l-0.553-0.831l0.554,0.832l-0.409-0.912
		l-0.145,0.08l0.554,0.832l-0.409-0.912l0.409,0.912v-1c-0.229,0.005-0.334,0.058-0.409,0.087l0.409,0.912v-1l0,0v1l0.456-0.89
		c-0.178-0.091-0.348-0.111-0.456-0.11v1l0.456-0.89l-0.456,0.89l0.793-0.609c-0.081-0.107-0.204-0.214-0.337-0.28l-0.456,0.89
		l0.793-0.609l-0.793,0.609l0.978-0.207c-0.021-0.095-0.062-0.239-0.185-0.402l-0.793,0.609l0.978-0.207l-0.978,0.207h1
		c0-0.047-0.002-0.109-0.022-0.207l-0.978,0.207h1h-1l0.944,0.329c0.016-0.058,0.05-0.123,0.056-0.329h-1l0.944,0.329l-0.942-0.329
		l0.874,0.481c0.013-0.027,0.031-0.051,0.068-0.152l-0.942-0.329l0.874,0.481l-0.842-0.463l0.788,0.549l0.053-0.086l-0.842-0.463
		l0.788,0.549l-0.523-0.364l0.516,0.375l0.007-0.01l-0.523-0.364l0.516,0.375l0.051-0.067l0.027-0.035l-0.063-0.05l0.062,0.051
		l0.001-0.001l-0.063-0.05l0.062,0.051l-0.666-0.546l0.646,0.57l0.02-0.023l-0.666-0.546l0.646,0.57l-0.734-0.648l0.691,0.694
		l0.044-0.046l-0.734-0.648l0.691,0.694l-0.703-0.706l0.622,0.778l0.08-0.072l-0.703-0.706l0.622,0.778l-0.624-0.781l0.498,0.867
		l0.126-0.086l-0.624-0.781l0.498,0.867l-0.498-0.867l0.345,0.938l0.153-0.072l-0.498-0.867l0.345,0.938l-0.345-0.939v1
		c0.17-0.002,0.272-0.036,0.345-0.061l-0.345-0.939v1v-1l-0.707,0.707l0.707-0.707l-0.78,0.624l0.074,0.082l0.707-0.707l-0.78,0.624
		l0.781-0.625l-0.868,0.496l0.087,0.129l0.781-0.625l-0.868,0.496l0.868-0.496h-1c0.014,0.329,0.099,0.419,0.132,0.496l0.868-0.496
		h-1h1l-0.952-0.306c-0.015,0.056-0.044,0.124-0.048,0.306h1l-0.952-0.306l0.95,0.305l-0.885-0.461
		c-0.013,0.028-0.031,0.055-0.065,0.156l0.95,0.305l-0.885-0.461l0.862,0.448l-0.806-0.542l-0.056,0.094l0.862,0.448l-0.806-0.542
		h0.001l-0.001-0.001l0,0h0.001l-0.001-0.001L27.386,11c-0.698,0.935-1.331,1.928-1.869,2.98c-0.147,0.289-0.294,0.585-0.433,0.893
		c-0.056,0.124-0.114,0.253-0.173,0.39l1.84,0.785l0.061-0.144l0.012-0.028v-0.001l-0.792-0.351l0.787,0.362l0.005-0.012
		l-0.792-0.351l0.787,0.362l-0.891-0.41l0.879,0.436l0.012-0.025l-0.891-0.41l0.879,0.436l-0.894-0.443l0.869,0.491l0.026-0.048
		l-0.894-0.443l0.869,0.491l-0.87-0.492l0.817,0.576l0.053-0.084l-0.87-0.492l0.817,0.576l-0.817-0.577l0.712,0.702l0.105-0.126
		l-0.817-0.577l0.712,0.702l-0.712-0.702l0.543,0.84c0.091-0.06,0.135-0.104,0.169-0.138l-0.712-0.702l0.543,0.84l-0.543-0.84v1
		c0.303-0.007,0.451-0.107,0.543-0.16l-0.543-0.84v1v-1l-0.196,0.98c0.144,0.026,0.189,0.017,0.196,0.019v-1l-0.196,0.98
		l0.196-0.981l-0.569,0.822c0.186,0.123,0.298,0.14,0.373,0.158l0.196-0.981l-0.569,0.822l0.569-0.822l-0.861,0.509
		c0.089,0.15,0.2,0.25,0.291,0.313l0.569-0.822l-0.861,0.509l0.861-0.509h-1c-0.002,0.166,0.049,0.361,0.139,0.509l0.861-0.509h-1h1
		l-0.977-0.215c-0.006,0.037-0.02,0.07-0.023,0.215h1l-0.977-0.215l0.974,0.214l-0.939-0.335c-0.006,0.02-0.008,0.011-0.035,0.121
		l0.974,0.214l-0.939-0.335l0.847,0.302l-0.833-0.337l-0.013,0.035l0.847,0.302l-0.833-0.337l-0.047,0.113l-0.062,0.152
		c-0.208,0.526-0.402,1.066-0.569,1.621c-0.179,0.593-0.339,1.2-0.466,1.821c-0.057,0.279-0.113,0.566-0.16,0.861
		c-0.022,0.137-0.046,0.282-0.067,0.435l1.981,0.275l0.022-0.161l0.005-0.032v-0.002l-0.837-0.127l0.835,0.138l0.002-0.011
		l-0.837-0.127l0.835,0.138l-0.969-0.16l0.964,0.185l0.004-0.025l-0.969-0.16l0.964,0.185l-0.98-0.188l0.969,0.238l0.011-0.05
		l-0.98-0.188l0.969,0.238l-0.971-0.238l0.943,0.333l0.028-0.095l-0.971-0.238l0.943,0.333l-0.943-0.333l0.869,0.494
		c0.051-0.092,0.061-0.13,0.074-0.161l-0.943-0.333l0.869,0.494l-0.869-0.494l0.707,0.707c0.099-0.102,0.133-0.165,0.162-0.213
		l-0.869-0.494l0.707,0.707l-0.707-0.707l0.473,0.881c0.113-0.062,0.183-0.124,0.234-0.174l-0.707-0.707l0.473,0.881l-0.473-0.881v1
		c0.196,0,0.362-0.059,0.473-0.119l-0.473-0.881v1v-1l-0.356,0.934c0.096,0.034,0.192,0.063,0.356,0.065v-1l-0.356,0.934
		l0.356-0.934l-0.757,0.653c0.133,0.151,0.263,0.227,0.401,0.281l0.356-0.934l-0.757,0.653l0.757-0.653h-1
		c-0.004,0.255,0.112,0.508,0.243,0.653l0.757-0.653h-1h0.996l-0.992-0.086l-0.004,0.086h0.996l-0.992-0.086l0.011,0.001
		l-0.012-0.002l0.001,0.001l0.011,0.001l-0.012-0.002l-0.034,0.268c-0.088,0.798-0.135,1.603-0.135,2.41
		c0,0.373,0.01,0.746,0.03,1.119c0.03,0.56,0.077,1.123,0.147,1.687v-0.001l0.023,0.175l0.011,0.079l0.003,0.024l0.001,0.004
		l0.622-0.085l-0.622,0.082V25.7l0.622-0.085l-0.622,0.082l0.938-0.123l-0.939,0.115l0.001,0.008l0.938-0.123l-0.939,0.115
		l0.984-0.12l-0.986,0.106l0.002,0.014l0.984-0.12l-0.986,0.106l0.991-0.106l-0.993,0.086l0.002,0.021l0.991-0.106l-0.993,0.086
		l0.996-0.086h-1l0.004,0.086l0.996-0.086h-1c0,0.158,0.035,0.306,0.106,0.447l0,0l0.894-0.447v-1v1l0.513-0.859
		c-0.112-0.068-0.291-0.141-0.513-0.141v1l0.513-0.859l-0.513,0.859l0.837-0.547c-0.049-0.064-0.1-0.168-0.325-0.312l-0.513,0.859
		l0.837-0.547l-0.837,0.547l0.941-0.339c-0.016-0.038-0.023-0.078-0.103-0.207l-0.837,0.547l0.941-0.339l-0.941,0.339l0.972-0.237
		l-0.031-0.102l-0.941,0.339l0.972-0.237l-0.97,0.237l0.984-0.171l-0.014-0.065l-0.97,0.237l0.984-0.171l-0.932,0.162l0.936-0.141
		L25.658,25.4l-0.932,0.162l0.936-0.141c0,0-0.01-0.07-0.033-0.232l-1.98,0.285c0.018,0.127,0.037,0.258,0.059,0.395
		c0.041,0.261,0.085,0.526,0.136,0.794c0.429,2.285,1.112,4.519,2.013,6.656l1.843-0.777l-0.051-0.122l-0.009-0.021l-0.492,0.2
		l0.495-0.193l-0.003-0.008l-0.492,0.2l0.495-0.193l-0.87,0.338l0.88-0.313l-0.009-0.025l-0.87,0.338l0.88-0.313l-0.931,0.332
		l0.946-0.288l-0.014-0.043l-0.931,0.332l0.946-0.288l-0.954,0.291l0.97-0.23l-0.017-0.061l-0.954,0.291l0.97-0.23l-0.973,0.23h1
		c-0.004-0.165-0.021-0.191-0.027-0.23l-0.973,0.23h1c0-0.263-0.107-0.521-0.293-0.707c-0.186-0.186-0.444-0.293-0.707-0.293
		s-0.521,0.107-0.707,0.293c-0.186,0.186-0.293,0.444-0.293,0.707c0.005,0.083-0.006,0.206,0.106,0.447
		c0.058,0.117,0.166,0.27,0.34,0.385c0.171,0.117,0.39,0.171,0.555,0.168v-1l-0.563,0.826c0.09,0.054,0.237,0.164,0.563,0.174v-1
		l-0.563,0.826l0.563-0.826l-0.791,0.612c0.036,0.039,0.058,0.091,0.228,0.214l0.563-0.826l-0.791,0.612l0.79-0.612l-0.866,0.499
		l0.076,0.113l0.79-0.612l-0.866,0.499l0.847-0.488L25.8,33.2l0.037,0.07l0.847-0.488L25.8,33.2l0.546-0.258l-0.551,0.246L25.8,33.2
		l0.546-0.258l-0.551,0.246l0.074,0.171l0.083,0.191c0.056,0.126,0.114,0.256,0.175,0.39c0.118,0.256,0.239,0.515,0.366,0.776
		c0.25,0.51,0.511,1.02,0.79,1.524c0.571,1.035,1.192,2.049,1.878,3.027c0.187,0.266,0.379,0.535,0.579,0.803
		c0.082,0.109,0.166,0.222,0.255,0.337l1.583-1.222l-0.091-0.118l-0.016-0.021l-0.344,0.26l0.348-0.255l-0.004-0.005l-0.344,0.26
		l0.348-0.255l-0.746,0.548l0.76-0.528l-0.014-0.02l-0.746,0.548l0.76-0.528l-0.812,0.564l0.838-0.525l-0.025-0.04l-0.812,0.564
		l0.838-0.525l-0.846,0.53l0.884-0.463l-0.038-0.067l-0.846,0.53l0.884-0.463l-0.886,0.464l0.93-0.367l-0.044-0.097l-0.886,0.464
		l0.93-0.367l-0.93,0.367h1c-0.01-0.255-0.053-0.307-0.07-0.367l-0.93,0.367h1c0-0.263-0.107-0.521-0.293-0.707
		c-0.186-0.186-0.444-0.293-0.707-0.293s-0.521,0.107-0.707,0.293s-0.293,0.444-0.293,0.707c0.005,0.083-0.006,0.206,0.106,0.447
		c0.058,0.117,0.166,0.27,0.34,0.385c0.171,0.117,0.39,0.171,0.555,0.168v-1l-0.413,0.911c0.075,0.03,0.18,0.084,0.413,0.089v-1
		l-0.413,0.911l0.413-0.911l-0.623,0.782c0.036,0.026,0.07,0.061,0.21,0.129l0.413-0.911l-0.623,0.782l0.623-0.782l-0.713,0.701
		l0.09,0.081l0.623-0.782l-0.713,0.701l0.702-0.69l-0.753,0.634l0.051,0.056l0.702-0.69l-0.753,0.634l0.558-0.47l-0.568,0.458
		l0.01,0.012l0.558-0.47l-0.568,0.458l0.076,0.096l0.093,0.118c0.346,0.431,0.704,0.859,1.082,1.277
		c0.758,0.837,1.569,1.643,2.45,2.381c0.133,0.111,0.27,0.226,0.416,0.341l0.137,0.106l0.062,0.048l0.017,0.013l0.112-0.144
		l-0.113,0.143l0.001,0.001l0.112-0.144l-0.113,0.143l0.554-0.702l-0.565,0.692l0.012,0.009l0.554-0.702l-0.565,0.692l0.623-0.763
		l-0.647,0.742l0.024,0.02l0.623-0.763l-0.647,0.742l0.656-0.752l-0.699,0.712l0.043,0.04l0.656-0.752l-0.699,0.712l0.7-0.713
		l-0.769,0.639l0.068,0.074l0.7-0.713l-0.769,0.639l0.769-0.639l-0.854,0.52l0.085,0.12l0.769-0.639l-0.854,0.52l0.854-0.52
		l-0.93,0.368l0.075,0.152l0.854-0.52l-0.93,0.368l0.93-0.368h-1c0.003,0.189,0.043,0.293,0.07,0.368l0.93-0.368h-1
		c0,0.158,0.035,0.306,0.106,0.447l0,0l0.894-0.447v-1v1l0.322-0.947c-0.057-0.015-0.122-0.048-0.322-0.053v1l0.322-0.947
		l-0.322,0.947l0.474-0.88c-0.027-0.013-0.051-0.03-0.152-0.066l-0.322,0.947l0.474-0.88l-0.473,0.878l0.563-0.824l-0.09-0.055
		l-0.473,0.878l0.563-0.824l-0.497,0.727l0.523-0.708l-0.026-0.019l-0.497,0.727l0.523-0.708c-0.001-0.001-0.055-0.041-0.16-0.121
		l-1.206,1.595c0.207,0.156,0.42,0.315,0.644,0.471c0.425,0.296,0.866,0.585,1.329,0.853c0.479,0.277,0.976,0.543,1.498,0.779
		c0.11,0.05,0.228,0.103,0.354,0.157l0.781-1.841l-0.171-0.073l-0.031-0.013l-0.147,0.335l0.152-0.333l-0.005-0.002l-0.147,0.335
		l0.152-0.333l-0.382,0.84l0.407-0.828l-0.025-0.012l-0.382,0.84l0.407-0.828l-0.437,0.889l0.487-0.862l-0.05-0.027l-0.437,0.889
		l0.487-0.862l-0.491,0.87l0.579-0.814l-0.088-0.056l-0.491,0.87l0.579-0.814l-0.579,0.815l0.709-0.705l-0.129-0.11l-0.579,0.815
		l0.709-0.705l-0.709,0.705l0.847-0.532c-0.059-0.093-0.104-0.138-0.138-0.174l-0.709,0.705l0.847-0.532l-0.847,0.532h1
		c-0.006-0.289-0.099-0.439-0.153-0.532l-0.847,0.532h1h-1l-0.707,0.707l0.152,0.125c0.087,0.049,0.217,0.156,0.555,0.168v-1
		l-0.232,0.972c0.039,0.006,0.061,0.022,0.232,0.027v-1l-0.232,0.972l0.23-0.964l-0.338,0.932c0.018,0.005,0.006,0.006,0.108,0.032
		l0.23-0.964l-0.338,0.932l0.004-0.012l-0.005,0.012h0.001l0.004-0.012l-0.005,0.012l0.222,0.09
		c0.231,0.089,0.472,0.179,0.724,0.262c0.517,0.17,1.052,0.321,1.607,0.433c0.242,0.049,0.494,0.097,0.758,0.134l0.285-1.98
		l-0.151-0.022l-0.015-0.002h-0.002l-0.119,0.697l0.145-0.692l-0.026-0.005l-0.119,0.697l0.145-0.692l-0.198,0.944l0.268-0.926
		l-0.07-0.017l-0.198,0.944l0.268-0.926l-0.277,0.956l0.407-0.908l-0.131-0.048l-0.277,0.956l0.407-0.908l-0.409,0.912l0.608-0.793
		c-0.105-0.078-0.158-0.099-0.199-0.119l-0.409,0.912l0.608-0.793l-0.608,0.794l0.814-0.58c-0.084-0.116-0.154-0.172-0.206-0.213
		l-0.608,0.794l0.814-0.58l-0.814,0.58h1c-0.001-0.269-0.105-0.469-0.186-0.58l-0.814,0.58h1h-1l0.852,0.524
		c0.09-0.142,0.151-0.342,0.148-0.524h-1l0.852,0.524l-0.852-0.524l0.399,0.917c0.097-0.047,0.277-0.122,0.453-0.393l-0.852-0.524
		l0.399,0.917l-0.399-0.917l0.114,0.993c0.048-0.009,0.106-0.004,0.284-0.076l-0.399-0.917l0.114,0.993l-0.113-0.985v0.991
		c0.007-0.002-0.006,0.004,0.113-0.007l-0.113-0.985v0.991v-0.895l-0.079,0.892l0.079,0.003v-0.895l-0.079,0.892h0.001
		c0.031,0.003,0.148,0.017,0.257,0.03c0.117,0.013,0.212,0.025,0.305,0.033c0.347,0.026,0.699,0.041,1.055,0.041
		c0.209,0,0.419-0.005,0.63-0.017c0.248-0.014,0.506-0.031,0.772-0.062l0.186-0.025l0.077-0.011l0.025-0.004l0.01-0.002l0.009-0.001
		l0.015-0.003l0.029-0.006l0.057-0.014l0.105-0.035c0.034-0.015,0.076-0.029,0.172-0.089c0.049-0.033,0.114-0.075,0.209-0.181
		l-0.752-0.659l0,0h-1c0.012,0.337,0.119,0.468,0.168,0.555l0.125,0.152l0.707-0.707v-1l-0.098,0.005l-0.038,0.004
		c-0.032,0.005-0.084,0.012-0.277,0.042l0.303,1.977c0.118-0.018,0.244-0.037,0.379-0.062c0.539-0.099,1.08-0.224,1.618-0.39
		c0.237-0.073,0.481-0.152,0.729-0.243c0.113-0.041,0.233-0.086,0.36-0.136l0.16-0.066l0.067-0.028l0.015-0.006l-0.211-0.518
		l0.203,0.521l0.008-0.003l-0.211-0.518l0.203,0.521l-0.339-0.87l0.316,0.879l0.024-0.009l-0.339-0.87l0.316,0.879l-0.334-0.93
		l0.293,0.944l0.042-0.014l-0.334-0.93l0.293,0.944l-0.295-0.953l0.236,0.969l0.06-0.016l-0.295-0.953l0.236,0.969l-0.236-0.971v1
		c0.174-0.005,0.197-0.022,0.236-0.028l-0.236-0.971v1v-1l-0.447,0.894l0.447-0.894l-0.6,0.8l0.153,0.094l0.447-0.894l-0.6,0.8
		l0.6-0.8l-0.781,0.625c0.082,0.1,0.138,0.142,0.181,0.175l0.6-0.8l-0.781,0.625l0.781-0.625l-0.914,0.406
		c0.045,0.1,0.093,0.168,0.133,0.219l0.781-0.625l-0.914,0.406l0.914-0.406h-1c0,0.168,0.042,0.307,0.086,0.406l0.914-0.406h-1h1
		l-0.849-0.528c-0.053,0.092-0.145,0.241-0.151,0.528h1l-0.849-0.528l0.849,0.528l-0.635-0.772
		c-0.041,0.039-0.098,0.069-0.214,0.244l0.849,0.528l-0.635-0.772l0.634,0.772l-0.513-0.858l-0.122,0.086l0.634,0.772l-0.513-0.858
		l0.505,0.846l-0.426-0.888l-0.079,0.042l0.505,0.846l-0.426-0.888l0.314,0.655l-0.299-0.662l-0.016,0.007l0.314,0.655l-0.299-0.662
		c-0.004,0.002-0.072,0.032-0.201,0.088l0.796,1.835c0.996-0.432,1.951-0.956,2.851-1.565c0.251-0.17,0.505-0.347,0.758-0.535
		l0.002-0.001l0.134-0.103l0.061-0.047L50.9,44.53l-0.28-0.369l0.275,0.373L50.9,44.53l-0.28-0.369l0.275,0.373l-0.55-0.746
		l0.532,0.759l0.018-0.013l-0.55-0.746l0.532,0.759l-0.567-0.81l0.53,0.834l0.037-0.024l-0.567-0.81l0.53,0.834l-0.536-0.842
		l0.472,0.879l0.063-0.037l-0.536-0.842l0.472,0.879l-0.473-0.881l0.379,0.925l0.094-0.044l-0.473-0.881l0.379,0.925l-0.379-0.925
		l0.268,0.963l0.111-0.038l-0.379-0.925l0.268,0.963l-0.268-0.963v1c0.143-0.002,0.213-0.023,0.268-0.037l-0.268-0.963v1v-1
		l-0.447,0.894l0.447-0.894l-0.6,0.8l0.153,0.094l0.447-0.894l-0.6,0.8l0.6-0.8l-0.781,0.625c0.082,0.1,0.138,0.142,0.181,0.175
		l0.6-0.8l-0.781,0.625l0.781-0.625l-0.914,0.406c0.045,0.1,0.093,0.168,0.133,0.219l0.781-0.625l-0.914,0.406l0.914-0.406h-1
		c0,0.168,0.042,0.307,0.086,0.406l0.914-0.406h-1h1L49.399,43.3c-0.031,0.076-0.089,0.178-0.096,0.427h1L49.399,43.3l0.904,0.427
		l-0.776-0.631c-0.025,0.035-0.06,0.066-0.129,0.204l0.904,0.427l-0.776-0.631l0.775,0.63l-0.697-0.715l-0.078,0.085l0.775,0.63
		l-0.697-0.715l0.686,0.704l-0.633-0.752l-0.053,0.048l0.686,0.704l-0.633-0.752l0.451,0.537l-0.441-0.546l-0.011,0.009l0.451,0.537
		l-0.441-0.546c-0.004,0.003-0.056,0.044-0.155,0.122l1.237,1.572c0.1-0.079,0.206-0.162,0.314-0.25
		c0.415-0.339,0.825-0.693,1.222-1.067c0.837-0.788,1.626-1.63,2.355-2.521c0.115-0.141,0.233-0.286,0.352-0.436l0.065-0.082
		l0.006-0.007l-0.614-0.507l0.6,0.524l0.015-0.017l-0.614-0.507l0.6,0.524l-0.733-0.641l0.698,0.678l0.035-0.037l-0.733-0.641
		l0.698,0.678L54.3,39.645l0.649,0.755l0.065-0.062L54.3,39.644l0.649,0.755L54.3,39.642l0.542,0.84l0.109-0.082L54.3,39.642
		l0.542,0.84l-0.542-0.84l0.396,0.918l0.146-0.078l-0.542-0.84l0.396,0.918L54.3,39.642v1c0.216-0.004,0.321-0.053,0.396-0.082
		L54.3,39.642v1v-1l-0.316,0.949c0.05,0.016,0.149,0.05,0.316,0.051v-1l-0.316,0.949l0.316-0.949l-0.353,0.936l0.037,0.013
		l0.316-0.949l-0.353,0.936l0.001,0.001l0.113,0.035c0.055,0.013,0.138,0.032,0.278,0.028c0.103-0.004,0.246-0.026,0.399-0.1
		c0.236-0.107,0.426-0.347,0.489-0.523c0.07-0.179,0.072-0.297,0.074-0.377c0-0.263-0.107-0.521-0.293-0.707
		s-0.444-0.293-0.707-0.293s-0.521,0.107-0.707,0.293s-0.293,0.444-0.293,0.707h1l-0.966-0.259
		c-0.013,0.054-0.033,0.123-0.034,0.259h1l-0.966-0.259l0.965,0.259l-0.871-0.489c-0.016,0.038-0.036,0.043-0.094,0.231l0.965,0.259
		l-0.871-0.489l0.857,0.481l-0.815-0.55l-0.042,0.069l0.857,0.481l-0.815-0.55l0.695,0.469l-0.679-0.493l-0.016,0.023l0.695,0.469
		l-0.679-0.493l0.182,0.132l-0.181-0.134l-0.001,0.002l0.182,0.132l-0.181-0.134l-0.056,0.074l-0.028,0.036l-0.002,0.003
		l0.632,0.508l-0.619-0.524l-0.013,0.015l0.632,0.508l-0.619-0.524l0.744,0.629l-0.714-0.662l-0.029,0.033l0.744,0.629l-0.714-0.662
		l0.73,0.677L53.5,39.066l-0.057,0.057l0.73,0.677L53.5,39.066l0.676,0.736l-0.577-0.816l-0.099,0.08l0.676,0.736l-0.577-0.816
		l0.577,0.816l-0.436-0.9l-0.141,0.083l0.577,0.816l-0.436-0.9l0.436,0.9v-1c-0.255,0.007-0.359,0.068-0.436,0.1l0.436,0.9v-1
		c-0.263,0-0.521,0.107-0.707,0.293s-0.293,0.444-0.293,0.707s0.107,0.521,0.293,0.707s0.444,0.293,0.707,0.293v-1l-0.555,0.832
		c0.087,0.049,0.217,0.156,0.555,0.168v-1l-0.555,0.832l0.555-0.832l-0.707,0.707l0.152,0.125l0.555-0.832l-0.707,0.707
		c0.286,0.286,0.716,0.372,1.09,0.217s0.617-0.519,0.617-0.924h-1l0.959,0.283c0.014-0.055,0.038-0.125,0.041-0.283h-1l0.959,0.283
		l-0.959-0.283l0.894,0.446c0.014-0.03,0.033-0.062,0.064-0.164L54.175,39.8l0.894,0.446l-0.889-0.444l0.826,0.551
		c0.01-0.018,0.013-0.014,0.063-0.108l-0.889-0.444l0.826,0.551l-0.739-0.493l0.72,0.52l0.018-0.026l-0.739-0.493l0.72,0.52
		l0.001-0.001l0.069-0.092c0.168-0.222,0.337-0.448,0.503-0.681c0.328-0.459,0.649-0.928,0.956-1.409
		c0.639-1.001,1.232-2.036,1.766-3.104c0.275-0.55,0.541-1.11,0.79-1.681l0.067-0.158l0.033-0.077l0.009-0.02l-0.322-0.14
		l0.321,0.144l0.002-0.004l-0.322-0.14l0.321,0.144l-0.834-0.375l0.825,0.394l0.009-0.019l-0.834-0.375l0.825,0.394l-0.893-0.426
		l0.873,0.466l0.02-0.04l-0.893-0.426l0.873,0.466l-0.881-0.47l0.838,0.542l0.042-0.072l-0.881-0.47l0.838,0.542l-0.839-0.543
		l0.753,0.657l0.086-0.114l-0.839-0.543l0.753,0.657l-0.753-0.657l0.603,0.798l0.151-0.141l-0.753-0.657l0.603,0.798l-0.603-0.798
		l0.41,0.912c0.092-0.042,0.149-0.082,0.193-0.114l-0.603-0.798l0.41,0.912l-0.41-0.912v1c0.187-0.001,0.318-0.048,0.41-0.088
		l-0.41-0.912v1v-1l-0.447,0.894l0.447-0.894l-0.6,0.8l0.153,0.094l0.447-0.894l-0.6,0.8l0.6-0.8l-0.781,0.625
		c0.082,0.1,0.138,0.142,0.181,0.175l0.6-0.8l-0.781,0.625l0.781-0.625l-0.914,0.406c0.045,0.1,0.093,0.168,0.133,0.219l0.781-0.625
		l-0.914,0.406l0.914-0.406h-1c0,0.168,0.042,0.307,0.086,0.406l0.914-0.406h-1h1l-0.982-0.187
		c-0.005,0.035-0.016,0.075-0.018,0.187h1l-0.982-0.187l0.98,0.187l-0.945-0.32c-0.006,0.022-0.011,0.02-0.035,0.133l0.98,0.187
		l-0.945-0.32l0.872,0.295l-0.856-0.34l-0.016,0.045l0.872,0.295l-0.856-0.34l-0.003,0.008l-0.064,0.155l1.846,0.769
		c0.053-0.128,0.108-0.259,0.162-0.394c0.104-0.26,0.209-0.524,0.31-0.794c0.407-1.087,0.769-2.199,1.063-3.335
		c0.281-1.087,0.515-2.196,0.671-3.324l-1.981-0.275l-0.024,0.17L59.316,25.4l0.097,0.014l-0.097-0.015V25.4l0.097,0.014
		l-0.097-0.015l0.88,0.138l-0.877-0.155L59.316,25.4l0.88,0.138l-0.877-0.155l0.972,0.172l-0.965-0.211l-0.008,0.039l0.972,0.172
		l-0.965-0.211l0.975,0.213l-0.956-0.288l-0.02,0.075l0.975,0.213l-0.956-0.288l0.957,0.289l-0.905-0.424l-0.052,0.135l0.957,0.289
		l-0.905-0.424l0.906,0.424l-0.78-0.625c-0.082,0.105-0.104,0.159-0.125,0.201l0.906,0.424l-0.78-0.625l0.78,0.625l-0.563-0.826
		c-0.116,0.08-0.174,0.149-0.217,0.201l0.78,0.625l-0.563-0.826l0.563,0.826v-1c-0.256,0-0.451,0.096-0.563,0.174l0.563,0.826v-1
		c-0.404,0-0.769,0.244-0.924,0.617s-0.069,0.804,0.217,1.09l0.067,0.061l0.119,0.085c0.047,0.028,0.108,0.064,0.221,0.101
		c0.085,0.026,0.205,0.056,0.38,0.043c0.129-0.009,0.292-0.052,0.439-0.142c0.227-0.135,0.367-0.356,0.419-0.509
		c0.057-0.159,0.06-0.267,0.062-0.346h-0.995l0.991,0.088l0.004-0.088h-0.995l0.991,0.088l-0.823-0.073l0.82,0.1l0.003-0.027
		l-0.823-0.073l0.82,0.1c0.004-0.03,0.038-0.289,0.049-0.379v-0.002c0.014-0.125,0.029-0.255,0.042-0.391
		c0.025-0.254,0.048-0.513,0.065-0.779c0.033-0.508,0.051-1.016,0.053-1.527L60.507,22.591z"/>
	<path fill="#FFFFFF" d="M80.422,75.903c0,4.993,0,9.987,0,14.98c0,0.288,0,0.576,0,0.863c0.596-0.596,1.193-1.193,1.789-1.789
		c-2.069,0-4.139,0-6.209,0c-5.14,0-10.279,0-15.419,0c-6.607,0-13.213,0-19.82,0c-6.47,0-12.941,0-19.411,0
		c-4.731,0-9.462,0-14.193,0c-1.457,0-2.914,0-4.371,0c0.596,0.596,1.193,1.193,1.789,1.789c0-4.993,0-9.987,0-14.98
		c0-1.095,0.016-2.185,0.142-3.275c0.055-0.476-0.058,0.393,0.01-0.081c0.02-0.138,0.042-0.276,0.065-0.414
		c0.045-0.274,0.098-0.547,0.154-0.819c0.121-0.584,0.273-1.162,0.445-1.733c0.157-0.522,0.341-1.036,0.539-1.544
		c0.029-0.075,0.207-0.502,0.026-0.074c0.053-0.125,0.108-0.248,0.163-0.372c0.128-0.288,0.267-0.571,0.408-0.852
		c0.504-0.999,1.099-1.95,1.76-2.852c0.047-0.064,0.324-0.427,0.043-0.064c0.082-0.106,0.166-0.21,0.249-0.314
		c0.168-0.208,0.341-0.411,0.517-0.613c0.38-0.436,0.783-0.852,1.199-1.254c0.384-0.372,0.786-0.724,1.197-1.064
		c0.103-0.085,0.208-0.168,0.312-0.251c0.357-0.284-0.303,0.228,0.062-0.046c0.249-0.188,0.505-0.367,0.763-0.543
		c0.926-0.632,1.909-1.178,2.926-1.649c0.164-0.076,0.329-0.148,0.495-0.219c-0.444,0.191,0.117-0.043,0.201-0.075
		c0.338-0.132,0.681-0.252,1.026-0.366c0.696-0.23,1.407-0.415,2.124-0.569c0.363-0.077,0.728-0.141,1.095-0.199
		c0.092-0.014,0.184-0.028,0.277-0.04c-0.244,0.032-0.263,0.036-0.058,0.01c0.187-0.023,0.374-0.041,0.561-0.058
		c0.63-0.059,1.263-0.083,1.896-0.083c1.569,0,3.139,0,4.708,0c-0.515-0.295-1.03-0.591-1.545-0.886
		c2.797,3.818,5.594,7.636,8.391,11.454c2.095,2.86,4.191,5.721,6.286,8.581c0.834,1.138,2.257,1.146,3.089,0
		c2.785-3.833,5.57-7.666,8.355-11.498c2.067-2.845,4.135-5.691,6.202-8.536c-0.515,0.295-1.03,0.591-1.544,0.886
		c1.27,0,2.54,0,3.811,0c0.553,0,1.106-0.005,1.659,0.012c0.567,0.018,1.132,0.065,1.695,0.129c0.476,0.055-0.393-0.058,0.081,0.01
		c0.138,0.02,0.276,0.042,0.414,0.065c0.32,0.052,0.638,0.116,0.955,0.183c1.116,0.238,2.208,0.583,3.268,1.006
		c0.43,0.172-0.352-0.154,0.073,0.029c0.124,0.053,0.247,0.11,0.371,0.166c0.246,0.112,0.488,0.231,0.729,0.352
		c0.52,0.262,1.026,0.552,1.522,0.858c0.456,0.281,0.898,0.585,1.33,0.902c0.064,0.047,0.427,0.324,0.064,0.043
		c0.106,0.082,0.21,0.166,0.314,0.249c0.243,0.195,0.479,0.399,0.713,0.605c0.834,0.737,1.6,1.549,2.303,2.411
		c0.084,0.104,0.167,0.209,0.249,0.314c-0.283-0.361-0.004,0.001,0.043,0.064c0.16,0.215,0.313,0.435,0.464,0.656
		c0.303,0.443,0.583,0.901,0.85,1.367c0.268,0.468,0.512,0.949,0.742,1.436c0.058,0.122,0.113,0.246,0.168,0.369
		c0.033,0.073,0.21,0.5,0.032,0.071c0.122,0.293,0.233,0.59,0.341,0.888c0.374,1.035,0.651,2.104,0.851,3.185
		c0.051,0.275,0.093,0.55,0.133,0.827c-0.068-0.476-0.004-0.001,0.006,0.082c0.016,0.14,0.029,0.28,0.042,0.421
		C80.397,74.667,80.42,75.286,80.422,75.903c0.003,0.975,0.811,1.789,1.789,1.789c0.973,0,1.792-0.814,1.789-1.789
		c-0.017-4.965-1.692-9.722-4.721-13.642c-2.88-3.726-6.995-6.435-11.525-7.698c-3.393-0.946-6.891-0.791-10.373-0.791
		c-0.782,0-1.372,0.286-1.847,0.94c-0.12,0.165-0.24,0.33-0.36,0.495c-0.552,0.759-1.103,1.518-1.655,2.277
		c-3.595,4.947-7.19,9.895-10.784,14.842c-0.573,0.789-1.146,1.577-1.719,2.366c1.03,0,2.059,0,3.089,0
		c-2.797-3.818-5.594-7.636-8.391-11.454c-1.685-2.3-3.371-4.601-5.056-6.901c-0.386-0.527-0.772-1.054-1.158-1.581
		c-0.433-0.59-0.942-0.985-1.716-0.985c-0.624,0-1.248,0-1.872,0c-1.448,0-2.907-0.046-4.352,0.06
		c-2.549,0.186-4.967,0.817-7.313,1.81c-4.306,1.822-7.952,5.18-10.293,9.208C1.936,68.322,1,72.269,1,76.266
		c0,2.673,0,5.345,0,8.018c0,2.488,0,4.975,0,7.463c0,0.975,0.814,1.789,1.789,1.789c2.069,0,4.139,0,6.209,0
		c5.14,0,10.279,0,15.419,0c6.607,0,13.213,0,19.82,0c6.47,0,12.941,0,19.411,0c4.731,0,9.462,0,14.193,0c1.457,0,2.914,0,4.371,0
		c0.975,0,1.789-0.814,1.789-1.789c0-4.993,0-9.987,0-14.98c0-0.288,0-0.576,0-0.863c0-0.975-0.814-1.789-1.789-1.789
		S80.422,74.928,80.422,75.903z"/>
	<path fill="#FFFFFF" d="M80.422,75.903h-1c0,4.993,0,9.987,0,14.98c0,0.288,0,0.576,0,0.863v2.414l1.707-1.707
		c0.596-0.596,1.193-1.193,1.789-1.789l1.707-1.707h-2.414c-2.07,0-4.139,0-6.209,0c-5.14,0-10.279,0-15.419,0
		c-6.607,0-13.214,0-19.82,0c-6.47,0-12.941,0-19.411,0c-4.731,0-9.462,0-14.193,0c-1.457,0-2.914,0-4.371,0H0.375l1.707,1.707
		c0.596,0.596,1.193,1.193,1.789,1.789l1.707,1.707v-2.414c0-4.993,0-9.987,0-14.98c0-1.086,0.017-2.136,0.135-3.161l0.013-0.119
		l0.004-0.042l0.005-0.1l-0.011-0.148c-0.009-0.046-0.012-0.1-0.064-0.233c-0.03-0.067-0.067-0.16-0.188-0.296
		c-0.061-0.067-0.148-0.145-0.275-0.211c-0.125-0.067-0.294-0.114-0.462-0.113c-0.262,0-0.46,0.101-0.573,0.18
		c-0.223,0.168-0.256,0.267-0.299,0.33c-0.066,0.122-0.07,0.157-0.083,0.191c-0.031,0.105-0.025,0.101-0.03,0.123l-0.013,0.085
		l-0.015,0.116l-0.006,0.053l-0.003,0.03c-0.001,0.021-0.003,0.009-0.005,0.104c0.001,0.05-0.001,0.104,0.026,0.225
		c0.017,0.063,0.032,0.143,0.117,0.29c0.045,0.073,0.11,0.169,0.244,0.275c0.128,0.104,0.358,0.213,0.614,0.211
		c0.255,0,0.45-0.096,0.563-0.173c0.222-0.163,0.258-0.262,0.302-0.325c0.067-0.122,0.072-0.157,0.086-0.192
		c0.032-0.105,0.026-0.102,0.032-0.124l0.014-0.083l0.016-0.108c0.018-0.125,0.039-0.256,0.062-0.394
		c0.042-0.254,0.092-0.513,0.147-0.778c0.113-0.549,0.258-1.098,0.423-1.647c0.147-0.49,0.322-0.979,0.513-1.467l0.055-0.135
		l0.033-0.081l0.013-0.033l0.009-0.022l0.01-0.029l0.014-0.044l0.016-0.061c0.006-0.038,0.021-0.065,0.025-0.222
		c-0.006-0.346-0.154-0.548-0.244-0.655c-0.148-0.162-0.243-0.205-0.339-0.254c-0.103-0.04-0.178-0.083-0.417-0.091
		c-0.264,0.004-0.414,0.086-0.507,0.138c-0.18,0.113-0.215,0.174-0.256,0.216l-0.093,0.13L5.139,68.21l-0.021,0.046
		c-0.014,0.032-0.036,0.084-0.077,0.181l1.842,0.778c0.047-0.112,0.1-0.23,0.155-0.353c0.119-0.267,0.251-0.537,0.388-0.81
		c0.476-0.944,1.042-1.849,1.674-2.712l0.087-0.116l0.052-0.069l0.021-0.028l0.014-0.02l0.019-0.028l0.03-0.048l0.041-0.077
		l0.042-0.104c0.016-0.057,0.049-0.122,0.054-0.324c0.002-0.167-0.049-0.361-0.139-0.509c-0.163-0.266-0.36-0.363-0.472-0.412
		c-0.177-0.07-0.253-0.068-0.308-0.075L8.46,63.527c-0.196,0.003-0.3,0.045-0.375,0.073c-0.142,0.061-0.184,0.099-0.224,0.126
		l-0.104,0.089l-0.063,0.068l-0.031,0.038l-0.119,0.153l1.583,1.223c0.074-0.096,0.154-0.195,0.237-0.299
		c0.155-0.193,0.32-0.386,0.491-0.582c0.357-0.41,0.74-0.806,1.14-1.193c0.36-0.349,0.742-0.684,1.139-1.012
		c0.093-0.077,0.192-0.156,0.297-0.239l0.093-0.074l0.032-0.026l0.028-0.024l0.042-0.04l0.065-0.072l0.082-0.116l0.074-0.149
		c0.027-0.074,0.069-0.177,0.072-0.372c-0.014-0.329-0.099-0.419-0.132-0.496c-0.061-0.103-0.091-0.131-0.114-0.16l-0.048-0.051
		c-0.186-0.186-0.444-0.293-0.707-0.293c-0.14,0.002-0.21,0.022-0.265,0.036c-0.19,0.059-0.193,0.08-0.231,0.096l-0.07,0.044
		l-0.048,0.035l-0.105,0.081l-0.053,0.042l-0.031,0.026l-0.037,0.032l-0.056,0.056l-0.079,0.096l-0.084,0.139
		c-0.032,0.076-0.096,0.179-0.104,0.443c0.008,0.081-0.015,0.221,0.136,0.504c0.059,0.103,0.155,0.219,0.279,0.308
		c0.222,0.162,0.475,0.194,0.605,0.188c0.104-0.003,0.163-0.017,0.198-0.024l0.04-0.01l-0.259-0.966l0.2,0.98l0.059-0.014
		l-0.259-0.966l0.2,0.98l-0.2-0.98v1c0.092,0,0.158-0.012,0.2-0.02l-0.2-0.98v1c0.15-0.002,0.22-0.025,0.275-0.039
		c0.101-0.03,0.135-0.05,0.166-0.064c0.096-0.05,0.095-0.055,0.116-0.066l0.073-0.052l0.085-0.063
		c0.233-0.176,0.476-0.346,0.727-0.517c0.875-0.597,1.81-1.117,2.782-1.567c0.15-0.069,0.307-0.138,0.471-0.208l-0.792-1.837
		l-0.138,0.06l-0.044,0.02l-0.036,0.017l-0.056,0.03L15.29,58l-0.133,0.118c-0.034,0.037-0.078,0.086-0.135,0.179
		c-0.052,0.093-0.134,0.242-0.138,0.507h1v-1l0,0c-0.263,0-0.521,0.107-0.707,0.293s-0.293,0.444-0.293,0.707
		s0.107,0.521,0.293,0.707s0.444,0.293,0.707,0.293l0,0c0.111-0.001,0.15-0.012,0.186-0.017c0.114-0.024,0.112-0.029,0.136-0.035
		l0.07-0.026l0.193-0.079l0.148-0.06l0.002-0.001c0.316-0.124,0.642-0.238,0.975-0.348c0.656-0.217,1.331-0.393,2.02-0.54
		c0.338-0.072,0.685-0.133,1.041-0.189l-0.004,0.001l0.263-0.038l-0.268-1.982l-0.153,0.02l-0.045,0.006l-0.024,0.004l-0.031,0.005
		l-0.056,0.012l-0.103,0.031c-0.034,0.014-0.075,0.026-0.172,0.082c-0.049,0.031-0.116,0.07-0.216,0.175
		c-0.049,0.054-0.109,0.126-0.164,0.238c-0.055,0.11-0.105,0.266-0.104,0.445c0,0.404,0.244,0.769,0.617,0.924
		s0.804,0.069,1.09-0.217l-0.707-0.707v1c0.22,0.01,0.534-0.107,0.707-0.293l-0.707-0.707v1l0.082-0.003l0.079-0.009l0.102-0.013
		h-0.002c0.17-0.021,0.348-0.038,0.532-0.055c0.594-0.056,1.196-0.079,1.803-0.079c1.569,0,3.139,0,4.708,0h3.754l-3.256-1.867
		c-0.515-0.295-1.03-0.591-1.545-0.886l-4.091-2.346l2.787,3.805c2.797,3.818,5.594,7.636,8.391,11.454
		c2.095,2.86,4.191,5.721,6.286,8.581c0.571,0.79,1.445,1.269,2.355,1.265c0.906,0.005,1.782-0.475,2.35-1.268
		c2.785-3.833,5.57-7.666,8.355-11.499c2.067-2.845,4.135-5.691,6.202-8.536l2.747-3.781l-4.053,2.325
		c-0.515,0.295-1.03,0.591-1.544,0.886l-3.256,1.867h3.754c1.27,0,2.54,0,3.811,0c0.2,0,0.398-0.001,0.594-0.001
		c0.352,0,0.696,0.002,1.034,0.013c0.532,0.017,1.07,0.061,1.612,0.123l0.118,0.013l0.042,0.004l0.1,0.005
		c0.033-0.001,0.067,0.001,0.165-0.014c0.053-0.011,0.118-0.017,0.265-0.083c0.074-0.037,0.176-0.089,0.304-0.224
		c0.126-0.126,0.271-0.392,0.266-0.679c0-0.262-0.101-0.46-0.18-0.572c-0.168-0.223-0.267-0.256-0.33-0.299
		c-0.122-0.066-0.157-0.07-0.191-0.083c-0.105-0.031-0.101-0.025-0.123-0.03L64.52,56.51l-0.116-0.015l-0.054-0.006l-0.03-0.003
		c-0.021-0.001-0.009-0.003-0.104-0.005c-0.057,0.001-0.111,0.002-0.21,0.022c-0.053,0.013-0.113,0.023-0.238,0.083
		c-0.063,0.034-0.148,0.076-0.266,0.193c-0.058,0.059-0.125,0.14-0.184,0.258c-0.058,0.116-0.104,0.275-0.103,0.443
		c0,0.256,0.096,0.451,0.173,0.563c0.163,0.222,0.262,0.258,0.325,0.302c0.122,0.067,0.157,0.072,0.192,0.086
		c0.105,0.032,0.102,0.026,0.124,0.032l0.083,0.014l0.108,0.016c0.125,0.018,0.256,0.039,0.394,0.062
		c0.297,0.049,0.6,0.109,0.908,0.175c1.054,0.225,2.092,0.552,3.106,0.957l0.113,0.045l0.042,0.016l0.038,0.013l0.051,0.015
		l0.064,0.015c0.036,0.005,0.071,0.017,0.198,0.02c0.167,0.001,0.342-0.046,0.476-0.121c0.205-0.113,0.32-0.258,0.395-0.388
		c0.072-0.139,0.122-0.251,0.129-0.492c-0.003-0.232-0.07-0.378-0.118-0.472c-0.104-0.183-0.17-0.227-0.213-0.272l-0.141-0.106
		l-0.102-0.055l-0.077-0.034l-0.106-0.044l-0.049-0.02l-0.03-0.012L69.26,57.78l-0.051-0.016l-0.065-0.016
		c-0.037-0.006-0.073-0.018-0.203-0.021c-0.168-0.001-0.329,0.046-0.447,0.106c-0.18,0.092-0.273,0.196-0.334,0.27l-0.114,0.177
		c-0.071,0.141-0.106,0.289-0.106,0.447c0.002,0.226,0.067,0.37,0.114,0.464c0.101,0.181,0.166,0.227,0.209,0.273l0.14,0.108
		l0.102,0.057l0.074,0.034l0.097,0.042c0.112,0.048,0.229,0.101,0.352,0.157c0.228,0.104,0.458,0.217,0.693,0.335
		c0.489,0.246,0.97,0.522,1.447,0.816c0.428,0.264,0.848,0.553,1.265,0.858l0.116,0.087l0.069,0.052l0.028,0.021l0.02,0.015
		l0.029,0.02l0.049,0.031l0.079,0.041l0.105,0.042c0.057,0.015,0.123,0.047,0.318,0.052c0.404,0,0.769-0.244,0.924-0.617
		s0.069-0.804-0.217-1.09l-0.707,0.707l0.78-0.624l-0.074-0.082l-0.707,0.707l0.78-0.624l-0.781,0.624l0.868-0.496l-0.087-0.129
		l-0.781,0.624l0.868-0.496l-0.868,0.496h1c-0.014-0.329-0.099-0.419-0.132-0.496l-0.868,0.496h1
		c-0.002-0.185-0.041-0.289-0.068-0.363c-0.058-0.142-0.097-0.186-0.124-0.227l-0.091-0.108l-0.071-0.066l-0.039-0.032l-0.151-0.12
		l-1.223,1.582c0.096,0.074,0.195,0.154,0.299,0.238c0.226,0.182,0.451,0.375,0.677,0.575c0.788,0.696,1.517,1.469,2.19,2.294
		c0.076,0.094,0.155,0.194,0.237,0.299l1.574-1.234l-0.1-0.127l-0.028-0.036l-0.019-0.023l-0.029-0.033l-0.053-0.053l-0.092-0.077
		l-0.136-0.084c-0.076-0.032-0.176-0.1-0.454-0.109v1l0.316-0.948c-0.25-0.073-0.312-0.044-0.316-0.051v1l0.316-0.948l-0.316,0.949
		l0.789-0.614c-0.155-0.2-0.351-0.295-0.473-0.335l-0.316,0.949l0.789-0.614l-0.789,0.614h1c0.004-0.161-0.053-0.416-0.211-0.614
		l-0.789,0.614h1c0-0.263-0.107-0.521-0.293-0.707c-0.186-0.186-0.444-0.293-0.707-0.293s-0.521,0.107-0.707,0.293
		c-0.186,0.186-0.293,0.444-0.293,0.707c0.004,0.179,0.032,0.248,0.048,0.305c0.035,0.103,0.053,0.131,0.067,0.16l0.061,0.101
		l0.033,0.046l0.157,0.207c0.147,0.198,0.293,0.407,0.44,0.623c0.284,0.416,0.551,0.852,0.808,1.3
		c0.251,0.439,0.484,0.896,0.705,1.366c0.052,0.111,0.105,0.228,0.16,0.351l-0.001-0.002l0.056,0.131l0.033,0.077l0.011,0.026
		l0.005,0.011l0.005,0.011l0.008,0.018l0.017,0.034l0.034,0.062l0.071,0.103l0.132,0.138c0.041,0.034,0.093,0.077,0.188,0.128
		c0.094,0.047,0.237,0.112,0.465,0.114c0.465,0,0.866-0.318,0.973-0.77s-0.11-0.916-0.526-1.124l-0.447,0.894l0.6-0.8l-0.153-0.094
		l-0.447,0.894l0.6-0.8l-0.6,0.8l0.781-0.625c-0.082-0.1-0.138-0.142-0.181-0.175l-0.6,0.8l0.781-0.625l-0.781,0.625l0.914-0.406
		c-0.045-0.1-0.093-0.168-0.133-0.219l-0.781,0.625l0.914-0.406l-0.914,0.406h1c0-0.168-0.042-0.307-0.086-0.406l-0.914,0.406h1
		c-0.003-0.148-0.018-0.178-0.023-0.215c-0.026-0.107-0.028-0.097-0.033-0.117l-0.014-0.038c-0.011-0.028-0.028-0.069-0.083-0.201
		l-1.847,0.767c0.113,0.272,0.219,0.555,0.324,0.845c0.353,0.977,0.617,1.993,0.809,3.028c0.047,0.254,0.087,0.517,0.126,0.786
		l1.98-0.283l-0.024-0.167l-0.007-0.046l-0.005-0.03l-0.009-0.044l-0.022-0.081l-0.058-0.143c-0.023-0.044-0.049-0.101-0.136-0.206
		c-0.046-0.052-0.108-0.119-0.224-0.194c-0.113-0.072-0.299-0.155-0.536-0.156c-0.322-0.007-0.646,0.175-0.814,0.419
		c-0.168,0.242-0.184,0.453-0.186,0.581l0.004,0.085l0.01,0.088l0.03,0.232v-0.002c0.014,0.126,0.027,0.26,0.04,0.401
		c0.054,0.578,0.077,1.166,0.079,1.761c0.014,1.533,1.245,2.776,2.789,2.785c1.534-0.011,2.776-1.239,2.789-2.783v-0.01
		l-0.918,0.008l0.917,0.042L85,75.899l-0.918,0.008l0.917,0.042L85,75.925V75.9c-0.017-5.188-1.77-10.162-4.93-14.25
		c-3.02-3.905-7.313-6.729-12.048-8.05c-2.706-0.753-5.415-0.836-8.057-0.837c-0.869,0-1.731,0.01-2.584,0.01
		c-0.511-0.001-1.024,0.097-1.488,0.332c-0.465,0.232-0.858,0.591-1.168,1.02c-0.12,0.165-0.24,0.33-0.36,0.496
		c-0.551,0.759-1.103,1.518-1.654,2.277c-3.595,4.947-7.189,9.895-10.784,14.842c-0.573,0.789-1.146,1.577-1.719,2.366l-1.154,1.588
		h1.963c1.03,0,2.059,0,3.089,0h1.972l-1.166-1.591c-2.797-3.818-5.594-7.636-8.391-11.454c-1.685-2.3-3.371-4.601-5.056-6.901
		c-0.386-0.527-0.772-1.054-1.158-1.581c-0.263-0.359-0.583-0.707-1.01-0.973c-0.424-0.267-0.956-0.424-1.513-0.421
		c-0.624,0-1.248,0-1.872,0c-0.662,0-1.337-0.01-2.02-0.01c-0.79,0-1.592,0.013-2.404,0.072c-2.667,0.194-5.197,0.856-7.63,1.886
		c-4.526,1.917-8.32,5.419-10.768,9.626C0.972,67.989,0,72.114,0,76.266c0,2.673,0,5.345,0,8.018c0,2.488,0,4.975,0,7.463
		c0.011,1.54,1.248,2.778,2.789,2.789c2.069,0,4.139,0,6.209,0c5.14,0,10.279,0,15.419,0c6.607,0,13.213,0,19.82,0
		c6.47,0,12.941,0,19.411,0c4.731,0,9.462,0,14.193,0c1.457,0,2.914,0,4.371,0c1.54-0.011,2.778-1.248,2.789-2.789
		c0-4.993,0-9.987,0-14.98c0-0.288,0-0.576,0-0.863c-0.011-1.54-1.248-2.778-2.789-2.789c-1.54,0.011-2.778,1.248-2.789,2.789
		L80.422,75.903l1,0.001c0-0.206,0.086-0.402,0.236-0.553c0.151-0.15,0.347-0.236,0.553-0.236s0.402,0.086,0.553,0.236
		c0.15,0.15,0.236,0.346,0.236,0.552c0,0.288,0,0.576,0,0.863c0,4.993,0,9.987,0,14.98c0,0.206-0.086,0.402-0.236,0.553
		c-0.151,0.15-0.347,0.236-0.553,0.236c-1.457,0-2.914,0-4.371,0c-4.731,0-9.462,0-14.193,0c-6.47,0-12.941,0-19.411,0
		c-6.607,0-13.213,0-19.82,0c-5.14,0-10.279,0-15.419,0c-2.07,0-4.139,0-6.209,0c-0.206,0-0.402-0.086-0.553-0.236
		C2.086,92.149,2,91.953,2,91.747c0-2.488,0-4.975,0-7.463c0-2.673,0-5.345,0-8.018c0-3.843,0.899-7.612,2.819-10.913
		c2.236-3.849,5.732-7.063,9.818-8.789c2.26-0.956,4.566-1.556,6.996-1.733c0.737-0.054,1.491-0.067,2.259-0.067
		c0.664,0,1.339,0.01,2.02,0.01c0.624,0,1.248,0,1.872,0c0.217,0.004,0.327,0.043,0.459,0.121c0.129,0.079,0.281,0.223,0.45,0.455
		c0.386,0.527,0.772,1.054,1.158,1.581c1.685,2.3,3.37,4.601,5.056,6.901c2.797,3.818,5.594,7.636,8.391,11.454l0.807-0.591v-1
		c-1.03,0-2.059,0-3.089,0v1l0.809,0.588c0.573-0.788,1.146-1.577,1.719-2.366c3.595-4.947,7.189-9.895,10.784-14.842
		c0.551-0.759,1.103-1.518,1.655-2.277c0.12-0.165,0.24-0.33,0.36-0.495c0.165-0.224,0.304-0.335,0.449-0.409
		c0.146-0.072,0.319-0.117,0.589-0.118c0.868,0,1.73-0.01,2.584-0.01c2.6-0.001,5.118,0.092,7.52,0.763
		c4.326,1.205,8.262,3.799,11.003,7.346c2.899,3.751,4.496,8.292,4.512,13.033l1-0.003l-0.999-0.046L83,75.91l0.202-0.001H83v0.001
		l0.202-0.001H83c0,0.202-0.085,0.396-0.236,0.547c-0.151,0.15-0.35,0.236-0.553,0.236c-0.208,0-0.401-0.086-0.552-0.235
		c-0.149-0.15-0.237-0.348-0.237-0.557c-0.002-0.641-0.026-1.289-0.087-1.941c-0.013-0.14-0.027-0.287-0.044-0.441v-0.002
		l-0.022-0.175l-0.011-0.083l-0.003-0.021l-0.363,0.043l0.363-0.038l-0.001-0.005l-0.363,0.043l0.363-0.038l-0.859,0.089
		l0.861-0.073l-0.002-0.017l-0.859,0.089l0.861-0.073l-0.98,0.083h0.983l-0.003-0.083l-0.98,0.083h0.983h-1l0.814,0.581
		c0.168-0.242,0.184-0.453,0.186-0.581h-1l0.814,0.581l-0.814-0.581v1c0.322,0.007,0.646-0.175,0.814-0.419l-0.814-0.581v1v-1
		l-0.536,0.844c0.113,0.072,0.299,0.155,0.536,0.156v-1l-0.536,0.844l0.536-0.844l-0.851,0.525c0.047,0.064,0.091,0.166,0.315,0.319
		l0.536-0.844l-0.851,0.525l0.85-0.525l-0.945,0.325c0.015,0.036,0.021,0.074,0.095,0.2l0.85-0.525l-0.945,0.325l0.942-0.324
		l-0.97,0.227l0.028,0.097l0.942-0.324l-0.97,0.227l0.899-0.21l-0.911,0.153l0.012,0.057l0.899-0.21l-0.911,0.153l0.261-0.044
		l-0.262,0.041v0.003l0.261-0.044l-0.262,0.041c0.002,0.011,0.011,0.073,0.026,0.182l1.98-0.283
		c-0.04-0.283-0.085-0.573-0.139-0.867c-0.209-1.129-0.5-2.25-0.894-3.343c-0.111-0.307-0.228-0.618-0.358-0.932l-1.847,0.767
		l0.06,0.144l0.012,0.03l0.001,0.003l0.725-0.293l-0.728,0.286l0.003,0.007l0.725-0.293l-0.728,0.286l0.902-0.355l-0.908,0.339
		l0.006,0.015l0.902-0.355l-0.908,0.339l0.932-0.348l-0.942,0.32l0.01,0.028l0.932-0.348l-0.942,0.32l0.946-0.322l-0.96,0.276
		l0.014,0.045l0.946-0.322l-0.96,0.276l0.961-0.277l-0.977,0.215l0.016,0.061l0.961-0.277l-0.977,0.215l0.976-0.215h-1
		c0.003,0.148,0.018,0.178,0.023,0.215l0.976-0.215h-1c0,0.168,0.042,0.307,0.086,0.406c0.081,0.175,0.16,0.253,0.215,0.309
		c0.164,0.149,0.209,0.151,0.252,0.179l0.447-0.894v-1v1l0.465-0.886c-0.093-0.047-0.238-0.112-0.465-0.114v1l0.465-0.886
		l-0.465,0.885l0.738-0.675c-0.045-0.044-0.091-0.109-0.273-0.211l-0.465,0.885l0.738-0.675l-0.738,0.675l0.846-0.533l-0.108-0.141
		l-0.738,0.675l0.846-0.533l-0.845,0.533l0.9-0.435l-0.055-0.099l-0.845,0.533l0.9-0.435l-0.875,0.422l0.891-0.388l-0.016-0.035
		l-0.875,0.422l0.891-0.388l-0.311,0.135l0.312-0.133l-0.001-0.003l-0.311,0.135l0.312-0.133l-0.114-0.268l-0.001-0.002
		c-0.055-0.124-0.113-0.253-0.176-0.387c-0.238-0.506-0.495-1.011-0.779-1.507c-0.276-0.483-0.571-0.963-0.892-1.434
		c-0.155-0.226-0.315-0.457-0.486-0.688l-0.104-0.137l-0.048-0.063l-0.01-0.013l-0.499,0.37l0.506-0.36l-0.007-0.01l-0.499,0.37
		l0.506-0.36l-0.77,0.547l0.789-0.519l-0.019-0.028l-0.77,0.547l0.789-0.519l-0.829,0.545l0.862-0.492l-0.032-0.053l-0.829,0.545
		l0.862-0.492l-0.867,0.495l0.909-0.412l-0.043-0.083l-0.867,0.495l0.909-0.412l-0.911,0.412l0.952-0.305l-0.041-0.108l-0.911,0.412
		l0.952-0.305l-0.952,0.305h1c-0.004-0.179-0.032-0.248-0.048-0.305l-0.952,0.305h1c0-0.263-0.107-0.521-0.293-0.707
		s-0.444-0.293-0.707-0.293s-0.521,0.107-0.707,0.293s-0.293,0.444-0.293,0.707c-0.004,0.161,0.053,0.416,0.211,0.614
		c0.114,0.148,0.258,0.243,0.369,0.294c0.17,0.076,0.274,0.082,0.334,0.089l0.086,0.004v-1l-0.454,0.891
		c0.076,0.032,0.176,0.1,0.454,0.109v-1l-0.454,0.891l0.454-0.89l-0.649,0.76c0.033,0.025,0.059,0.057,0.195,0.13l0.454-0.89
		l-0.649,0.76l0.647-0.758l-0.724,0.684l0.077,0.073l0.647-0.758l-0.724,0.684l0.676-0.64l-0.717,0.594l0.041,0.046l0.676-0.64
		l-0.717,0.594l0.257-0.213l-0.259,0.209l0.003,0.003l0.257-0.213l-0.259,0.209l0.107,0.136l1.574-1.234
		c-0.083-0.106-0.169-0.216-0.261-0.329c-0.734-0.9-1.537-1.752-2.417-2.529c-0.24-0.212-0.488-0.425-0.748-0.634
		c-0.104-0.084-0.213-0.172-0.329-0.261l-1.223,1.582l0.119,0.093l0.02,0.016l0.331-0.416l-0.338,0.411l0.007,0.006l0.331-0.416
		l-0.338,0.411l0.596-0.724l-0.62,0.704l0.023,0.02l0.596-0.724l-0.62,0.704l0.655-0.744l-0.698,0.703l0.043,0.041l0.655-0.744
		l-0.698,0.703l0.704-0.709l-0.772,0.634l0.068,0.075l0.704-0.709l-0.772,0.634l0.773-0.635l-0.858,0.514l0.085,0.12l0.773-0.635
		l-0.858,0.514l0.858-0.514l-0.932,0.363l0.074,0.151l0.858-0.514l-0.932,0.363l0.932-0.363h-1c0.002,0.185,0.041,0.289,0.068,0.363
		l0.932-0.363h-1c0.014,0.329,0.099,0.419,0.132,0.496c0.061,0.103,0.091,0.131,0.114,0.16l0.048,0.051l0.707-0.707v-1v1
		l0.318-0.948c-0.057-0.015-0.123-0.047-0.318-0.052v1l0.318-0.948l-0.318,0.947l0.472-0.881c-0.027-0.013-0.053-0.031-0.154-0.066
		l-0.318,0.947l0.472-0.881l-0.467,0.872l0.558-0.816l-0.091-0.055l-0.467,0.872l0.558-0.816v-0.001l-0.195-0.147
		c-0.448-0.328-0.912-0.647-1.396-0.946c-0.515-0.318-1.045-0.622-1.598-0.9c-0.247-0.124-0.501-0.25-0.765-0.37
		c-0.123-0.056-0.252-0.115-0.39-0.174l-0.092-0.04l-0.007-0.003l-0.197,0.437l0.208-0.432l-0.011-0.005l-0.197,0.437l0.208-0.432
		l-0.406,0.843l0.447-0.822l-0.041-0.021l-0.406,0.843l0.447-0.822l-0.473,0.87l0.55-0.824l-0.07-0.031l-0.473,0.87l0.55-0.824
		l-0.555,0.83l0.675-0.736l-0.12-0.094l-0.555,0.83l0.675-0.736l-0.676,0.737l0.816-0.577l-0.141-0.16l-0.676,0.737l0.816-0.577
		l-0.816,0.577h1c-0.011-0.342-0.128-0.488-0.184-0.577l-0.816,0.577h1h-1l0.894,0.447l-0.894-0.447l0.707,0.707
		c0.116-0.119,0.156-0.201,0.187-0.26l-0.894-0.447l0.707,0.707l-0.707-0.707l0.447,0.894c0.12-0.06,0.201-0.129,0.26-0.187
		l-0.707-0.707l0.447,0.894l-0.447-0.894v1c0.168,0.001,0.329-0.046,0.447-0.106l-0.447-0.894v1v-0.999l-0.239,0.97
		c0.04,0.006,0.057,0.023,0.239,0.029v-0.999l-0.239,0.97l0.231-0.936l-0.334,0.905c0.017,0.005,0.003,0.004,0.103,0.032
		l0.231-0.936l-0.334,0.905l0.213-0.576l-0.224,0.572l0.011,0.004l0.213-0.576l-0.224,0.572l0.082,0.034l0.041,0.017l0.002,0.001
		l0.257-0.578l-0.274,0.57l0.017,0.008l0.257-0.578l-0.274,0.57l0.411-0.854l-0.458,0.83l0.047,0.024l0.411-0.854l-0.458,0.83
		l0.479-0.869l-0.565,0.816l0.085,0.053l0.479-0.869l-0.565,0.816l0.568-0.822l-0.696,0.716l0.128,0.105l0.568-0.822l-0.696,0.716
		l0.697-0.717l-0.837,0.546c0.061,0.092,0.106,0.136,0.14,0.171l0.697-0.717l-0.837,0.546l0.837-0.546h-1
		c0.007,0.303,0.107,0.454,0.162,0.546l0.837-0.546h-1h1l-0.934-0.356c-0.034,0.096-0.063,0.192-0.065,0.356h1l-0.934-0.356
		l0.934,0.356l-0.653-0.757c-0.151,0.133-0.227,0.263-0.281,0.401l0.934,0.356l-0.653-0.757l0.653,0.757v-1
		c-0.255-0.004-0.508,0.112-0.653,0.243l0.653,0.757v-1v0.998l0.197-0.979c-0.035-0.005-0.071-0.017-0.197-0.02v0.998l0.197-0.979
		l-0.192,0.955l0.312-0.923c-0.019-0.005-0.013-0.008-0.12-0.032l-0.192,0.955l0.312-0.923L69.26,58.41l0.206-0.546L69.45,57.86
		l-0.187,0.553l0.206-0.546l-0.099-0.039c-1.106-0.442-2.252-0.804-3.43-1.055c-0.326-0.07-0.66-0.136-1.002-0.192
		c-0.137-0.022-0.282-0.046-0.435-0.068l-0.102-0.015l-0.008-0.001l-0.078,0.485l0.091-0.482l-0.013-0.002l-0.078,0.485l0.091-0.482
		l-0.174,0.922l0.223-0.911l-0.049-0.011l-0.174,0.922l0.223-0.911l-0.235,0.964l0.332-0.935l-0.097-0.029l-0.235,0.964l0.332-0.935
		l-0.335,0.941l0.5-0.865c-0.094-0.053-0.133-0.064-0.165-0.076l-0.335,0.941l0.5-0.865l-0.5,0.866l0.715-0.699
		c-0.102-0.101-0.167-0.137-0.215-0.167l-0.5,0.866l0.715-0.699l-0.715,0.699l0.886-0.463c-0.06-0.113-0.121-0.184-0.171-0.236
		l-0.715,0.699l0.886-0.463l-0.886,0.463h1c0-0.189-0.055-0.352-0.114-0.463l-0.886,0.463h1h-1l0.896,0.443
		c0.058-0.116,0.104-0.275,0.103-0.443h-1l0.896,0.443l-0.897-0.443l0.576,0.817c0.082-0.061,0.206-0.153,0.32-0.374l-0.897-0.443
		L64.79,58.3l-0.576-0.817l0.293,0.956c0.06-0.021,0.135-0.039,0.283-0.139l-0.576-0.817l0.293,0.956l-0.292-0.954v0.998
		c0.074-0.003,0.126,0.003,0.292-0.044l-0.292-0.954v0.998v-0.949l-0.084,0.945l0.084,0.004v-0.949l-0.084,0.945l0.05-0.566
		l-0.06,0.565l0.01,0.001l0.05-0.566l-0.06,0.565l0.091,0.012l0.045,0.006h0.002l0.099-0.636l-0.118,0.633l0.019,0.003l0.099-0.636
		l-0.118,0.633l0.174-0.934l-0.23,0.922l0.055,0.012l0.174-0.934l-0.23,0.922l0.24-0.964l-0.347,0.93l0.107,0.033l0.24-0.964
		l-0.347,0.93l0.349-0.936l-0.527,0.849c0.099,0.06,0.143,0.073,0.178,0.087l0.349-0.936l-0.527,0.849l0.527-0.849l-0.745,0.667
		c0.099,0.108,0.167,0.149,0.217,0.182l0.527-0.849l-0.745,0.667l0.745-0.667l-0.904,0.429c0.053,0.11,0.11,0.184,0.159,0.239
		l0.745-0.667L63.52,57.94l0.903-0.429h-1c0,0.17,0.044,0.32,0.096,0.428l0.903-0.429h-1h1l-0.734-0.679
		c-0.126,0.126-0.271,0.392-0.266,0.679h1l-0.734-0.679l0.734,0.679l-0.295-0.955c-0.081,0.034-0.211,0.049-0.439,0.276l0.734,0.679
		l-0.295-0.955l0.294,0.954l-0.084-0.995c-0.042,0.005-0.089,0.005-0.211,0.041l0.294,0.954l-0.084-0.995l0.083,0.99V56.51
		l-0.083,0.003l0.083,0.99v-0.994v0.866l0.077-0.863l-0.077-0.003v0.866l0.077-0.863l-0.11-0.012
		c-0.583-0.067-1.176-0.116-1.777-0.135c-0.372-0.012-0.738-0.013-1.096-0.013c-0.2,0-0.398,0.001-0.594,0.001
		c-1.27,0-2.54,0-3.811,0v1l0.497,0.867c0.515-0.295,1.03-0.591,1.545-0.886l-0.498-0.867l-0.809-0.588
		c-2.067,2.845-4.135,5.691-6.202,8.536c-2.785,3.833-5.57,7.666-8.355,11.498c-0.263,0.35-0.512,0.44-0.732,0.444
		c-0.221-0.004-0.477-0.097-0.741-0.447c-2.095-2.86-4.191-5.721-6.286-8.581c-2.797-3.818-5.594-7.636-8.391-11.454l-0.807,0.591
		l-0.497,0.867c0.515,0.295,1.03,0.591,1.545,0.886l0.498-0.867v-1c-1.569,0-3.139,0-4.708,0c-0.658,0-1.323,0.025-1.99,0.087
		c-0.189,0.018-0.385,0.037-0.589,0.061h-0.002l-0.099,0.012l-0.02,0.002l0.046,0.409l-0.041-0.409l-0.005,0.001l0.046,0.409
		l-0.041-0.409l0.088,0.877l-0.072-0.879l-0.016,0.001l0.088,0.877l-0.072-0.879l0.08,0.983V56.51l-0.08,0.003l0.08,0.983V56.51
		c-0.22-0.01-0.534,0.107-0.707,0.293l0.707,0.707h1h-1l0.896,0.444c0.055-0.11,0.105-0.266,0.104-0.444h-1l0.896,0.444
		l-0.896-0.445l0.604,0.797c0.068-0.056,0.176-0.132,0.291-0.352l-0.896-0.445l0.604,0.797l-0.604-0.797l0.371,0.928
		c0.043-0.021,0.095-0.032,0.233-0.132l-0.604-0.797l0.371,0.928l-0.371-0.928l0.248,0.968l0.123-0.04l-0.371-0.928l0.248,0.968
		l-0.244-0.951l0.165,0.968l0.079-0.017l-0.244-0.951l0.165,0.968l-0.118-0.691l0.102,0.693l0.016-0.003l-0.118-0.691l0.102,0.693
		c0.005-0.001,0.074-0.01,0.176-0.024l-0.268-1.982c-0.098,0.014-0.195,0.028-0.291,0.043l-0.004,0.001
		c-0.378,0.059-0.761,0.126-1.149,0.209c-0.746,0.159-1.492,0.353-2.23,0.597c-0.356,0.118-0.716,0.243-1.077,0.385l-0.014,0.005
		l0.016-0.006l-0.222,0.09l-0.108,0.044l-0.026,0.01l0.18,0.46l-0.169-0.464l-0.01,0.004l0.18,0.46l-0.169-0.464l0.313,0.861
		l-0.28-0.872l-0.033,0.011l0.313,0.861l-0.28-0.872l0.301,0.936l-0.248-0.951l-0.053,0.015l0.301,0.936l-0.248-0.951l0.251,0.963
		l-0.185-0.978l-0.066,0.015l0.251,0.963l-0.185-0.978l0.185,0.982v-0.999c-0.111,0.001-0.15,0.012-0.185,0.017l0.185,0.982v-0.999
		l0,0c-0.263,0-0.521,0.107-0.707,0.293s-0.293,0.444-0.293,0.707s0.107,0.521,0.293,0.707s0.444,0.293,0.707,0.293l0,0
		c0.263,0,0.521-0.107,0.707-0.293s0.293-0.444,0.293-0.707h-1l0.862,0.507c0.052-0.093,0.134-0.242,0.138-0.507h-1l0.862,0.507
		l-0.862-0.507l0.647,0.762c0.042-0.041,0.103-0.076,0.215-0.255l-0.862-0.507l0.647,0.762l-0.646-0.761l0.517,0.853l0.129-0.093
		l-0.646-0.761l0.517,0.853l-0.496-0.818l0.413,0.863l0.083-0.045l-0.496-0.818l0.413,0.863l-0.249-0.52l0.239,0.524l0.009-0.004
		l-0.249-0.52l0.239,0.524l0.138-0.06l-0.792-1.837c-0.167,0.072-0.341,0.148-0.519,0.23c-1.061,0.491-2.093,1.063-3.069,1.73
		c-0.265,0.181-0.534,0.369-0.801,0.57l-0.076,0.057l-0.001,0.001l0.491,0.705l-0.461-0.725l-0.03,0.02l0.491,0.705l-0.461-0.725
		l0.525,0.826l-0.465-0.86l-0.059,0.035l0.525,0.826l-0.465-0.86l0.474,0.876l-0.383-0.919l-0.09,0.043l0.474,0.876l-0.383-0.919
		l0.384,0.921l-0.275-0.96l-0.11,0.038l0.384,0.921l-0.275-0.96l0.275,0.961v-1c-0.15,0.002-0.22,0.025-0.275,0.039l0.275,0.961v-1
		l0,0v1l0.456-0.89c-0.178-0.091-0.348-0.111-0.456-0.11v1l0.456-0.89l-0.456,0.89l0.793-0.609c-0.081-0.107-0.204-0.214-0.337-0.28
		l-0.456,0.89l0.793-0.609l-0.793,0.609l0.978-0.207c-0.021-0.095-0.062-0.239-0.185-0.402l-0.793,0.609l0.978-0.207l-0.978,0.207h1
		c0-0.047-0.002-0.109-0.022-0.207l-0.978,0.207h1h-1l0.875,0.483c0.032-0.077,0.112-0.167,0.125-0.483h-1l0.875,0.483l-0.874-0.483
		l0.744,0.666c0.024-0.031,0.053-0.051,0.13-0.183l-0.874-0.483l0.744,0.666l-0.734-0.656l0.667,0.725l0.067-0.068l-0.734-0.656
		l0.667,0.725l-0.511-0.555l0.477,0.585l0.034-0.03l-0.511-0.555l0.477,0.585l0.069-0.054l0.034-0.026l0,0l-0.498-0.68l0.477,0.695
		l0.021-0.015l-0.498-0.68l0.477,0.695l-0.552-0.804l0.509,0.832l0.043-0.028l-0.552-0.804l0.509,0.832l-0.52-0.849l0.447,0.89
		l0.073-0.041l-0.52-0.849l0.447,0.89L11.903,61.1l0.347,0.937l0.102-0.044L11.903,61.1l0.347,0.937L11.917,61.1v1
		c0.226-0.007,0.288-0.046,0.347-0.062L11.917,61.1v1v-1l-0.707,0.707l0.707-0.707l-0.78,0.624l0.074,0.082l0.707-0.707l-0.78,0.624
		l0.781-0.625l-0.868,0.496l0.087,0.129l0.781-0.625l-0.868,0.496l0.868-0.496h-1c0.014,0.329,0.099,0.419,0.132,0.496l0.868-0.496
		h-1h1l-0.928-0.372c-0.027,0.074-0.069,0.177-0.072,0.372h1l-0.928-0.372l0.928,0.372l-0.805-0.593
		c-0.026,0.039-0.064,0.081-0.123,0.221l0.928,0.372l-0.805-0.593l0.803,0.592L11.2,60.403l-0.086,0.102l0.803,0.592L11.2,60.403
		l0.693,0.671l-0.63-0.731l-0.063,0.06l0.693,0.671l-0.63-0.731l0.285,0.331l-0.277-0.338l-0.008,0.007l0.285,0.331l-0.277-0.338
		l-0.085,0.068c-0.104,0.083-0.214,0.17-0.328,0.264c-0.426,0.352-0.848,0.722-1.255,1.116c-0.431,0.417-0.854,0.853-1.257,1.316
		c-0.18,0.206-0.362,0.419-0.542,0.643c-0.084,0.104-0.172,0.213-0.261,0.329l1.583,1.223l0.093-0.12l0.016-0.02l-0.398-0.316
		l0.393,0.322l0.005-0.006l-0.398-0.316l0.393,0.322l-0.724-0.594l0.705,0.616l0.019-0.022l-0.724-0.594l0.705,0.616l-0.746-0.652
		l0.707,0.694l0.039-0.042l-0.746-0.652l0.707,0.694l-0.713-0.699L9.1,65.292l0.072-0.066l-0.713-0.699L9.1,65.293l-0.642-0.766
		l0.525,0.851L9.1,65.294l-0.642-0.766l0.525,0.851l-0.525-0.851l0.375,0.927l0.15-0.076l-0.525-0.851l0.375,0.927l-0.375-0.927v1
		c0.196-0.003,0.3-0.045,0.375-0.073l-0.375-0.927v1v-1l-0.196,0.98c0.144,0.026,0.189,0.017,0.196,0.019v-1l-0.196,0.98
		l0.196-0.981l-0.569,0.822c0.186,0.123,0.298,0.14,0.373,0.158l0.196-0.981l-0.569,0.822l0.569-0.822l-0.861,0.509
		c0.089,0.15,0.2,0.25,0.291,0.313l0.569-0.822l-0.861,0.509l0.861-0.509h-1c-0.002,0.166,0.049,0.361,0.139,0.509l0.861-0.509h-1h1
		l-0.946-0.324c-0.016,0.057-0.049,0.122-0.054,0.324h1l-0.946-0.324l0.945,0.323l-0.879-0.475c-0.013,0.027-0.03,0.051-0.067,0.152
		l0.945,0.323l-0.879-0.475l0.869,0.47L7.63,63.96l-0.054,0.089l0.869,0.47L7.63,63.96l0.662,0.454l-0.649-0.473L7.63,63.96
		l0.662,0.454l-0.649-0.473l-0.07,0.093l-0.092,0.123c-0.689,0.941-1.314,1.939-1.846,2.993c-0.146,0.289-0.291,0.587-0.429,0.894
		c-0.055,0.123-0.113,0.253-0.171,0.39l1.842,0.778l0.06-0.142l0.01-0.024l-0.474-0.208l0.471,0.216L6.95,69.05l-0.474-0.208
		l0.471,0.216l-0.855-0.392l0.842,0.419l0.013-0.028l-0.855-0.392l0.842,0.419l-0.888-0.442l0.858,0.497l0.029-0.054l-0.888-0.442
		l0.858,0.497l-0.865-0.5l0.803,0.594l0.061-0.093l-0.865-0.5l0.803,0.594l-0.804-0.594l0.686,0.727l0.118-0.133l-0.804-0.594
		l0.686,0.727l-0.686-0.727l0.507,0.862c0.094-0.056,0.142-0.1,0.179-0.135l-0.686-0.727l0.507,0.862l-0.507-0.862v1
		c0.264-0.004,0.414-0.086,0.507-0.138l-0.507-0.862v1v-1L5.72,69.59c0.075,0.023,0.153,0.049,0.316,0.051v-1L5.72,69.59
		l0.316-0.949l-0.623,0.782c0.119,0.092,0.2,0.129,0.307,0.167l0.316-0.949l-0.623,0.782l0.623-0.782l-0.832,0.556
		c0.079,0.116,0.149,0.178,0.208,0.226l0.623-0.782l-0.832,0.556l0.831-0.555h-1c0.001,0.255,0.093,0.443,0.168,0.555l0.831-0.555
		h-1h1L5.058,68.42c-0.006,0.038-0.021,0.065-0.025,0.222h1L5.058,68.42l0.965,0.22l-0.932-0.333
		c-0.005,0.019-0.007,0.008-0.033,0.113l0.965,0.22l-0.932-0.333L5.09,68.308l-0.094,0.231C4.79,69.066,4.597,69.605,4.43,70.16
		c-0.178,0.593-0.339,1.199-0.467,1.819c-0.058,0.279-0.114,0.565-0.162,0.86c-0.022,0.137-0.046,0.282-0.068,0.434l-0.015,0.103
		l0.004,0.004l0.486,0.078l-0.484-0.091L3.722,73.38l0.486,0.078l-0.484-0.091l0.922,0.174l-0.912-0.223l-0.011,0.049l0.922,0.174
		l-0.912-0.223l0.964,0.236l-0.935-0.333l-0.029,0.097l0.964,0.236l-0.935-0.333l0.941,0.335l-0.865-0.5
		c-0.053,0.094-0.064,0.133-0.076,0.165l0.941,0.335l-0.865-0.5l0.865,0.501l-0.698-0.715c-0.101,0.102-0.137,0.167-0.167,0.215
		l0.865,0.501l-0.698-0.715l0.699,0.715l-0.463-0.886c-0.113,0.06-0.184,0.121-0.236,0.171l0.699,0.715l-0.463-0.886l0.463,0.886v-1
		c-0.189,0-0.352,0.055-0.463,0.114l0.463,0.886v-1v1l0.614-0.789c-0.128-0.104-0.358-0.213-0.614-0.211v1l0.614-0.789l-0.614,0.789
		l0.927-0.375c-0.042-0.087-0.084-0.225-0.313-0.414l-0.614,0.789l0.927-0.375l-0.926,0.375l0.992-0.121
		c-0.008-0.055-0.014-0.12-0.065-0.253l-0.926,0.375l0.992-0.121l-0.99,0.121h0.997l-0.007-0.121l-0.99,0.121h0.997H4.757
		l0.946,0.084l0.004-0.084h-0.95l0.946,0.084l-0.564-0.05l0.563,0.06l0.001-0.01l-0.564-0.05l0.563,0.06l0.012-0.091l0.006-0.045
		v-0.003l-0.636-0.099l0.633,0.118l0.003-0.019l-0.636-0.099l0.633,0.118l-0.935-0.174l0.922,0.23l0.012-0.055L4.781,73.36
		l0.922,0.23l-0.964-0.24l0.931,0.347l0.033-0.107l-0.964-0.24l0.931,0.347l-0.936-0.349l0.849,0.527
		c0.06-0.099,0.073-0.143,0.087-0.178l-0.936-0.349l0.849,0.527l-0.85-0.527L5.4,74.093c0.108-0.099,0.149-0.167,0.182-0.217
		l-0.85-0.527l0.667,0.745l-0.667-0.745l0.429,0.903c0.11-0.053,0.184-0.11,0.239-0.159l-0.667-0.745l0.429,0.903l-0.429-0.903v1
		c0.17,0,0.32-0.044,0.429-0.096l-0.429-0.903v1v-1L4.272,74.23c0.125,0.067,0.294,0.114,0.462,0.113v-1L4.272,74.23l0.462-0.887
		l-0.854,0.52c0.059,0.091,0.153,0.237,0.392,0.366l0.462-0.887l-0.854,0.52l0.854-0.52L3.76,73.567
		c0.017,0.058,0.025,0.132,0.121,0.297l0.854-0.52L3.76,73.567l0.971-0.223H3.735c0.003,0.042-0.006,0.067,0.025,0.222l0.971-0.223
		H3.735h0.866l-0.863-0.077l-0.003,0.077h0.866l-0.863-0.077l-0.012,0.11c-0.132,1.156-0.148,2.284-0.148,3.389
		c0,4.993,0,9.987,0,14.98h1l0.707-0.707c-0.596-0.596-1.193-1.193-1.789-1.789l-0.707,0.707v1c1.457,0,2.914,0,4.371,0
		c4.731,0,9.462,0,14.193,0c6.47,0,12.941,0,19.411,0c6.607,0,13.213,0,19.82,0c5.14,0,10.279,0,15.419,0c2.07,0,4.139,0,6.209,0v-1
		l-0.707-0.707c-0.596,0.596-1.193,1.193-1.789,1.789l0.707,0.707h1c0-0.288,0-0.576,0-0.863c0-4.993,0-9.987,0-14.98h-1.001V75.903
		z"/>
</g>
</svg>
