<svg xmlns="http://www.w3.org/2000/svg" width="19.766" height="19.766" viewBox="0 0 19.7663498 19.7663841"><path d="M19.74 18.65l-1.134-4.59c.65-1.346.99-2.802.99-4.263a9.768 9.768 0 0 0-2.868-6.927A9.772 9.772 0 0 0 9.798 0 9.772 9.772 0 0 0 2.87 2.87 9.772 9.772 0 0 0 0 9.8a9.772 9.772 0 0 0 2.87 6.929 9.768 9.768 0 0 0 6.927 2.869 9.8 9.8 0 0 0 4.262-.991l4.591 1.134a.899.899 0 0 0 1.09-1.09zm-9.943-.853a7.966 7.966 0 0 1-5.654-2.342A7.97 7.97 0 0 1 1.8 9.799a7.97 7.97 0 0 1 2.343-5.656A7.97 7.97 0 0 1 9.799 1.8a7.97 7.97 0 0 1 5.656 2.343 7.966 7.966 0 0 1 2.342 5.654 8 8 0 0 1-.934 3.755.896.896 0 0 0-.079.638l.851 3.445-3.445-.85a.896.896 0 0 0-.638.078 7.999 7.999 0 0 1-3.755.934z"/><path d="M9.888 8.152a.9.9 0 0 0-.9.9v5.465a.9.9 0 1 0 1.8 0V9.052a.9.9 0 0 0-.9-.9z"/><circle cx="9.888" cy="5.947" r="1.441"/></svg>