<svg id="Слой_1" xmlns="http://www.w3.org/2000/svg" width="29.82" height="29.82" viewBox="0 0 29.8201218 29.8201218"><style>.st0{fill:#0071bc}</style><path class="st0" d="M29.32 14.91h-.5c0 3.843-1.556 7.317-4.074 9.836a13.864 13.864 0 0 1-9.836 4.074 13.864 13.864 0 0 1-9.836-4.074A13.864 13.864 0 0 1 1 14.91c0-3.843 1.556-7.317 4.074-9.836A13.864 13.864 0 0 1 14.91 1c3.843 0 7.317 1.556 9.836 4.074a13.864 13.864 0 0 1 4.074 9.836h1C29.82 6.675 23.145 0 14.91 0S0 6.675 0 14.91s6.675 14.91 14.91 14.91 14.91-6.675 14.91-14.91h-.5z"/><path class="st0" d="M14.41 5.34v18.055h1V5.341"/><path class="st0" d="M10.82 20.082l.733-.683 3.356 3.612 3.358-3.612.732.683-4.09 4.398z"/></svg>