<svg xmlns="http://www.w3.org/2000/svg" width="30.69" height="15.584" viewBox="0 0 30.6904602 15.5842896"><path d="M30.5 7.062c-.04-.05-1.403-1.793-3.95-3.546C24.008 1.766 20.258 0 15.506 0 10.98.003 7.17 1.814 4.495 3.597 1.82 5.385.26 7.16.225 7.198A.9.9 0 0 0 .23 8.394c.033.036 1.626 1.806 4.276 3.59 2.649 1.78 6.373 3.596 10.678 3.6 4.572-.002 8.388-1.862 11.053-3.693 2.667-1.834 4.204-3.655 4.24-3.695a.898.898 0 0 0 .022-1.134zm-10.84 4.847a5.8 5.8 0 0 1-4.116 1.705 5.8 5.8 0 0 1-4.117-1.705 5.8 5.8 0 0 1-1.705-4.117 5.8 5.8 0 0 1 1.705-4.116 5.8 5.8 0 0 1 4.117-1.705 5.8 5.8 0 0 1 4.116 1.705 5.8 5.8 0 0 1 1.705 4.116 5.8 5.8 0 0 1-1.705 4.117zM2.602 8.205a22.06 22.06 0 0 1-.444-.417A23.435 23.435 0 0 1 5.731 4.94a21.067 21.067 0 0 1 3.95-2.016 7.59 7.59 0 0 0-1.76 4.87 7.591 7.591 0 0 0 1.804 4.916 21.332 21.332 0 0 1-4.213-2.217 25.35 25.35 0 0 1-2.91-2.287zm22.381 2.362a20.897 20.897 0 0 1-3.385 1.84 7.586 7.586 0 0 0-.285-9.587A18.67 18.67 0 0 1 25.53 5a19.356 19.356 0 0 1 2.665 2.204c.146.145.272.276.382.393a22.95 22.95 0 0 1-3.594 2.97z"/><path d="M15.544 4.125a3.65 3.65 0 0 0-1.02.147c.288.315.468.732.468 1.193 0 .98-.795 1.776-1.776 1.776-.46 0-.877-.18-1.193-.469a3.666 3.666 0 1 0 3.52-2.647z"/></svg>