<svg xmlns="http://www.w3.org/2000/svg" width="24.776" height="26.372" viewBox="0 0 24.7762451 26.3721085"><path d="M24.56 20.426a3.346 3.346 0 0 0-.206-.441l-.149-.27a76.243 76.243 0 0 1-1.543-2.968c-.417-.864-1.002-1.41-1.553-1.699a2.791 2.791 0 0 0-1.295-.337c-.042 0-.055.003-.085.004h-5.136c-.03-.001-.043-.004-.085-.004-.256 0-.744.045-1.295.337-.55.29-1.136.835-1.553 1.699a.875.875 0 0 0-.076.448l-5.35-.973a.9.9 0 0 0-1.06.886v4.465H2.97c-.704.001-.987-.159-1.062-.23l-.076-.108a.61.61 0 0 1-.032-.214c-.003-.201.072-.495.162-.718.043-.112.088-.208.12-.271l.036-.07.008-.014.007-.012c.004-.008 1.307-2.343 2.511-4.806.434-.88.915-1.273 1.309-1.486.394-.21.73-.232.844-.232l.036.001.087.004h7.176a4.285 4.285 0 0 0 2.937 1.172 4.31 4.31 0 0 0 0-8.62c-.364 0-.712.06-1.05.144a5.32 5.32 0 0 0 .048-.684 5.43 5.43 0 1 0-3.293 4.992c.014.418.094.816.219 1.196H6.954a2.224 2.224 0 0 0-.157-.005c-.325 0-.965.058-1.69.442-.724.382-1.505 1.1-2.08 2.285A104.338 104.338 0 0 1 .78 18.663l-.218.396a4.606 4.606 0 0 0-.276.59c-.134.35-.282.817-.285 1.372 0 .268.038.56.15.857.164.445.528.875 1.022 1.126.494.256 1.083.368 1.798.37h2.18a1.237 1.237 0 0 0 .095.843c.138.276.37.484.622.626.257.145.548.243.908.32h.006l5.885 1.19a.885.885 0 0 0 .35.002c.004 0 4.727-.918 6.034-1.193.479-.103.841-.238 1.151-.483a1.42 1.42 0 0 0 .38-.463 1.238 1.238 0 0 0 .094-.843h1.775c.69 0 1.281-.145 1.732-.533.22-.19.381-.435.472-.677a1.93 1.93 0 0 0 .122-.69 2.927 2.927 0 0 0-.215-1.047zm-5.018-10.147a2.513 2.513 0 0 1-2.51 2.51 2.513 2.513 0 0 1-2.509-2.51 2.513 2.513 0 0 1 2.51-2.51 2.513 2.513 0 0 1 2.51 2.51zM8.036 7.996a3.614 3.614 0 0 1-1.063-2.567c0-1.005.404-1.906 1.063-2.566A3.614 3.614 0 0 1 10.602 1.8c1.005 0 1.907.405 2.566 1.063a3.614 3.614 0 0 1 1.063 2.566 3.614 3.614 0 0 1-1.063 2.567 3.614 3.614 0 0 1-2.566 1.063 3.614 3.614 0 0 1-2.566-1.063zm6.022 8.642c.22-.118.405-.127.45-.127h.008l.077.004h3.359l-4.553.811c.237-.396.471-.585.66-.688zm1.14 7.457l-2.35.46L7.144 23.4a2.443 2.443 0 0 1-.16-.04.894.894 0 0 0 .836-.887.894.894 0 0 0-.846-.889v-3.398l5.71 1.038c.105.02.213.02.319.001l5.849-1.043v3.391h-.68a.9.9 0 1 0 0 1.8h.608c-.037.01-.055.018-.1.028-.632.132-2.14.43-3.482.694zm5.454-2.522v-4.465c0-.074-.03-.14-.047-.21.142.142.292.34.44.639a77.539 77.539 0 0 0 1.738 3.325l.008.014c.014.026.068.13.112.256.046.124.075.268.073.34l-.001.024c-.048.025-.208.078-.525.077h-1.798z"/></svg>