<svg xmlns="http://www.w3.org/2000/svg" width="19.766" height="19.766" viewBox="0 0 19.7663765 19.7663841"><path d="M19.74 18.65l-1.134-4.59c.65-1.346.99-2.802.99-4.263a9.769 9.769 0 0 0-2.868-6.927A9.772 9.772 0 0 0 9.798 0 9.772 9.772 0 0 0 2.87 2.87 9.772 9.772 0 0 0 0 9.8a9.772 9.772 0 0 0 2.87 6.929 9.768 9.768 0 0 0 6.927 2.869 9.8 9.8 0 0 0 4.262-.991l4.591 1.134a.899.899 0 0 0 1.09-1.09zm-9.943-.853a7.966 7.966 0 0 1-5.654-2.342A7.97 7.97 0 0 1 1.8 9.799a7.97 7.97 0 0 1 2.343-5.656A7.97 7.97 0 0 1 9.799 1.8a7.97 7.97 0 0 1 5.656 2.343 7.966 7.966 0 0 1 2.342 5.654 7.998 7.998 0 0 1-.934 3.755.896.896 0 0 0-.079.638l.851 3.445-3.445-.85a.896.896 0 0 0-.638.078 7.999 7.999 0 0 1-3.755.934z"/><circle cx="9.883" cy="14.468" r="1.441"/><path d="M9.888 3.81a3.455 3.455 0 0 0-2.437.995A3.411 3.411 0 0 0 6.44 7.24a.9.9 0 0 0 1.8 0c.002-.911.723-1.625 1.649-1.63.457 0 .867.186 1.172.49.304.306.49.72.49 1.177-.002.497-.171.907-.441 1.193-.275.283-.648.47-1.207.474a.906.906 0 0 0-.636.263.906.906 0 0 0-.264.637v1.463a.9.9 0 1 0 1.8 0v-.684a3.288 3.288 0 0 0 1.612-.914c.613-.645.936-1.518.935-2.432A3.47 3.47 0 0 0 9.888 3.81z"/></svg>