<svg xmlns="http://www.w3.org/2000/svg" width="20.717" height="20.888" viewBox="0 0 20.7171173 20.88797"><path d="M20.453 19.352l-5.137-5.138a8.64 8.64 0 0 0 2.015-5.549 8.642 8.642 0 0 0-2.538-6.127A8.642 8.642 0 0 0 8.665 0a8.642 8.642 0 0 0-6.127 2.538A8.642 8.642 0 0 0 0 8.665a8.642 8.642 0 0 0 2.538 6.128 8.642 8.642 0 0 0 6.127 2.538 8.641 8.641 0 0 0 5.36-1.863l5.156 5.156a.9.9 0 0 0 1.272-1.272zM3.811 13.52A6.84 6.84 0 0 1 1.8 8.665a6.84 6.84 0 0 1 2.01-4.854A6.84 6.84 0 0 1 8.666 1.8a6.84 6.84 0 0 1 4.855 2.01 6.84 6.84 0 0 1 2.01 4.855 6.84 6.84 0 0 1-2.01 4.855 6.84 6.84 0 0 1-4.855 2.01 6.84 6.84 0 0 1-4.854-2.01z"/><path d="M8.665 3.829A4.837 4.837 0 0 0 3.83 8.665a.9.9 0 0 0 1.8 0A3.04 3.04 0 0 1 8.665 5.63a.9.9 0 1 0 0-1.8z"/></svg>