<svg xmlns="http://www.w3.org/2000/svg" width="18.686" height="25.22" viewBox="0 0 18.6856079 25.2195511"><path d="M18.43 21.83a4.094 4.094 0 0 0-.246-.527l-.188-.341a95.994 95.994 0 0 1-1.944-3.74c-.508-1.047-1.204-1.692-1.854-2.033a3.278 3.278 0 0 0-1.52-.397c-.058 0-.103.002-.14.004H6.147a2.104 2.104 0 0 0-.14-.004c-.295 0-.87.052-1.519.397-.65.341-1.347.986-1.854 2.033a90.256 90.256 0 0 1-1.945 3.74c-.12.22-.188.34-.188.341a4.086 4.086 0 0 0-.246.526A3.455 3.455 0 0 0 0 23.061c0 .244.034.512.138.786.15.41.49.81.942 1.039.45.234.98.332 1.613.334h3.421a.9.9 0 0 0 0-1.8H2.693c-.594 0-.808-.135-.84-.17l-.033-.046-.02-.143c-.003-.15.057-.393.132-.578a2.74 2.74 0 0 1 .1-.225l.029-.056.006-.01.006-.011c.004-.008 1.134-2.032 2.178-4.17.367-.741.763-1.059 1.082-1.233.32-.17.59-.186.675-.186h.023l.083.004h6.458l.082-.005v.001h.024a1.5 1.5 0 0 1 .675.186c.319.174.715.492 1.081 1.234 1.045 2.137 2.174 4.16 2.179 4.169l.006.01c.005.01.081.147.148.328.07.179.121.402.119.542l-.02.143c-.02.032 0 .03-.095.087-.096.052-.338.13-.778.129h-3.421a.9.9 0 1 0 0 1.8h3.42c.837-.001 1.52-.178 2.025-.614.248-.215.428-.487.53-.76.104-.273.138-.54.139-.785a3.457 3.457 0 0 0-.255-1.232zM1.93 4.964l2.604 1.202a5.43 5.43 0 1 0 10.238 2.52 5.4 5.4 0 0 0-.63-2.523l2.588-1.2a.901.901 0 0 0 0-1.632L9.723.083a.9.9 0 0 0-.755 0L1.93 3.33a.902.902 0 0 0-.523.817c0 .35.205.67.523.817zm11.042 3.722a3.614 3.614 0 0 1-1.063 2.566 3.614 3.614 0 0 1-2.566 1.063 3.614 3.614 0 0 1-2.567-1.063 3.614 3.614 0 0 1-1.062-2.566c0-.615.151-1.189.419-1.695.013-.025.012-.052.023-.078l2.812 1.298a.9.9 0 0 0 .755 0l2.79-1.293c.292.524.459 1.123.46 1.768zM9.344 1.891l4.867 2.256-4.867 2.255-4.888-2.255 4.888-2.256z"/></svg>