<svg xmlns="http://www.w3.org/2000/svg" width="21.295" height="26.372" viewBox="0 0 21.295166 26.3722668"><path d="M10.602 10.859a5.43 5.43 0 1 0 0-10.86 5.43 5.43 0 0 0 0 10.86zM8.036 2.863A3.614 3.614 0 0 1 10.602 1.8c1.005 0 1.907.405 2.566 1.063a3.614 3.614 0 0 1 1.063 2.566 3.614 3.614 0 0 1-1.063 2.567 3.614 3.614 0 0 1-2.566 1.063 3.614 3.614 0 0 1-2.566-1.063 3.614 3.614 0 0 1-1.063-2.567c0-1.005.404-1.906 1.063-2.566zM21.01 19.649a4.579 4.579 0 0 0-.276-.59l-.218-.396a110.973 110.973 0 0 1-2.248-4.324c-.575-1.184-1.356-1.903-2.08-2.285a3.646 3.646 0 0 0-1.69-.442c-.066 0-.117.003-.156.005H6.954a2.224 2.224 0 0 0-.157-.005c-.325 0-.965.058-1.69.442-.724.382-1.505 1.1-2.08 2.285A104.396 104.396 0 0 1 .78 18.663l-.218.396a4.606 4.606 0 0 0-.276.59c-.134.35-.282.817-.285 1.372 0 .268.038.56.15.857.164.445.528.875 1.022 1.126.493.256 1.083.368 1.798.37h2.185c-.019.085-.04.169-.04.29-.006.256.087.61.325.89.236.282.562.468.94.587l.01.002 3.952 1.19a.89.89 0 0 0 .51.003c.005-.001 3.172-.917 4.062-1.195.38-.119.706-.305.941-.587.238-.28.331-.634.326-.89-.001-.121-.022-.205-.041-.29h2.185c.947-.001 1.699-.202 2.246-.674.269-.234.462-.527.574-.822.112-.296.15-.59.15-.857a3.829 3.829 0 0 0-.285-1.372zm-10.403 4.884L6.94 23.43c-.001-.02-.006-.039-.008-.058a.896.896 0 0 0 .022-1.79v-3.745l3.391 1.009a.91.91 0 0 0 .509.001l3.487-1.016v3.75a.896.896 0 0 0 .022 1.79c-.002.02-.007.04-.008.06-.426.132-1.42.425-2.308.684l-1.44.42zm8.856-3.298c-.032.066-.038.095-.175.174-.138.075-.44.165-.963.164h-2.184V16.63a.902.902 0 0 0-1.152-.864l-4.385 1.278-4.293-1.277c-.271-.08-.568-.028-.795.141s-.362.439-.362.722v4.943H2.97c-.704.001-.987-.159-1.062-.23l-.076-.108a.61.61 0 0 1-.032-.214c-.003-.201.072-.495.162-.718.043-.112.088-.208.12-.271l.036-.07.008-.014.007-.012c.004-.008 1.307-2.343 2.511-4.806.434-.88.915-1.273 1.309-1.486.394-.21.73-.232.844-.232l.036.001.087.004h7.455l.087-.005v.001h.036c.114 0 .45.02.844.23.394.214.875.607 1.309 1.487a112.668 112.668 0 0 0 2.512 4.806l.006.012c.009.015.1.18.18.397.083.217.149.487.146.676a.61.61 0 0 1-.032.214z"/></svg>