<svg xmlns="http://www.w3.org/2000/svg" width="74" height="74" viewBox="0 0 74 74"><path fill-rule="evenodd" clip-rule="evenodd" d="M57.854 37.207c.167-.149.037.054.162-.242l.3-1.045c1.606-.05 2.714-.173 4.012-.689l2.673-1.831c-.886-.012-1.815.226-3.255.004l-2.916-.611c.238-.153.61-.157.95-.208.351-.053.652-.1.997-.18.674-.157 1.166-.308 1.73-.57l2.242-2.191c-1.024.403-1.949.57-3.33.586-.67.007-3.105-.032-3.33-.63-.268-.71-.265-1.382-.824-2.712a13.914 13.914 0 0 0-1.291-2.388 13.093 13.093 0 0 0-3.762-3.71l-6.142-1.721c.385-.37 1.832-.662 2.356-.801 2.738-.731 2.501-1.73 1.838-1.917-.846-.237-2.91.541-3.833.823l1.654-1.753c-1.72.161-2.847 1.02-4.136 1.813l.536-1.316c-1.623.544-4.552 4.412-5.363 5.961l-3.436 7.539c-.293-.12-2.326-2.204-3.879-3.132-1.356-.81-3.167-1.675-4.723-2.396-3.748-1.737-6.427-2.792-10.263-4.195-.192 3.37 1.97 5.221 4.668 7.034l-3.287.433c.057 1.438 1.168 2.937 2.011 3.656 1.534 1.31 2.338 1.316 3.745 1.847l.29.15c-2.27.392-1.592.141-3.561 1.417.024.898 1.977 2.804 3.449 3.133l3.279.425c-.227.208-.582.355-.85.526a2.558 2.558 0 0 0-.713.632c-.453.549-.687 1.17-.391 1.93l3.796 1.73c-.202.402-1.442 1.4-1.859 1.688-2.271 1.572-4.825 2.679-8.08 2.822-2.314.102-4.553-.339-6.322-1.046-2.04-.816-2.875-1.499-4.432-2.7.457.785 1.491 1.87 2.122 2.539 5.953 6.314 15.585 9.799 25.653 8.001 6.147-1.098 10.109-3.219 13.709-5.85.593-.434 2.007-1.702 2.515-2.227 1.566-1.613 2.959-3.343 3.976-5.34.305-.601 1.362-2.68 1.315-3.288z"/></svg>