<svg xmlns="http://www.w3.org/2000/svg" width="74" height="74" viewBox="0 0 74 74"><path fill-rule="evenodd" clip-rule="evenodd" d="M55.126 40.775c3.112 2.843 5.282 5.158 6.51 6.945.574.894.758 1.685.553 2.376-.204.69-.676 1.036-1.412 1.036l-8.107.365c-1.146.082-2.538-.61-4.176-2.071-1.638-1.462-2.743-2.681-3.317-3.656-.328-.568-.92-.893-1.78-.975-.86-.08-1.413.326-1.659 1.22l-.246 3.167c-.081.65-.328 1.138-.736 1.462-.41.325-.757.508-1.044.55-.287.04-.757.1-1.413.182-2.13.081-3.992-.02-5.589-.305a11.104 11.104 0 0 1-4.36-1.766c-1.31-.894-2.354-1.706-3.132-2.438-.778-.732-1.904-1.91-3.378-3.534-4.012-5.686-7-10.6-8.966-14.743-.737-1.625-1.147-3.006-1.229-4.143.328-.325.942-.528 1.843-.61.901-.08 2.211-.1 3.93-.06 1.72.04 2.743.06 3.07.06.82-.08 1.475.366 1.967 1.341 2.046 4.548 4.053 8.082 6.018 10.6 1.31 1.219 2.17 1.016 2.58-.609.164 0 .246-1.99.246-5.97.08-2.519-.943-4.102-3.071-4.752.49-1.3 2.21-1.95 5.159-1.95.737 0 1.637.04 2.702.121 1.063.082 1.637.123 1.718.123 2.458 0 3.686.974 3.686 2.924 0 .244-.041.834-.123 1.767a66.513 66.513 0 0 0-.184 2.68 55.747 55.747 0 0 0-.062 2.682c0 .934.123 1.725.37 2.376.244.65.572 1.056.982 1.218.45-.325.88-.63 1.289-.913.41-.286.84-.752 1.29-1.403.45-.65.798-1.137 1.044-1.461.245-.326.614-.934 1.105-1.828.492-.894.779-1.462.86-1.706.082-.243.369-.873.86-1.889l.737-1.523.183-.366c.328-.73.595-1.157.8-1.278.204-.122.716-.184 1.534-.184h7.616c.9 0 1.433.021 1.596.062.164.04.411.223.738.548.573.731.061 2.315-1.536 4.752-1.596 2.437-3.131 4.467-4.606 6.093-2.047 2.274-2.333 4.101-.86 5.483z"/></svg>