<?xml version="1.0" encoding="utf-8"?>
<!-- Generator: Adobe Illustrator 17.0.0, SVG Export Plug-In . SVG Version: 6.00 Build 0)  -->
<!DOCTYPE svg PUBLIC "-//W3C//DTD SVG 1.1//EN" "http://www.w3.org/Graphics/SVG/1.1/DTD/svg11.dtd">
<svg version="1.1" id="Слой_1" xmlns="http://www.w3.org/2000/svg" xmlns:xlink="http://www.w3.org/1999/xlink" x="0px" y="0px"
	 width="23px" height="23px" viewBox="88.5 88.5 23 23" enable-background="new 88.5 88.5 23 23" xml:space="preserve">
<g>
	<path fill="#39404C" d="M107.667,88.5H92.333c-2.108,0-3.833,1.725-3.833,3.833v15.333c0,2.108,1.725,3.833,3.833,3.833h15.333
		c2.108,0,3.833-1.725,3.833-3.833V92.333C111.5,90.225,109.775,88.5,107.667,88.5z M109.967,107.667c0,1.265-1.035,2.3-2.3,2.3
		H92.333c-1.265,0-2.3-1.035-2.3-2.3V92.333c0-1.265,1.035-2.3,2.3-2.3h15.333c1.265,0,2.3,1.035,2.3,2.3V107.667z M99.233,97.317
		h1.533v9.583h-1.533V97.317z M101.15,94.633c0,0.652-0.498,1.15-1.15,1.15s-1.15-0.498-1.15-1.15s0.498-1.15,1.15-1.15
		S101.15,93.982,101.15,94.633z"/>
</g>
</svg>
