<svg width='200' height='200' fill="#51A7F9" xmlns="http://www.w3.org/2000/svg" xmlns:xlink="http://www.w3.org/1999/xlink" version="1.1" x="0px" y="0px" viewBox="0 0 100 100" enable-background="new 0 0 100 100" xml:space="preserve"><g><path d="M81.413,5H18.529c-3.726-0.001-7.115,1.483-9.561,3.895C6.519,11.304,4.999,14.661,5,18.368v44.584   c0.004,6.889,5.292,12.57,12.077,13.287v17.309c0,0.096,0.01,0.192,0.029,0.287l0.043,0.142l0.04,0.13   c0.037,0.089,0.083,0.175,0.137,0.254l0.001,0.001l0.181,0.217l0.104,0.086l0.115,0.092l0.122,0.067l0.127,0.066l0.136,0.042   l0.134,0.04c0.086,0.017,0.174,0.025,0.263,0.026L18.529,95h0.001c0.096,0,0.192-0.01,0.287-0.029l0.137-0.042l0.135-0.042   c0.089-0.037,0.175-0.083,0.254-0.137h0L46.61,76.318h34.803c3.731,0,7.13-1.499,9.589-3.915C93.462,69.99,95,66.637,95,62.952   V18.368c0.001-3.711-1.537-7.069-4-9.476C88.539,6.482,85.139,5,81.413,5z M92.097,62.952c-0.001,2.87-1.191,5.475-3.129,7.38   c-1.94,1.903-4.608,3.083-7.555,3.084H46.169c-0.098,0-0.196,0.009-0.293,0.029l-0.083,0.025l-0.188,0.058l-0.245,0.132   l-0.007,0.004l-25.371,17.15V74.867c0-0.802-0.65-1.452-1.452-1.452l-0.003,0c-2.945-0.002-5.594-1.181-7.519-3.081   c-1.923-1.903-3.103-4.509-3.104-7.384V18.368c0.001-2.907,1.181-5.508,3.102-7.404c1.923-1.892,4.573-3.059,7.524-3.06h62.884   c2.951,0,5.619,1.169,7.556,3.064c1.936,1.897,3.126,4.498,3.127,7.4V62.952z"/><path d="M67.299,26.603L67.299,26.603L43.88,51.6L32.7,39.667c-0.548-0.585-1.467-0.615-2.052-0.067   c-0.585,0.548-0.615,1.467-0.067,2.052l12.239,13.064c0.276,0.295,0.655,0.459,1.059,0.459c0.404,0,0.783-0.164,1.059-0.459   l24.478-26.129c0.548-0.585,0.518-1.504-0.067-2.052C68.766,25.988,67.847,26.018,67.299,26.603z"/></g></svg>