<svg width='200' height='200' fill="#51A7F9" xmlns="http://www.w3.org/2000/svg" xmlns:xlink="http://www.w3.org/1999/xlink" version="1.1" x="0px" y="0px" viewBox="0 0 100 100" enable-background="new 0 0 100 100" xml:space="preserve"><path d="M43.4,64.91l6.599-6.599l6.601,6.6l4.95-4.949l-6.601-6.601l6.6-6.6l-4.95-4.949l-6.6,6.599L43.4,41.813l-4.95,4.949  l6.6,6.6l-6.6,6.6L43.4,64.91z M62.071,16.867l-2.634-4.375H40.563l-2.634,4.375H18.188v9.696h3.979v49.444  c0,6.341,5.159,11.5,11.5,11.5h33.668c6.084,0,10.5-4.837,10.5-11.5V26.563h3.979v-9.696H62.071z M70.834,76.008  c0,0.751-0.169,4.5-3.5,4.5H33.666c-2.481,0-4.5-2.019-4.5-4.5V26.563h41.668V76.008z"/></svg>