<?xml version="1.0" encoding="utf-8"?>
<!-- Generator: Adobe Illustrator 17.0.0, SVG Export Plug-In . SVG Version: 6.00 Build 0)  -->
<!DOCTYPE svg PUBLIC "-//W3C//DTD SVG 1.1//EN" "http://www.w3.org/Graphics/SVG/1.1/DTD/svg11.dtd">
<svg version="1.1" id="Слой_1" xmlns="http://www.w3.org/2000/svg" xmlns:xlink="http://www.w3.org/1999/xlink" x="0px" y="0px"
	 width="24.137px" height="24px" viewBox="127.078 196.1 24.137 24" enable-background="new 127.078 196.1 24.137 24"
	 xml:space="preserve">
<g>
	<path fill="#FFFFFF" d="M138.307,199.051h-0.687c-2.816,0-5.46,1.099-7.451,3.09c-1.992,1.992-3.09,4.635-3.09,7.451
		c0,5.803,4.704,10.507,10.507,10.507c2.816,0,5.46-1.099,7.451-3.09c1.992-1.992,3.09-4.635,3.09-7.451v-0.687h-9.82V199.051z"/>
	<path fill="#FFFFFF" d="M148.125,199.19c-1.992-1.992-4.635-3.09-7.451-3.09h-0.687v11.194h11.228v-0.687
		C151.215,203.826,150.116,201.182,148.125,199.19z M141.36,205.955v-8.447c2.198,0.172,4.223,1.099,5.769,2.644
		c1.579,1.579,2.507,3.605,2.644,5.769h-8.413V205.955z"/>
</g>
</svg>
